<svg data-name="Layer 1" xmlns="http://www.w3.org/2000/svg" viewBox="0 0 50 50"><path d="M18.91 7s-6.37.44-10.53 3.78h-.07A9.94 9.94 0 0 0 6.38 14a44.91 44.91 0 0 0-2 5.53A52.17 52.17 0 0 0 2 34a1.06 1.06 0 0 0 .12.5c1.47 2.57 4.15 4.12 6.66 5.09a20.22 20.22 0 0 0 6 1.41 1 1 0 0 0 .84-.41l2.44-3.37a31.26 31.26 0 0 0 13.88 0l2.44 3.37a1 1 0 0 0 .84.41 20.22 20.22 0 0 0 6-1.41c2.51-1 5.19-2.52 6.66-5.09A1.06 1.06 0 0 0 48 34a52.17 52.17 0 0 0-2.34-14.47 44.91 44.91 0 0 0-2-5.53 9.94 9.94 0 0 0-1.93-3.19h-.07C37.46 7.44 31.09 7 31.09 7h-.21a1 1 0 0 0-.79.59 9.48 9.48 0 0 0-.56 1.82A29.46 29.46 0 0 0 25 9a29.46 29.46 0 0 0-4.53.41 9.48 9.48 0 0 0-.56-1.82 1 1 0 0 0-1-.59zm-.63 2.16a5 5 0 0 1 .19.62 23.24 23.24 0 0 0-7 2.81 1 1 0 0 0 0 1.83 1 1 0 0 0 1.08-.14C17.1 11.41 23 11 25 11s7.9.41 12.53 3.28a1 1 0 0 0 1.08.14 1 1 0 0 0 0-1.83 23.24 23.24 0 0 0-7-2.81 5 5 0 0 1 .19-.62c1.14.14 5.57.73 8.59 3.12a10.87 10.87 0 0 1 1.5 2.56 45.14 45.14 0 0 1 1.91 5.25A51 51 0 0 1 46 33.66a11.16 11.16 0 0 1-5.47 4.06 19.83 19.83 0 0 1-4.84 1.22L34 36.66a24.57 24.57 0 0 0 2.31-.88 16.82 16.82 0 0 0 3.88-2.28 1 1 0 0 0-1.38-1.5 13 13 0 0 1-3.34 2 22.9 22.9 0 0 1-3 1.06 1 1 0 0 0-.75.22A28.46 28.46 0 0 1 25 36a28 28 0 0 1-6.72-.78 1 1 0 0 0-.72-.16 22.18 22.18 0 0 1-3-1.09 13 13 0 0 1-3.34-2 1 1 0 1 0-1.35 1.5 16.82 16.82 0 0 0 3.88 2.28 24.57 24.57 0 0 0 2.31.88l-1.69 2.28a19.83 19.83 0 0 1-4.87-1.19A11.16 11.16 0 0 1 4 33.66a51 51 0 0 1 2.28-13.57 45.14 45.14 0 0 1 1.91-5.25 10.87 10.87 0 0 1 1.5-2.56c3.02-2.39 7.45-2.98 8.59-3.12zM18.5 21a4.78 4.78 0 0 0-4.5 5 4.78 4.78 0 0 0 4.5 5 4.78 4.78 0 0 0 4.5-5 4.78 4.78 0 0 0-4.5-5zm13 0a4.78 4.78 0 0 0-4.5 5 4.78 4.78 0 0 0 4.5 5 4.78 4.78 0 0 0 4.5-5 4.78 4.78 0 0 0-4.5-5zm-13 2a2.78 2.78 0 0 1 2.5 3 2.78 2.78 0 0 1-2.5 3 2.78 2.78 0 0 1-2.5-3 2.78 2.78 0 0 1 2.5-3zm13 0a2.78 2.78 0 0 1 2.5 3 2.78 2.78 0 0 1-2.5 3 2.78 2.78 0 0 1-2.5-3 2.78 2.78 0 0 1 2.5-3z" style="fill:#d5ff10"/></svg>