<?xml version="1.0" encoding="UTF-8"?>
<svg id="Layer_1" data-name="Layer 1" xmlns="http://www.w3.org/2000/svg" xmlns:xlink="http://www.w3.org/1999/xlink" viewBox="0 0 1480 371">
  <defs>
    <style>
      .cls-1, .cls-2 {
        fill: none;
      }

      .cls-3 {
        clip-path: url(#clippath);
      }

      .cls-4 {
        fill: #020202;
      }

      .cls-5 {
        clip-path: url(#clippath-1);
      }

      .cls-6 {
        clip-path: url(#clippath-4);
      }

      .cls-7 {
        clip-path: url(#clippath-3);
      }

      .cls-8 {
        clip-path: url(#clippath-2);
      }

      .cls-9 {
        clip-path: url(#clippath-7);
      }

      .cls-10 {
        clip-path: url(#clippath-6);
      }

      .cls-11 {
        clip-path: url(#clippath-5);
      }

      .cls-2 {
        stroke: #020202;
        stroke-dasharray: 0 0 5 5;
      }

      .cls-12 {
        fill: #ffd835;
        fill-rule: evenodd;
      }
    </style>
    <clipPath id="clippath">
      <rect class="cls-1" x="135" y="80" width="25" height="25"/>
    </clipPath>
    <clipPath id="clippath-1">
      <rect class="cls-1" x="239.5" y="226.5" width="38" height="38"/>
    </clipPath>
    <clipPath id="clippath-2">
      <rect class="cls-1" x="376" y="226.5" width="38" height="38"/>
    </clipPath>
    <clipPath id="clippath-3">
      <rect class="cls-1" x="509.5" y="226.5" width="38" height="38"/>
    </clipPath>
    <clipPath id="clippath-4">
      <rect class="cls-1" x="640.5" y="226.5" width="38" height="38"/>
    </clipPath>
    <clipPath id="clippath-5">
      <rect class="cls-1" x="771.5" y="226.5" width="38" height="38"/>
    </clipPath>
    <clipPath id="clippath-6">
      <rect class="cls-1" x="904" y="225.5" width="40" height="40"/>
    </clipPath>
    <clipPath id="clippath-7">
      <rect class="cls-1" x="1042.5" y="225.5" width="40" height="40"/>
    </clipPath>
  </defs>
  <path class="cls-12" d="M6.33,3.52l-.05-.34H400.13c0,17.1,24.1,31.02,53.72,31.02S507.57,20.28,507.57,0h972.43V1.49l-1.61,.27-2.87,1.1-2.31,1.54-1.73,3.96-.57,2.64s-.58,.88-1.15,3.08c-.44,.76-.63,1.22-.79,1.62-.26,.65-.45,1.11-1.52,2.34-1.72,2.2-2.87,4.18-2.87,4.18l-.58,.66,2.3,3.96,2.31,3.52s-.58,4.84-.58,5.28c0,.22,.58,4.4,.58,4.4l1.72,4.4v1.98l6.91,1.32,.58,.88s.57,1.98,.57,2.64c-.57,.66-.57,1.1-.57,1.1,0,0-.58,1.1-1.15,1.98-.36,.27-.61,.42-.79,.53-.42,.25-.54,.32-.94,1.23-.58,1.1-1.15,1.98-1.73,2.2-.57,.22,.58,1.32,.58,1.32l-.58,4.4-1.15,2.64-1.15,1.76,1.73,1.1,1.15,1.1,.57,1.32-.57,3.52,3.45,2.42,.58,5.72v1.54c0,.66,1.15,1.54,1.73,1.98,.57,.44,0,1.98,0,1.98l.45,1.04v2.13l-2.76,2.11s-1.15,4.62-1.72,5.72c-.58,1.1,0,1.54,0,1.54l1.72,5.72,2.31,2.42-4.03,3.08v.66l.57,2.42v6.38l-.57,2.2,2.3,1.54-1.73,.22v1.54l-1.15,.66v3.3h2.3l1.73,2.42-4.03,4.18-.58,2.64,1.16,2.86,4.03,.22,.45,.81v3.12l-3.33,2.23,3.33,2.04v8.66l-.45,.52v2.64l.45,1.39v2.43l-1.03,2.56,1.03,.52v26.15l-.45,.61-.58,1.54-1.15,.88-1.15,.88-1.15,.88-1.73,1.32-.58,1.1,.58,2.2,.57,.66v3.08l-1.15,3.08s-1.15,1.98-2.3,2.86l-2.3,1.76-1.16,.22,1.73,2.64,5.18,2.42-.57,1.98-.58,1.32,.58,.88,1.15,1.98-.58,1.1-1.15,1.32-.57,1.54v1.32l.57,3.74,1.15,2.2,1.16,1.1s0,1.1-2.88,3.74c-2.88,2.64,0,2.86,0,2.86l6.33,6.6,.58,1.54-.58,1.1-1.15,2.2,.57,1.1,.58,1.1-.58,1.1-1.15,.44v2.64s2.31,5.5,1.73,5.94c-.58,.44-1.15,1.54-1.15,1.54l-.58,1.98-2.88,1.54-.57,1.1v2.64s-.58,2.64-.58,3.52c-.57,.88,0,2.64,0,2.64l2.31,1.98,2.87,1.54v3.96s-1.72,1.54-1.15,1.98c.58,.22,.58,.88,.58,.88l1.15,2.2,.58,1.54,.45,.61v1.14c-1.31,.4-4.05,1.27-4.48,1.77l-1.73,.22-.58,1.32v1.32l-.57,1.98s-.58,.88-.58,1.32c0,.15-.51,.1-1.02,.05-.24-.03-.47-.04-.71-.05-.57,0-.57,.44-2.88,1.1l1.73,1.32,2.3-.22,1.16,.88,1.15,1.32,1.15,.88,.58,1.76,1.72,2.2v4.4l-1.15,1.1,1.73,2.42-4.61,3.08-.57,1.32-2.88,.88v3.96l1.15,.88,.57,3.52v.66l-1.15,.88v2.2l1.15,1.32,1.73,2.2,1.73,2.64-1.15,1.32v1.54l1.73,4.18,1.72,.88v2.42l-1.15,.88,.58,2.2,2.3-.44-1.15,1.76-1.15,4.62H507.57c0-17.1-24.1-31.02-53.72-31.02s-53.72,13.92-53.72,31.02H0v-1.82l.58-.17,2.88-9.68,.57-3.3-.58-1.98,1.15-3.52,4.03-1.32-1.15-1.98-2.88-1.32-2.88-1.98,.58-2.2,1.15-1.32,2.88-2.64h2.3l2.88-2.42v-2.64l-3.45,.22,1.73-2.86,.58-2.86,1.15-2.64-2.3-2.64-1.73-1.98v-2.42l.58-2.2-.58-2.2v-1.32l-6.91-3.74L0,307.19v-1.09l9.79-3.53,1.73-6.16-2.3-3.08-2.88-2.42s0-3.3-.57-4.62c-.58-1.32-2.88-.88-2.88-.88l-.57-1.91,2.97-5.05-1.24-3.17,4.61-1.76-.57-4.18,3.45-1.32,2.88-3.74-9.79-6.6v-2.42H1.73l.45-7.89-1.6-3.55v-4.62l4.61-2.86-.58-3.74v-4.4l-4.61,.22,1.73-1.32,4.03-2.2-5.18-2.42,4.61-2.42-2.3-.22-.58-3.74h2.88l2.88-3.08-.58-3.74h2.3v-2.2l2.88-2.86-.58-2.42,3.45-1.1,3.45-3.08v-2.2l-.58-2.2-.58-3.08-3.45,.22-.58-3.74-3.45-1.1-4.61-1.1-4.61-7.26,1.73-2.64-2.88-2.64,5.76-2.86-5.76-5.28,1.15-3.52,6.33-1.76,4.61-1.98s-2.88-3.08-3.45-7.04c-.57-3.96,6.91-11.66,6.91-11.66l-5.18-3.08,4.03-5.28-2.3-2.2-.58-5.28v-2.42l-5.18-1.54-1.73-1.98-2.88-1.32v-2.42l-1.73-.66v-3.04l1.15-1.14H0v-15.51c.62-.46,1.15-.78,1.15-.78l-.58-3.52,2.88-3.52-2.88-.88v-2.2l2.88-1.32-1.15-1.32-1.73-2.64,1.73-1.76-.58-1.32v-2.42l2.3-2.64-1.73-1.32,1.73-3.74L0,62.62v-11.85l6.91-3.02-6.91-1.76,2.3-2.86v-2.64l-2.3-.13v-5.64l2.08,1.25L.46,31.47l-.46-4.62H2.3v-2.2l2.88-2.64-3.45-2.2,2.88-1.32-3.45-1.98,3.45-.66,1.15-2.2-1.73-2.42v-3.52l1.15-1.98-1.73-2.2h2.88ZM0,176.92v5.61l.58-.55v-1.32l-.58-2.42v-1.32H0Zm1476.67,194.08l3.33-.96v.96h-3.33Z"/>
  <path class="cls-4" d="M73.74,89.86v-2.54h4.43v11.68h-2.85v-9.14h-1.58Zm12.7,1.47c.28-.42,.66-.77,1.1-1.01,.47-.26,1.02-.38,1.65-.38,.74,0,1.4,.19,2,.56s1.07,.91,1.41,1.6c.35,.69,.53,1.5,.53,2.42s-.18,1.73-.53,2.43c-.34,.69-.81,1.23-1.41,1.62-.6,.37-1.29,.57-2,.56-.62,0-1.17-.13-1.65-.38-.44-.23-.82-.57-1.1-.99v5.5h-2.74v-13.18h2.74v1.26Zm3.9,3.18c0-.68-.19-1.22-.58-1.6-.36-.39-.86-.6-1.39-.59-.53,0-1.03,.21-1.39,.59-.37,.39-.56,.93-.56,1.62s.19,1.22,.56,1.62c.36,.38,.87,.6,1.39,.59,.53,0,1.03-.21,1.39-.59,.38-.4,.58-.95,.58-1.63Zm6.96-7.36v11.84h-2.74v-11.84s2.74,0,2.74,0Zm1.44,7.36c0-.92,.17-1.72,.51-2.42,.35-.69,.83-1.23,1.42-1.6,.6-.37,1.29-.57,2-.56,.63,0,1.18,.13,1.65,.38,.48,.26,.85,.59,1.1,1.01v-1.26h2.74v8.93h-2.74v-1.26c-.27,.42-.64,.75-1.12,1.01-.47,.26-1.02,.38-1.65,.38-.7,0-1.39-.19-1.98-.56-.6-.38-1.07-.92-1.42-1.62-.34-.7-.51-1.51-.51-2.43h0Zm6.69,.02c0-.68-.19-1.22-.58-1.62-.35-.39-.85-.6-1.38-.59-.53,0-1.03,.21-1.39,.59-.37,.38-.56,.92-.56,1.6s.19,1.23,.56,1.63c.36,.38,.87,.6,1.39,.59,.52,0,1.02-.21,1.38-.59,.38-.39,.58-.93,.58-1.62Zm4.17,0c0-.93,.19-1.74,.56-2.43,.36-.67,.91-1.23,1.58-1.6,.68-.37,1.46-.56,2.34-.56,1.12,0,2.05,.29,2.8,.88,.76,.59,1.25,1.41,1.49,2.48h-2.91c-.25-.68-.72-1.02-1.42-1.02-.47-.01-.92,.21-1.2,.59-.3,.38-.45,.94-.45,1.66s.15,1.29,.45,1.68c.3,.38,.7,.58,1.2,.58,.7,0,1.18-.34,1.42-1.02h2.91c-.23,1.04-.73,1.87-1.49,2.46-.76,.6-1.69,.9-2.8,.9-.87,0-1.65-.19-2.34-.56-.67-.37-1.22-.93-1.58-1.6-.37-.69-.56-1.5-.56-2.43Zm18.65-.14c0,.26-.02,.52-.05,.8h-6.19c.04,.56,.22,.98,.53,1.28,.32,.29,.71,.43,1.17,.43,.68,0,1.16-.29,1.42-.86h2.91c-.15,.58-.43,1.13-.82,1.58-.39,.48-.89,.85-1.46,1.1-.59,.27-1.24,.4-1.97,.4-.88,0-1.65-.19-2.34-.56-.68-.37-1.23-.92-1.6-1.6-.38-.69-.58-1.5-.58-2.43s.19-1.74,.56-2.43c.37-.68,.92-1.23,1.6-1.6,.68-.37,1.47-.56,2.35-.56s1.63,.18,2.3,.54,1.19,.88,1.57,1.55c.38,.67,.58,1.46,.58,2.35h0Zm-2.8-.72c0-.47-.16-.84-.48-1.12s-.72-.42-1.2-.42-.85,.13-1.17,.4c-.31,.27-.5,.64-.58,1.14,0,0,3.42,0,3.42,0Z"/>
  <g class="cls-3">
    <g>
      <path d="M158.02,93.09h-21.04c-1.09,0-1.98,.88-1.98,1.98h0v6.65c0,1.09,.88,1.98,1.98,1.98h21.04c1.09,0,1.98-.89,1.98-1.98v-6.64c0-1.09-.89-1.98-1.98-1.98,0,0,0,0,0,0Zm-12.09,2.26l-1.4,6.24c-.09,.41-.46,.71-.89,.71h-.02c-.41,0-.76-.27-.87-.66l-1.17-4.1s-.06-.07-.11-.06c-.03,0-.05,.03-.06,.06l-1.15,4.1c-.13,.48-.63,.77-1.12,.63-.32-.09-.57-.35-.64-.68l-1.41-6.24c-.1-.38,.12-.77,.5-.88s.77,.12,.88,.5c0,0,0,.01,0,.02v.04s.94,4.1,.94,4.1c.01,.05,.06,.07,.1,.06,.03,0,.05-.03,.06-.06l1.14-4.07c.12-.43,.57-.69,1-.57,.28,.08,.49,.29,.57,.57l1.16,4.07s.06,.07,.11,.06c.03,0,.05-.03,.06-.06l.92-4.1c.09-.38,.48-.62,.87-.52,.37,.09,.61,.46,.53,.84h0Zm3.46,6.21c-.02,.41-.37,.72-.78,.7-.38-.02-.68-.32-.7-.7v-6.34c0-.41,.33-.74,.74-.74,.41,0,.74,.33,.74,.74,0,0,0,6.34,0,6.34Zm8.52-.19c0,.51-.41,.93-.93,.93h0c-.31,0-.61-.16-.78-.42l-2.82-4.33c-.04-.06-.12-.08-.19-.04-.04,.03-.06,.07-.06,.12v3.93c0,.41-.33,.74-.74,.75h0c-.41,0-.74-.33-.74-.74h0v-6.15c0-.51,.41-.93,.92-.93,.31,0,.61,.16,.78,.42l2.82,4.34c.04,.06,.12,.08,.19,.04,.04-.02,.06-.07,.06-.11v-3.95c-.02-.41,.29-.76,.71-.78,.41-.02,.76,.29,.78,.71,0,.03,0,.05,0,.08v6.14s0,0,0,0Zm-16.47-11.15h12.08v.8c0,.83-.68,1.51-1.51,1.51h-9.06c-.84,0-1.51-.68-1.51-1.51v-.8h0Zm13.85-5.83l-.8,2.44-.91,2.78h-12.08l-.96-2.78-.88-2.54c.2-.06,.39-.17,.54-.32l3.15,2.86,3.46-3.14c.41,.26,.94,.26,1.36,0l3.46,3.14,3.1-2.82c.15,.18,.35,.31,.57,.39h0Z"/>
      <path d="M147.49,83.87c.71,0,1.28-.57,1.28-1.28,0-.71-.57-1.28-1.28-1.28h0c-.71,0-1.28,.57-1.28,1.28,0,.71,.57,1.28,1.28,1.28Zm8.22,.58c.71,0,1.28-.57,1.28-1.28,0-.71-.57-1.28-1.28-1.28h0c-.71,0-1.28,.57-1.28,1.28,0,.71,.57,1.28,1.28,1.28Zm-16.41-.11c.71,0,1.28-.57,1.28-1.28s-.57-1.28-1.28-1.28-1.28,.57-1.28,1.28,.57,1.28,1.28,1.28Z"/>
    </g>
  </g>
  <path class="cls-2" d="M117,161v50"/>
  <path class="cls-4" d="M116.5,235.24c1.72,0,3.12-1.4,3.12-3.12s-1.4-3.12-3.12-3.12c-1.72,.03-3.1,1.45-3.07,3.18,.03,1.68,1.39,3.04,3.07,3.07Zm9.63,13.77c-.88-9.89-5.59-11.86-5.59-11.86,0,0-4.56-2.74-9.35,.75-3.11,2.83-3.83,7.15-4.32,11.32-.25,2.12,3.07,2.1,3.31,0,.29-2.49,.71-4.99,1.95-7.12v2.4s-.03,11.55-.03,11.55v9.16c0,.98,.72,1.79,1.74,1.79s1.84-.8,1.84-1.79v-13.1h1.62v13.14c0,2.14,3.31,2.14,3.31,0v-9.21l.14-11.57v-2.78c1.33,2.17,1.76,4.75,2.06,7.31,.25,2.1,3.56,2.12,3.32,0Zm-41.79,27.99v-1.66h3.33v11.66h-1.84v-10h-1.49Zm12.05,2.48c.31-.4,.73-.75,1.26-1.02,.53-.28,1.14-.42,1.81-.42,.77,0,1.47,.19,2.1,.58,.64,.37,1.14,.9,1.5,1.58s.54,1.47,.54,2.35-.18,1.68-.54,2.38c-.34,.67-.86,1.24-1.5,1.63-.63,.38-1.36,.58-2.1,.58-.67,0-1.27-.13-1.79-.4-.49-.25-.93-.6-1.28-1.02v5.47h-1.82v-13.01h1.82v1.3Zm5.36,3.07c0-.61-.13-1.13-.38-1.57-.22-.43-.57-.78-.99-1.01-.81-.47-1.81-.47-2.62,0-.42,.25-.76,.6-.99,1.02-.25,.45-.37,.98-.37,1.58s.12,1.14,.37,1.6c.26,.45,.59,.79,.99,1.02,.81,.47,1.81,.47,2.62,0,.42-.25,.77-.62,.99-1.06,.26-.46,.38-.99,.38-1.6Zm11.74-.18c0,.33-.02,.63-.06,.9h-6.74c.05,.7,.31,1.27,.78,1.7,.47,.43,1.04,.64,1.73,.64,.98,0,1.67-.41,2.08-1.23h1.97c-.26,.8-.77,1.5-1.46,2-.69,.51-1.56,.77-2.59,.77-.84,0-1.6-.19-2.27-.56-.66-.38-1.2-.93-1.57-1.6-.37-.69-.56-1.49-.56-2.4s.18-1.7,.54-2.38c.35-.67,.89-1.23,1.55-1.6,.67-.37,1.44-.56,2.3-.56s1.57,.18,2.22,.54c.64,.36,1.17,.89,1.52,1.54,.36,.65,.54,1.4,.54,2.26h0Zm-1.9-.58c-.01-.67-.25-1.21-.72-1.62-.47-.4-1.05-.61-1.74-.61-.63,0-1.17,.2-1.62,.61-.45,.39-.71,.93-.8,1.62h4.88Zm5.52-2.34c.25-.43,.62-.79,1.06-1.04,.45-.26,.98-.38,1.58-.38v1.89h-.46c-.71,0-1.26,.18-1.63,.54-.36,.36-.54,.99-.54,1.89v4.64h-1.82v-8.82h1.82v1.28h0Zm7.52,7.68c-.69,0-1.32-.12-1.87-.37-.54-.26-.98-.6-1.3-1.02-.31-.42-.49-.93-.51-1.46h1.89c.03,.37,.21,.69,.53,.94,.33,.24,.74,.37,1.23,.37s.91-.1,1.18-.29c.29-.2,.43-.46,.43-.77,0-.33-.16-.58-.48-.74-.31-.16-.81-.34-1.49-.53-.66-.18-1.2-.36-1.62-.53-.42-.17-.79-.44-1.09-.78-.3-.35-.45-.82-.45-1.39,0-.47,.14-.9,.42-1.28,.28-.39,.67-.7,1.18-.93,.52-.22,1.12-.34,1.79-.34,1,0,1.81,.26,2.42,.77,.62,.5,.95,1.19,.99,2.06h-1.82c-.02-.37-.19-.71-.48-.94-.29-.23-.68-.35-1.17-.35s-.85,.09-1.1,.27c-.24,.16-.39,.43-.38,.72,0,.23,.09,.43,.26,.59,.17,.16,.38,.29,.62,.38,.25,.08,.61,.2,1.09,.34,.64,.17,1.16,.35,1.57,.53,.41,.17,.78,.43,1.07,.77,.3,.34,.45,.8,.46,1.36,0,.5-.14,.95-.42,1.34-.28,.39-.67,.7-1.18,.93-.5,.22-1.09,.34-1.78,.34h0Zm9.17,0c-.83,0-1.58-.19-2.26-.56-.67-.38-1.21-.93-1.58-1.6-.38-.69-.58-1.49-.58-2.4s.2-1.69,.59-2.38c.38-.68,.94-1.23,1.62-1.6,.68-.37,1.45-.56,2.29-.56s1.61,.19,2.29,.56c.68,.37,1.24,.92,1.62,1.6,.4,.69,.59,1.49,.59,2.38s-.2,1.69-.61,2.38c-.39,.68-.97,1.24-1.66,1.62-.71,.38-1.5,.57-2.3,.56h0Zm0-1.58c.47,0,.91-.11,1.31-.34,.42-.22,.75-.56,1.01-1.01s.38-.99,.38-1.63-.12-1.18-.37-1.62c-.22-.42-.56-.77-.98-1.01-.4-.22-.85-.34-1.31-.34-.47,0-.91,.11-1.31,.34-.39,.22-.71,.56-.94,1.01-.23,.44-.35,.98-.35,1.62,0,.95,.24,1.68,.72,2.21,.49,.51,1.1,.77,1.84,.77h0Zm10.83-7.52c.69,0,1.31,.14,1.86,.43,.55,.29,.99,.71,1.3,1.28,.31,.57,.46,1.25,.46,2.05v5.2h-1.81v-4.93c0-.79-.2-1.39-.59-1.81-.39-.43-.93-.64-1.62-.64s-1.23,.21-1.63,.64c-.39,.42-.59,1.02-.59,1.81v4.93h-1.82v-8.82h1.82v1.01c.31-.37,.7-.66,1.14-.85,.47-.2,.97-.3,1.49-.3h0ZM229.87,98.31c1.01-.81,2-1.65,2.96-2.53,.58-.52,1.09-1.11,1.54-1.74,.42-.61,.62-1.2,.62-1.78,0-.44-.1-.78-.3-1.02-.2-.25-.51-.37-.91-.37s-.73,.15-.96,.46c-.22,.3-.34,.72-.34,1.28h-2.64c.02-.91,.21-1.66,.58-2.27,.37-.61,.86-1.06,1.46-1.34,.63-.29,1.32-.44,2.02-.43,1.27,0,2.22,.32,2.86,.98,.65,.65,.98,1.5,.98,2.54,0,1.14-.39,2.2-1.17,3.18-.78,.97-1.77,1.92-2.98,2.85h4.32v2.22h-8.03v-2.03h0Zm15.63-5.47c.28-.42,.66-.77,1.1-1.01,.47-.26,1.02-.38,1.65-.38,.74,0,1.4,.19,2,.56,.6,.37,1.07,.91,1.41,1.6,.35,.69,.53,1.5,.53,2.42s-.18,1.73-.53,2.43c-.34,.69-.81,1.23-1.41,1.62-.6,.37-1.29,.57-2,.56-.62,0-1.17-.13-1.65-.38-.44-.23-.82-.57-1.1-.99v5.5h-2.74v-13.18h2.74v1.26h0Zm3.9,3.18c0-.68-.19-1.22-.58-1.6-.36-.39-.86-.6-1.39-.59-.53,0-1.03,.21-1.39,.59-.37,.39-.56,.93-.56,1.62s.19,1.22,.56,1.62c.36,.38,.87,.6,1.39,.59,.53,0,1.03-.21,1.39-.59,.38-.4,.58-.95,.58-1.63Zm6.96-7.36v11.84h-2.74v-11.84s2.74,0,2.74,0Zm1.44,7.36c0-.92,.17-1.72,.51-2.42,.35-.69,.83-1.23,1.42-1.6,.6-.37,1.29-.57,2-.56,.63,0,1.18,.13,1.65,.38,.48,.26,.85,.59,1.1,1.01v-1.26h2.74v8.93h-2.74v-1.26c-.27,.42-.64,.75-1.12,1.01-.47,.26-1.02,.38-1.65,.38-.7,0-1.39-.19-1.98-.56-.6-.38-1.07-.92-1.42-1.62-.34-.7-.51-1.51-.51-2.43h0Zm6.69,.02c0-.68-.19-1.22-.58-1.62-.35-.39-.85-.6-1.38-.59-.53,0-1.03,.21-1.39,.59-.37,.38-.56,.92-.56,1.6s.19,1.23,.56,1.63c.36,.38,.87,.6,1.39,.59,.54,0,1-.2,1.38-.59,.38-.39,.58-.93,.58-1.62Zm4.17,0c0-.93,.19-1.74,.56-2.43,.36-.67,.91-1.23,1.58-1.6,.68-.37,1.46-.56,2.34-.56,1.12,0,2.05,.29,2.8,.88,.76,.59,1.25,1.41,1.49,2.48h-2.91c-.24-.68-.72-1.02-1.42-1.02-.47-.01-.92,.21-1.2,.59-.3,.38-.45,.94-.45,1.66s.15,1.29,.45,1.68c.3,.38,.7,.58,1.2,.58,.7,0,1.18-.34,1.42-1.02h2.91c-.23,1.04-.73,1.87-1.49,2.46s-1.69,.9-2.8,.9c-.88,0-1.65-.19-2.34-.56-.67-.37-1.22-.93-1.58-1.6-.37-.69-.56-1.5-.56-2.43Zm18.65-.14c0,.26-.02,.52-.05,.8h-6.19c.04,.56,.22,.98,.53,1.28,.32,.29,.71,.43,1.17,.43,.68,0,1.16-.29,1.42-.86h2.91c-.15,.58-.43,1.13-.82,1.58-.39,.48-.89,.85-1.46,1.1-.59,.27-1.24,.4-1.97,.4-.87,0-1.65-.19-2.34-.56-.68-.37-1.23-.92-1.6-1.6-.38-.69-.58-1.5-.58-2.43s.19-1.74,.56-2.43c.37-.68,.92-1.23,1.6-1.6,.68-.37,1.47-.56,2.35-.56s1.63,.18,2.3,.54,1.2,.88,1.57,1.55c.38,.67,.58,1.46,.58,2.35Zm-2.8-.72c0-.47-.16-.84-.48-1.12s-.72-.42-1.2-.42-.85,.13-1.17,.4c-.31,.27-.5,.64-.58,1.14h3.42Zm-30.01,55.33h8v8h-8v-8Z"/>
  <path class="cls-2" d="M259,158.5v50"/>
  <g class="cls-5">
    <path class="cls-4" d="M258.5,232.74c1.72,0,3.12-1.4,3.12-3.12s-1.4-3.12-3.12-3.12c-1.72,.03-3.1,1.45-3.07,3.18,.03,1.68,1.39,3.04,3.07,3.07Zm9.63,13.77c-.88-9.89-5.59-11.86-5.59-11.86,0,0-4.55-2.74-9.35,.75-3.11,2.83-3.83,7.15-4.32,11.32-.25,2.12,3.07,2.1,3.31,0,.29-2.49,.71-4.99,1.95-7.12v2.4s-.03,11.55-.03,11.55v9.16c0,.98,.72,1.79,1.74,1.79s1.84-.8,1.84-1.79v-13.1h1.62v13.14c0,2.14,3.31,2.14,3.31,0v-9.21l.14-11.57v-2.78c1.33,2.17,1.76,4.75,2.07,7.31,.25,2.1,3.56,2.12,3.32,0h0Z"/>
  </g>
  <path class="cls-4" d="M226.35,274.5v-1.66h3.33v11.66h-1.84v-10h-1.49Zm12.05,2.48c.31-.4,.73-.75,1.26-1.02s1.14-.42,1.81-.42c.77,0,1.47,.19,2.1,.58,.64,.37,1.14,.9,1.5,1.58s.54,1.47,.54,2.35-.18,1.68-.54,2.38c-.34,.67-.86,1.24-1.5,1.63-.63,.38-1.36,.58-2.1,.58-.67,0-1.27-.13-1.79-.4-.49-.25-.93-.6-1.28-1.02v5.47h-1.82v-13.01h1.82v1.3Zm5.36,3.07c0-.61-.13-1.13-.38-1.57-.22-.43-.57-.78-.99-1.01-.81-.47-1.81-.47-2.62,0-.42,.25-.76,.6-.99,1.02-.24,.45-.37,.98-.37,1.58s.12,1.14,.37,1.6c.23,.42,.58,.78,.99,1.02,.81,.47,1.81,.47,2.62,0,.42-.25,.77-.62,.99-1.06,.26-.46,.38-.99,.38-1.6Zm11.74-.18c0,.33-.02,.63-.06,.9h-6.74c.05,.7,.31,1.27,.78,1.7,.47,.43,1.04,.64,1.73,.64,.98,0,1.67-.41,2.08-1.23h1.97c-.26,.8-.77,1.5-1.46,2-.69,.51-1.56,.77-2.59,.77-.84,0-1.6-.19-2.27-.56-.66-.38-1.2-.93-1.57-1.6-.37-.69-.56-1.49-.56-2.4s.18-1.7,.54-2.38c.35-.67,.89-1.23,1.55-1.6,.67-.37,1.44-.56,2.3-.56s1.57,.18,2.22,.54c.64,.36,1.17,.89,1.52,1.54,.36,.65,.54,1.4,.54,2.26h0Zm-1.9-.58c-.01-.67-.25-1.21-.72-1.62-.47-.4-1.05-.61-1.74-.61-.63,0-1.17,.2-1.62,.61-.45,.39-.71,.93-.8,1.62h4.88Zm5.52-2.34c.25-.43,.62-.79,1.06-1.04,.45-.26,.98-.38,1.58-.38v1.89h-.46c-.71,0-1.26,.18-1.63,.54-.36,.36-.54,.99-.54,1.89v4.64h-1.82v-8.82h1.82v1.28h0Zm7.52,7.68c-.69,0-1.32-.12-1.87-.37-.54-.26-.98-.6-1.3-1.02-.31-.42-.49-.93-.51-1.46h1.89c.03,.37,.21,.69,.53,.94,.33,.24,.74,.37,1.23,.37s.91-.1,1.18-.29c.29-.2,.43-.46,.43-.77,0-.33-.16-.58-.48-.74-.31-.16-.8-.34-1.49-.53-.66-.18-1.2-.36-1.62-.53-.42-.17-.79-.44-1.09-.78-.3-.35-.45-.82-.45-1.39,0-.47,.14-.9,.42-1.28,.28-.39,.67-.7,1.18-.93,.52-.22,1.12-.34,1.79-.34,1,0,1.81,.26,2.42,.77,.62,.5,.95,1.19,.99,2.06h-1.82c-.02-.37-.19-.71-.48-.94-.29-.23-.68-.35-1.17-.35s-.85,.09-1.1,.27c-.24,.16-.39,.43-.38,.72,0,.23,.09,.43,.26,.59,.17,.16,.38,.29,.62,.38,.25,.08,.61,.2,1.09,.34,.64,.17,1.16,.35,1.57,.53,.41,.17,.78,.43,1.07,.77,.3,.34,.45,.8,.46,1.36,0,.5-.14,.95-.42,1.34-.28,.39-.67,.7-1.18,.93-.5,.22-1.09,.34-1.78,.34h0Zm9.17,0c-.83,0-1.58-.19-2.26-.56-.67-.38-1.21-.93-1.58-1.6-.38-.69-.58-1.49-.58-2.4s.2-1.69,.59-2.38c.38-.68,.94-1.23,1.62-1.6,.68-.37,1.45-.56,2.29-.56s1.61,.19,2.29,.56c.68,.37,1.24,.92,1.62,1.6,.39,.69,.59,1.49,.59,2.38s-.2,1.69-.61,2.38c-.39,.68-.97,1.24-1.66,1.62-.71,.38-1.5,.57-2.3,.56Zm0-1.58c.47,0,.91-.11,1.31-.34,.42-.22,.75-.56,1.01-1.01,.26-.45,.38-.99,.38-1.63s-.12-1.18-.37-1.62c-.22-.42-.56-.77-.98-1.01-.4-.22-.85-.34-1.31-.34-.47,0-.91,.11-1.31,.34-.39,.22-.71,.56-.94,1.01-.23,.44-.35,.98-.35,1.62,0,.95,.24,1.68,.72,2.21,.49,.51,1.1,.77,1.84,.77h0Zm10.83-7.52c.69,0,1.31,.14,1.86,.43,.55,.29,.99,.71,1.3,1.28,.31,.57,.46,1.25,.46,2.05v5.2h-1.81v-4.93c0-.79-.2-1.39-.59-1.81-.39-.43-.93-.64-1.62-.64s-1.23,.21-1.63,.64c-.39,.42-.59,1.02-.59,1.81v4.93h-1.82v-8.82h1.82v1.01c.31-.37,.7-.66,1.14-.85,.47-.2,.97-.3,1.49-.3h0Zm79.65-183.42c.04-1.14,.42-2.02,1.12-2.64s1.66-.93,2.86-.93c.8,0,1.48,.14,2.05,.42,.58,.28,1.01,.66,1.3,1.14,.3,.48,.45,1.02,.45,1.62,0,.7-.18,1.28-.53,1.73-.35,.44-.76,.74-1.23,.9v.06c.61,.2,1.09,.54,1.44,1.01,.35,.47,.53,1.07,.53,1.81,0,.66-.15,1.25-.46,1.76-.3,.5-.74,.9-1.33,1.18-.58,.29-1.26,.43-2.06,.43-1.28,0-2.3-.32-3.07-.94-.76-.63-1.16-1.58-1.2-2.85h2.66c.01,.47,.14,.84,.4,1.12,.26,.27,.63,.4,1.12,.4,.42,0,.74-.12,.96-.35,.23-.25,.35-.57,.35-.96,0-.51-.17-.88-.5-1.1-.32-.24-.84-.35-1.55-.35h-.51v-2.22h.51c.54,0,.98-.09,1.31-.27,.34-.19,.51-.53,.51-1.01,0-.38-.11-.68-.32-.9-.21-.21-.51-.32-.88-.32-.41,0-.71,.12-.91,.37-.19,.25-.3,.55-.34,.91,0,0-2.67,0-2.67,0Zm15.99,.72c.28-.42,.66-.77,1.1-1.01,.47-.26,1.02-.38,1.65-.38,.74,0,1.4,.19,2,.56s1.07,.91,1.41,1.6c.35,.69,.53,1.5,.53,2.42s-.18,1.73-.53,2.43c-.34,.69-.81,1.23-1.41,1.62-.6,.37-1.29,.57-2,.56-.62,0-1.17-.13-1.65-.38-.44-.23-.82-.57-1.1-.99v5.5h-2.74v-13.18h2.74v1.26Zm3.9,3.18c0-.68-.19-1.22-.58-1.6-.36-.39-.86-.6-1.39-.59-.53,0-1.03,.21-1.39,.59-.37,.39-.56,.93-.56,1.62s.19,1.22,.56,1.62c.36,.38,.87,.6,1.39,.59,.53,0,1.03-.21,1.39-.59,.38-.4,.58-.95,.58-1.63Zm6.95-7.36v11.84h-2.74v-11.84s2.74,0,2.74,0Zm1.44,7.36c0-.92,.17-1.72,.51-2.42,.35-.69,.83-1.23,1.42-1.6,.6-.37,1.29-.57,2-.56,.63,0,1.18,.13,1.65,.38,.48,.26,.85,.59,1.1,1.01v-1.26h2.74v8.93h-2.74v-1.26c-.27,.42-.64,.75-1.12,1.01-.47,.26-1.02,.38-1.65,.38-.7,0-1.39-.19-1.98-.56-.6-.38-1.07-.92-1.42-1.62-.34-.7-.51-1.51-.51-2.43h0Zm6.69,.02c0-.68-.19-1.22-.58-1.62-.35-.39-.85-.6-1.38-.59-.53,0-1.03,.21-1.39,.59-.37,.38-.56,.92-.56,1.6s.19,1.23,.56,1.63c.36,.38,.87,.6,1.39,.59,.52,0,1.02-.21,1.38-.59,.38-.39,.58-.93,.58-1.62Zm4.17,0c0-.93,.19-1.74,.56-2.43,.36-.67,.91-1.23,1.58-1.6,.68-.37,1.46-.56,2.34-.56,1.12,0,2.05,.29,2.8,.88,.76,.59,1.25,1.41,1.49,2.48h-2.91c-.24-.68-.72-1.02-1.42-1.02-.47-.01-.92,.21-1.2,.59-.3,.38-.45,.94-.45,1.66s.15,1.29,.45,1.68c.3,.38,.7,.58,1.2,.58,.7,0,1.18-.34,1.42-1.02h2.91c-.23,1.04-.73,1.87-1.49,2.46-.76,.6-1.69,.9-2.8,.9-.87,0-1.65-.19-2.34-.56-.67-.37-1.22-.93-1.58-1.6-.37-.69-.56-1.5-.56-2.43Zm18.65-.14c0,.26-.02,.52-.05,.8h-6.19c.04,.56,.22,.98,.53,1.28,.32,.29,.71,.43,1.17,.43,.68,0,1.16-.29,1.42-.86h2.91c-.15,.58-.43,1.13-.82,1.58-.39,.48-.89,.85-1.46,1.1-.59,.27-1.24,.4-1.97,.4-.88,0-1.65-.19-2.34-.56-.68-.37-1.23-.92-1.6-1.6-.38-.69-.58-1.5-.58-2.43s.19-1.74,.56-2.43c.37-.68,.92-1.23,1.6-1.6,.68-.37,1.47-.56,2.35-.56s1.63,.18,2.3,.54,1.2,.88,1.57,1.55c.38,.67,.58,1.46,.58,2.35Zm-2.8-.72c0-.47-.16-.84-.48-1.12s-.72-.42-1.2-.42-.85,.13-1.17,.4c-.31,.27-.5,.64-.58,1.14h3.42Zm-30.28,55.33h8v8h-8v-8Z"/>
  <path class="cls-2" d="M395.5,158.5v50"/>
  <g class="cls-8">
    <path class="cls-4" d="M395,232.74c1.72,0,3.12-1.4,3.12-3.12s-1.4-3.12-3.12-3.12c-1.72,.03-3.1,1.45-3.07,3.18,.03,1.68,1.39,3.04,3.07,3.07Zm9.63,13.77c-.88-9.89-5.59-11.86-5.59-11.86,0,0-4.55-2.74-9.35,.75-3.11,2.83-3.83,7.15-4.32,11.32-.25,2.12,3.07,2.1,3.31,0,.29-2.49,.71-4.99,1.95-7.12v2.4s-.03,11.55-.03,11.55v9.16c0,.98,.72,1.79,1.74,1.79s1.84-.8,1.84-1.79v-13.1h1.62v13.14c0,2.14,3.31,2.14,3.31,0v-9.21l.14-11.57v-2.78c1.33,2.17,1.76,4.75,2.07,7.31,.25,2.1,3.56,2.12,3.32,0h0Z"/>
  </g>
  <path class="cls-4" d="M362.85,274.5v-1.66h3.33v11.66h-1.84v-10h-1.49Zm12.05,2.48c.31-.4,.73-.75,1.26-1.02s1.14-.42,1.81-.42c.77,0,1.47,.19,2.1,.58,.64,.37,1.14,.9,1.5,1.58s.54,1.47,.54,2.35-.18,1.68-.54,2.38c-.34,.67-.86,1.24-1.5,1.63-.63,.38-1.36,.58-2.1,.58-.67,0-1.27-.13-1.79-.4-.49-.25-.93-.6-1.28-1.02v5.47h-1.82v-13.01h1.82v1.3h0Zm5.36,3.07c0-.61-.13-1.13-.38-1.57-.22-.43-.57-.78-.99-1.01-.81-.47-1.81-.47-2.62,0-.42,.25-.76,.6-.99,1.02-.24,.45-.37,.98-.37,1.58s.12,1.14,.37,1.6c.23,.42,.58,.78,.99,1.02,.81,.47,1.81,.47,2.62,0,.42-.25,.77-.62,.99-1.06,.26-.46,.38-.99,.38-1.6Zm11.74-.18c0,.33-.02,.63-.06,.9h-6.74c.05,.7,.31,1.27,.78,1.7,.47,.43,1.05,.64,1.73,.64,.98,0,1.67-.41,2.08-1.23h1.97c-.26,.8-.77,1.5-1.46,2-.69,.51-1.56,.77-2.59,.77-.84,0-1.6-.19-2.27-.56-.66-.38-1.2-.93-1.57-1.6-.37-.69-.56-1.49-.56-2.4s.18-1.7,.54-2.38c.35-.67,.89-1.23,1.55-1.6,.67-.37,1.44-.56,2.3-.56s1.57,.18,2.22,.54c.64,.36,1.17,.89,1.52,1.54,.36,.65,.54,1.4,.54,2.26h0Zm-1.9-.58c-.01-.67-.25-1.21-.72-1.62-.47-.4-1.05-.61-1.74-.61-.63,0-1.17,.2-1.62,.61-.45,.39-.71,.93-.8,1.62h4.88Zm5.52-2.34c.25-.43,.62-.79,1.06-1.04,.45-.26,.98-.38,1.58-.38v1.89h-.46c-.71,0-1.26,.18-1.63,.54-.36,.36-.54,.99-.54,1.89v4.64h-1.82v-8.82h1.82v1.28h0Zm7.52,7.68c-.69,0-1.32-.12-1.87-.37-.54-.26-.98-.6-1.3-1.02-.31-.42-.49-.93-.51-1.46h1.89c.03,.37,.21,.69,.53,.94,.33,.24,.74,.37,1.23,.37s.91-.1,1.18-.29c.29-.2,.43-.46,.43-.77,0-.33-.16-.58-.48-.74-.31-.16-.8-.34-1.49-.53-.66-.18-1.2-.36-1.62-.53-.42-.17-.79-.44-1.09-.78-.3-.35-.45-.82-.45-1.39,0-.47,.14-.9,.42-1.28,.28-.39,.67-.7,1.18-.93,.52-.22,1.12-.34,1.79-.34,1,0,1.81,.26,2.42,.77,.62,.5,.95,1.19,.99,2.06h-1.82c-.02-.37-.19-.71-.48-.94-.29-.23-.68-.35-1.17-.35s-.85,.09-1.1,.27c-.24,.16-.39,.43-.38,.72,0,.23,.09,.43,.26,.59,.17,.16,.38,.29,.62,.38,.25,.08,.61,.2,1.09,.34,.64,.17,1.16,.35,1.57,.53,.41,.17,.78,.43,1.07,.77,.3,.34,.45,.8,.46,1.36,0,.5-.14,.95-.42,1.34-.28,.39-.67,.7-1.18,.93-.5,.22-1.09,.34-1.78,.34h0Zm9.17,0c-.83,0-1.58-.19-2.26-.56-.67-.38-1.21-.93-1.58-1.6-.38-.69-.58-1.49-.58-2.4s.2-1.69,.59-2.38c.38-.68,.94-1.23,1.62-1.6,.68-.37,1.45-.56,2.29-.56s1.61,.19,2.29,.56c.68,.37,1.24,.92,1.62,1.6,.39,.69,.59,1.49,.59,2.38s-.2,1.69-.61,2.38c-.39,.68-.97,1.24-1.66,1.62-.71,.38-1.5,.57-2.3,.56Zm0-1.58c.47,0,.91-.11,1.31-.34,.42-.22,.75-.56,1.01-1.01,.26-.45,.38-.99,.38-1.63s-.12-1.18-.37-1.62c-.22-.42-.56-.77-.98-1.01-.4-.22-.85-.34-1.31-.34-.47,0-.91,.11-1.31,.34-.39,.22-.71,.56-.94,1.01-.23,.44-.35,.98-.35,1.62,0,.95,.24,1.68,.72,2.21,.49,.51,1.1,.77,1.84,.77h0Zm10.83-7.52c.69,0,1.31,.14,1.86,.43,.55,.29,.99,.71,1.3,1.28,.31,.57,.46,1.25,.46,2.05v5.2h-1.81v-4.93c0-.79-.2-1.39-.59-1.81-.39-.43-.93-.64-1.62-.64s-1.23,.21-1.63,.64c-.39,.42-.59,1.02-.59,1.81v4.93h-1.82v-8.82h1.82v1.01c.31-.37,.7-.66,1.14-.85,.47-.2,.97-.3,1.49-.3h0Zm76.05-177.12v-2.21l5.06-7.23h3.06v7.07h1.31v2.37h-1.31v2.08h-2.74v-2.08h-5.38Zm5.57-6.43l-2.69,4.06h2.69v-4.06Zm11.59,.85c.28-.42,.66-.77,1.1-1.01,.47-.26,1.02-.38,1.65-.38,.74,0,1.4,.19,2,.56,.6,.37,1.07,.91,1.41,1.6,.35,.69,.53,1.5,.53,2.42s-.18,1.73-.53,2.43c-.34,.69-.81,1.23-1.41,1.62-.6,.37-1.29,.57-2,.56-.62,0-1.17-.13-1.65-.38-.44-.23-.82-.57-1.1-.99v5.5h-2.74v-13.18h2.74v1.26Zm3.9,3.18c0-.68-.19-1.22-.58-1.6-.36-.39-.86-.6-1.39-.59-.53,0-1.03,.21-1.39,.59-.37,.39-.56,.93-.56,1.62s.19,1.22,.56,1.62c.36,.38,.87,.6,1.39,.59,.53,0,1.03-.21,1.39-.59,.38-.4,.58-.95,.58-1.63Zm6.96-7.36v11.84h-2.74v-11.84s2.74,0,2.74,0Zm1.44,7.36c0-.92,.17-1.72,.51-2.42,.35-.69,.83-1.23,1.42-1.6,.6-.37,1.29-.57,2-.56,.63,0,1.18,.13,1.65,.38,.48,.26,.85,.59,1.1,1.01v-1.26h2.74v8.93h-2.74v-1.26c-.27,.42-.64,.75-1.12,1.01-.47,.26-1.02,.38-1.65,.38-.7,0-1.39-.19-1.98-.56-.6-.38-1.07-.92-1.42-1.62-.34-.7-.51-1.51-.51-2.43h0Zm6.69,.02c0-.68-.19-1.22-.58-1.62-.35-.39-.85-.6-1.38-.59-.53,0-1.03,.21-1.39,.59-.37,.38-.56,.92-.56,1.6s.19,1.23,.56,1.63c.36,.38,.87,.6,1.39,.59,.52,0,1.02-.21,1.38-.59,.38-.39,.58-.93,.58-1.62Zm4.17,0c0-.93,.19-1.74,.56-2.43,.36-.67,.91-1.23,1.58-1.6,.68-.37,1.46-.56,2.34-.56,1.12,0,2.05,.29,2.8,.88,.76,.59,1.25,1.41,1.49,2.48h-2.91c-.25-.68-.72-1.02-1.42-1.02-.5,0-.9,.2-1.2,.59-.3,.38-.45,.94-.45,1.66s.15,1.29,.45,1.68c.3,.38,.7,.58,1.2,.58,.7,0,1.18-.34,1.42-1.02h2.91c-.23,1.04-.73,1.87-1.49,2.46-.76,.6-1.69,.9-2.8,.9-.88,0-1.65-.19-2.34-.56-.67-.37-1.22-.93-1.58-1.6-.37-.69-.56-1.5-.56-2.43Zm18.65-.14c0,.26-.02,.52-.05,.8h-6.19c.04,.56,.22,.98,.53,1.28,.32,.29,.71,.43,1.17,.43,.68,0,1.16-.29,1.42-.86h2.91c-.15,.58-.43,1.13-.82,1.58-.39,.48-.89,.85-1.46,1.1-.59,.27-1.24,.4-1.97,.4-.87,0-1.65-.19-2.34-.56-.68-.37-1.23-.92-1.6-1.6-.38-.69-.58-1.5-.58-2.43s.19-1.74,.56-2.43c.37-.68,.92-1.23,1.6-1.6,.68-.37,1.47-.56,2.35-.56s1.63,.18,2.3,.54,1.2,.88,1.57,1.55c.38,.67,.58,1.46,.58,2.35h0Zm-2.8-.72c0-.47-.16-.84-.48-1.12s-.72-.42-1.2-.42-.85,.13-1.17,.4c-.31,.27-.5,.64-.58,1.14h3.42Zm-30.85,55.33h8v8h-8v-8Z"/>
  <path class="cls-2" d="M529,158.5v50"/>
  <g class="cls-7">
    <path class="cls-4" d="M528.5,232.74c1.72,0,3.12-1.4,3.12-3.12s-1.4-3.12-3.12-3.12c-1.72,.03-3.1,1.45-3.07,3.18,.03,1.68,1.39,3.04,3.07,3.07Zm9.63,13.77c-.88-9.89-5.59-11.86-5.59-11.86,0,0-4.55-2.74-9.35,.75-3.11,2.83-3.83,7.15-4.32,11.32-.25,2.12,3.07,2.1,3.31,0,.29-2.49,.71-4.99,1.95-7.12v2.4s-.03,11.55-.03,11.55v9.16c0,.98,.72,1.79,1.74,1.79s1.84-.8,1.84-1.79v-13.1h1.62v13.14c0,2.14,3.31,2.14,3.31,0v-9.21l.14-11.57v-2.78c1.33,2.17,1.76,4.75,2.07,7.31,.25,2.1,3.56,2.12,3.32,0h0Z"/>
  </g>
  <path class="cls-4" d="M496.35,274.5v-1.66h3.33v11.66h-1.84v-10h-1.49Zm12.05,2.48c.31-.4,.73-.75,1.26-1.02s1.14-.42,1.81-.42c.77,0,1.47,.19,2.1,.58,.64,.37,1.14,.9,1.5,1.58s.54,1.47,.54,2.35-.18,1.68-.54,2.38c-.34,.67-.86,1.24-1.5,1.63-.63,.38-1.36,.58-2.1,.58-.67,0-1.27-.13-1.79-.4-.49-.25-.93-.6-1.28-1.02v5.47h-1.82v-13.01h1.82v1.3h0Zm5.36,3.07c0-.61-.13-1.13-.38-1.57-.22-.43-.57-.78-.99-1.01-.81-.47-1.81-.47-2.62,0-.42,.25-.76,.6-.99,1.02-.24,.45-.37,.98-.37,1.58s.12,1.14,.37,1.6c.23,.42,.58,.78,.99,1.02,.81,.47,1.81,.47,2.62,0,.42-.25,.77-.62,.99-1.06,.26-.46,.38-.99,.38-1.6Zm11.74-.18c0,.33-.02,.63-.06,.9h-6.74c.05,.7,.31,1.27,.78,1.7,.47,.43,1.04,.64,1.73,.64,.98,0,1.67-.41,2.08-1.23h1.97c-.26,.8-.77,1.5-1.46,2-.69,.51-1.56,.77-2.59,.77-.84,0-1.6-.19-2.27-.56-.66-.38-1.2-.93-1.57-1.6-.37-.69-.56-1.49-.56-2.4s.18-1.7,.54-2.38c.35-.67,.89-1.23,1.55-1.6,.67-.37,1.44-.56,2.3-.56s1.57,.18,2.22,.54c.64,.36,1.17,.89,1.52,1.54,.36,.65,.54,1.4,.54,2.26h0Zm-1.9-.58c-.01-.67-.25-1.21-.72-1.62-.47-.4-1.05-.61-1.74-.61-.63,0-1.17,.2-1.62,.61-.45,.39-.72,.93-.8,1.62h4.88Zm5.52-2.34c.25-.43,.62-.79,1.06-1.04,.45-.26,.98-.38,1.58-.38v1.89h-.46c-.72,0-1.26,.18-1.63,.54-.36,.36-.54,.99-.54,1.89v4.64h-1.82v-8.82h1.82v1.28Zm7.52,7.68c-.69,0-1.32-.12-1.87-.37-.54-.26-.98-.6-1.3-1.02-.31-.42-.49-.93-.51-1.46h1.89c.03,.37,.21,.69,.53,.94,.33,.24,.74,.37,1.23,.37s.91-.1,1.18-.29c.29-.2,.43-.46,.43-.77,0-.33-.16-.58-.48-.74-.31-.16-.8-.34-1.49-.53-.66-.18-1.2-.36-1.62-.53-.42-.17-.79-.44-1.09-.78-.3-.35-.45-.82-.45-1.39,0-.47,.14-.9,.42-1.28,.28-.39,.67-.7,1.18-.93,.52-.22,1.12-.34,1.79-.34,1,0,1.81,.26,2.42,.77,.62,.5,.95,1.19,.99,2.06h-1.82c-.02-.37-.19-.71-.48-.94-.29-.23-.68-.35-1.17-.35s-.85,.09-1.1,.27c-.24,.16-.39,.43-.38,.72,0,.23,.09,.43,.26,.59,.17,.16,.38,.29,.62,.38,.25,.08,.61,.2,1.09,.34,.64,.17,1.16,.35,1.57,.53,.41,.17,.78,.43,1.07,.77,.3,.34,.45,.8,.46,1.36,0,.5-.14,.95-.42,1.34-.28,.39-.67,.7-1.18,.93-.5,.22-1.09,.34-1.78,.34h0Zm9.17,0c-.83,0-1.58-.19-2.26-.56-.67-.38-1.21-.93-1.58-1.6-.38-.69-.58-1.49-.58-2.4s.2-1.69,.59-2.38c.38-.68,.94-1.23,1.62-1.6,.68-.37,1.45-.56,2.29-.56s1.61,.19,2.29,.56c.68,.37,1.24,.92,1.62,1.6,.4,.69,.59,1.49,.59,2.38s-.2,1.69-.61,2.38c-.39,.68-.97,1.24-1.66,1.62-.71,.38-1.5,.57-2.3,.56h0Zm0-1.58c.47,0,.91-.11,1.31-.34,.42-.22,.75-.56,1.01-1.01s.38-.99,.38-1.63-.12-1.18-.37-1.62c-.22-.42-.56-.77-.98-1.01-.4-.22-.85-.34-1.31-.34-.47,0-.91,.11-1.31,.34-.39,.22-.71,.56-.94,1.01-.23,.44-.35,.98-.35,1.62,0,.95,.24,1.68,.72,2.21,.49,.51,1.1,.77,1.84,.77h0Zm10.83-7.52c.69,0,1.31,.14,1.86,.43,.55,.29,.99,.71,1.3,1.28,.31,.57,.46,1.25,.46,2.05v5.2h-1.81v-4.93c0-.79-.2-1.39-.59-1.81-.39-.43-.93-.64-1.62-.64s-1.23,.21-1.63,.64c-.39,.42-.59,1.02-.59,1.81v4.93h-1.82v-8.82h1.82v1.01c.31-.37,.7-.66,1.14-.85,.47-.2,.97-.3,1.49-.3h0Zm81.92-184.34h-4.99v2.21c.21-.24,.51-.43,.9-.58,.38-.15,.8-.22,1.25-.22,.8,0,1.46,.18,1.98,.54,.53,.36,.92,.83,1.17,1.41,.25,.58,.37,1.2,.37,1.87,0,1.25-.35,2.24-1.06,2.98-.7,.72-1.7,1.09-2.98,1.09-.85,0-1.59-.14-2.22-.43-.63-.3-1.11-.71-1.46-1.23-.34-.52-.53-1.12-.56-1.81h2.67c.06,.33,.22,.61,.46,.83,.25,.21,.58,.32,1.01,.32,.5,0,.88-.16,1.12-.48,.25-.32,.37-.75,.37-1.28s-.13-.92-.38-1.2-.63-.42-1.12-.42c-.36,0-.66,.09-.9,.27-.23,.17-.4,.41-.46,.69h-2.64v-6.96h7.47v2.4h0Zm8.58,1.63c.28-.42,.66-.77,1.1-1.01,.47-.26,1.02-.38,1.65-.38,.74,0,1.4,.19,2,.56,.6,.37,1.07,.91,1.41,1.6,.35,.69,.53,1.5,.53,2.42s-.18,1.73-.53,2.43c-.34,.69-.81,1.23-1.41,1.62-.6,.37-1.29,.57-2,.56-.62,0-1.17-.13-1.65-.38-.44-.23-.82-.57-1.1-.99v5.5h-2.74v-13.18h2.74v1.26Zm3.9,3.18c0-.68-.19-1.22-.58-1.6-.36-.39-.86-.6-1.39-.59-.53,0-1.03,.21-1.39,.59-.37,.39-.56,.93-.56,1.62s.19,1.22,.56,1.62c.36,.38,.87,.6,1.39,.59,.53,0,1.03-.21,1.39-.59,.38-.4,.58-.95,.58-1.63Zm6.96-7.36v11.84h-2.74v-11.84s2.74,0,2.74,0Zm1.44,7.36c0-.92,.17-1.72,.51-2.42,.35-.69,.83-1.23,1.42-1.6,.6-.37,1.29-.57,2-.56,.63,0,1.18,.13,1.65,.38,.48,.26,.85,.59,1.1,1.01v-1.26h2.74v8.93h-2.74v-1.26c-.27,.42-.64,.75-1.12,1.01-.47,.26-1.02,.38-1.65,.38-.7,0-1.39-.19-1.98-.56-.6-.38-1.07-.92-1.42-1.62-.34-.7-.51-1.51-.51-2.43h0Zm6.69,.02c0-.68-.19-1.22-.58-1.62-.35-.39-.85-.6-1.38-.59-.53,0-1.03,.21-1.39,.59-.37,.38-.56,.92-.56,1.6s.19,1.23,.56,1.63c.36,.38,.87,.6,1.39,.59,.52,0,1.02-.21,1.38-.59,.38-.39,.58-.93,.58-1.62Zm4.17,0c0-.93,.19-1.74,.56-2.43,.36-.67,.91-1.23,1.58-1.6,.68-.37,1.46-.56,2.34-.56,1.12,0,2.05,.29,2.8,.88,.76,.59,1.25,1.41,1.49,2.48h-2.91c-.25-.68-.72-1.02-1.42-1.02-.5,0-.9,.2-1.2,.59-.3,.38-.45,.94-.45,1.66s.15,1.29,.45,1.68c.3,.38,.7,.58,1.2,.58,.7,0,1.18-.34,1.42-1.02h2.91c-.23,1.04-.73,1.87-1.49,2.46-.76,.6-1.69,.9-2.8,.9-.88,0-1.65-.19-2.34-.56-.67-.37-1.22-.93-1.58-1.6-.37-.69-.56-1.5-.56-2.43Zm18.65-.14c0,.26-.02,.52-.05,.8h-6.19c.04,.56,.22,.98,.53,1.28,.32,.29,.71,.43,1.17,.43,.68,0,1.16-.29,1.42-.86h2.91c-.15,.58-.43,1.13-.82,1.58-.39,.48-.89,.85-1.46,1.1-.59,.27-1.24,.4-1.97,.4-.87,0-1.65-.19-2.34-.56-.68-.37-1.23-.92-1.6-1.6-.38-.69-.58-1.5-.58-2.43s.19-1.74,.56-2.43c.37-.68,.92-1.23,1.6-1.6,.68-.37,1.47-.56,2.35-.56s1.63,.18,2.3,.54,1.2,.88,1.57,1.55c.38,.67,.58,1.46,.58,2.35h0Zm-2.8-.72c0-.47-.16-.84-.48-1.12s-.72-.42-1.2-.42-.85,.13-1.17,.4c-.31,.27-.5,.64-.58,1.14h3.42Zm-30.64,55.33h8v8h-8v-8Z"/>
  <path class="cls-2" d="M660,158.5v50"/>
  <g class="cls-6">
    <path class="cls-4" d="M659.5,232.74c1.72,0,3.12-1.4,3.12-3.12s-1.4-3.12-3.12-3.12h0c-1.72,.03-3.1,1.45-3.07,3.18,.03,1.68,1.39,3.04,3.07,3.07Zm9.63,13.77c-.88-9.89-5.59-11.86-5.59-11.86,0,0-4.55-2.74-9.35,.75-3.11,2.83-3.83,7.15-4.32,11.32-.25,2.12,3.07,2.1,3.31,0,.29-2.49,.71-4.99,1.95-7.12v2.4s-.03,11.55-.03,11.55v9.16c0,.98,.72,1.79,1.74,1.79s1.84-.8,1.84-1.79v-13.1h1.62v13.14c0,2.14,3.31,2.14,3.31,0v-9.21l.14-11.57v-2.78c1.33,2.17,1.76,4.75,2.07,7.31,.25,2.1,3.56,2.12,3.32,0h0Z"/>
  </g>
  <path class="cls-4" d="M627.34,274.5v-1.66h3.33v11.66h-1.84v-10h-1.49Zm12.05,2.48c.31-.4,.73-.75,1.26-1.02s1.14-.42,1.81-.42c.77,0,1.47,.19,2.1,.58,.64,.37,1.14,.9,1.5,1.58s.54,1.47,.54,2.35-.18,1.68-.54,2.38c-.34,.67-.86,1.24-1.5,1.63-.63,.38-1.36,.58-2.1,.58-.67,0-1.27-.13-1.79-.4-.49-.25-.93-.6-1.28-1.02v5.47h-1.82v-13.01h1.82v1.3h0Zm5.36,3.07c0-.61-.13-1.13-.38-1.57-.22-.43-.57-.78-.99-1.01-.81-.47-1.81-.47-2.62,0-.42,.25-.76,.6-.99,1.02-.24,.45-.37,.98-.37,1.58s.12,1.14,.37,1.6c.23,.42,.58,.78,.99,1.02,.81,.47,1.81,.47,2.62,0,.42-.25,.77-.62,.99-1.06,.26-.46,.38-.99,.38-1.6Zm11.74-.18c0,.33-.02,.63-.06,.9h-6.74c.05,.7,.31,1.27,.78,1.7,.47,.43,1.04,.64,1.73,.64,.98,0,1.67-.41,2.08-1.23h1.97c-.26,.8-.77,1.5-1.46,2-.69,.51-1.56,.77-2.59,.77-.84,0-1.6-.19-2.27-.56-.66-.38-1.2-.93-1.57-1.6-.37-.69-.56-1.49-.56-2.4s.18-1.7,.54-2.38c.35-.67,.89-1.23,1.55-1.6,.67-.37,1.44-.56,2.3-.56s1.57,.18,2.22,.54c.64,.36,1.17,.89,1.52,1.54,.36,.65,.54,1.4,.54,2.26h0Zm-1.9-.58c-.01-.67-.25-1.21-.72-1.62-.47-.4-1.05-.61-1.74-.61-.63,0-1.17,.2-1.62,.61-.45,.39-.72,.93-.8,1.62h4.88Zm5.52-2.34c.25-.43,.62-.79,1.06-1.04,.45-.26,.98-.38,1.58-.38v1.89h-.46c-.72,0-1.26,.18-1.63,.54-.36,.36-.54,.99-.54,1.89v4.64h-1.82v-8.82h1.82v1.28Zm7.52,7.68c-.69,0-1.32-.12-1.87-.37-.54-.26-.98-.6-1.3-1.02-.31-.42-.49-.93-.51-1.46h1.89c.03,.37,.21,.69,.53,.94,.33,.24,.74,.37,1.23,.37s.91-.1,1.18-.29c.29-.2,.43-.46,.43-.77,0-.33-.16-.58-.48-.74-.31-.16-.8-.34-1.49-.53-.66-.18-1.2-.36-1.62-.53-.42-.17-.79-.44-1.09-.78-.3-.35-.45-.82-.45-1.39,0-.47,.14-.9,.42-1.28,.28-.39,.67-.7,1.18-.93,.52-.22,1.12-.34,1.79-.34,1,0,1.81,.26,2.42,.77,.62,.5,.95,1.19,.99,2.06h-1.82c-.02-.37-.19-.71-.48-.94-.29-.23-.68-.35-1.17-.35s-.85,.09-1.1,.27c-.24,.16-.39,.43-.38,.72,0,.23,.09,.43,.26,.59,.17,.16,.38,.29,.62,.38,.25,.08,.61,.2,1.09,.34,.64,.17,1.16,.35,1.57,.53,.41,.17,.78,.43,1.07,.77,.3,.34,.45,.8,.46,1.36,0,.5-.14,.95-.42,1.34-.28,.39-.67,.7-1.18,.93-.5,.22-1.09,.34-1.78,.34h0Zm9.17,0c-.83,0-1.58-.19-2.26-.56-.67-.38-1.21-.93-1.58-1.6-.38-.69-.58-1.49-.58-2.4s.2-1.69,.59-2.38c.38-.68,.94-1.23,1.62-1.6,.68-.37,1.45-.56,2.29-.56s1.61,.19,2.29,.56c.68,.37,1.24,.92,1.62,1.6,.4,.69,.59,1.49,.59,2.38s-.2,1.69-.61,2.38c-.39,.68-.97,1.24-1.66,1.62-.71,.38-1.5,.57-2.3,.56h0Zm0-1.58c.47,0,.91-.11,1.31-.34,.42-.22,.75-.56,1.01-1.01s.38-.99,.38-1.63-.12-1.18-.37-1.62c-.22-.42-.56-.77-.98-1.01-.4-.22-.85-.34-1.31-.34-.47,0-.91,.11-1.31,.34-.39,.22-.71,.56-.94,1.01-.23,.44-.35,.98-.35,1.62,0,.95,.24,1.68,.72,2.21,.49,.51,1.1,.77,1.84,.77h0Zm10.83-7.52c.69,0,1.31,.14,1.86,.43,.55,.29,.99,.71,1.3,1.28,.31,.57,.46,1.25,.46,2.05v5.2h-1.81v-4.93c0-.79-.2-1.39-.59-1.81-.39-.43-.93-.64-1.62-.64s-1.23,.21-1.63,.64c-.39,.42-.59,1.02-.59,1.81v4.93h-1.82v-8.82h1.82v1.01c.31-.37,.7-.66,1.14-.85,.47-.2,.97-.3,1.49-.3h0Zm79.58-183.57c-.09-.39-.23-.69-.45-.88-.21-.2-.52-.3-.91-.3-.61,0-1.05,.27-1.31,.8-.27,.52-.41,1.36-.42,2.5,.25-.38,.6-.69,1.01-.88,.45-.21,.94-.32,1.47-.32,1.04,0,1.88,.33,2.51,.99,.64,.66,.96,1.58,.96,2.77,0,.78-.16,1.46-.48,2.05-.31,.59-.79,1.07-1.38,1.38-.6,.33-1.31,.5-2.13,.5-1.64,0-2.78-.51-3.42-1.54-.64-1.04-.96-2.52-.96-4.45,0-2.03,.34-3.53,1.01-4.51,.68-.99,1.77-1.49,3.26-1.49,.8,0,1.47,.16,2.02,.48,.55,.31,.97,.72,1.25,1.23,.29,.52,.46,1.09,.51,1.68,0,0-2.54,0-2.54,0Zm-1.26,3.07c-.46,0-.84,.14-1.15,.42-.3,.27-.45,.65-.45,1.15s.14,.91,.42,1.2c.29,.29,.69,.43,1.22,.43,.47,0,.84-.14,1.1-.42,.28-.29,.42-.68,.42-1.17s-.13-.9-.4-1.18c-.27-.29-.65-.43-1.15-.43h0Zm12.07-2.21c.28-.42,.66-.77,1.1-1.01,.47-.26,1.02-.38,1.65-.38,.74,0,1.4,.19,2,.56s1.07,.91,1.41,1.6c.35,.69,.53,1.5,.53,2.42s-.18,1.73-.53,2.43c-.34,.69-.81,1.23-1.41,1.62-.6,.37-1.29,.57-2,.56-.62,0-1.17-.13-1.65-.38-.44-.23-.82-.57-1.1-.99v5.5h-2.74v-13.18h2.74v1.26Zm3.9,3.18c0-.68-.19-1.22-.58-1.6-.36-.39-.86-.6-1.39-.59-.53,0-1.03,.21-1.39,.59-.37,.39-.56,.93-.56,1.62s.19,1.22,.56,1.62c.36,.38,.87,.6,1.39,.59,.53,0,1.03-.21,1.39-.59,.38-.4,.58-.95,.58-1.63Zm6.96-7.36v11.84h-2.74v-11.84s2.74,0,2.74,0Zm1.44,7.36c0-.92,.17-1.72,.51-2.42,.35-.69,.83-1.23,1.42-1.6,.6-.37,1.29-.57,2-.56,.63,0,1.18,.13,1.65,.38,.48,.26,.85,.59,1.1,1.01v-1.26h2.74v8.93h-2.74v-1.26c-.27,.42-.64,.75-1.12,1.01-.47,.26-1.02,.38-1.65,.38-.7,0-1.39-.19-1.98-.56-.6-.38-1.07-.92-1.42-1.62-.34-.7-.51-1.51-.51-2.43h0Zm6.69,.02c0-.68-.19-1.22-.58-1.62-.35-.39-.85-.6-1.38-.59-.53,0-1.03,.21-1.39,.59-.37,.38-.56,.92-.56,1.6s.19,1.23,.56,1.63c.36,.38,.87,.6,1.39,.59,.52,0,1.02-.21,1.38-.59,.38-.39,.58-.93,.58-1.62Zm4.17,0c0-.93,.19-1.74,.56-2.43,.36-.67,.91-1.23,1.58-1.6,.68-.37,1.46-.56,2.34-.56,1.12,0,2.05,.29,2.8,.88,.76,.59,1.25,1.41,1.49,2.48h-2.91c-.24-.68-.72-1.02-1.42-1.02-.47-.01-.92,.21-1.2,.59-.3,.38-.45,.94-.45,1.66s.15,1.29,.45,1.68c.3,.38,.7,.58,1.2,.58,.7,0,1.18-.34,1.42-1.02h2.91c-.23,1.04-.73,1.87-1.49,2.46-.76,.6-1.69,.9-2.8,.9-.87,0-1.65-.19-2.34-.56-.67-.37-1.22-.93-1.58-1.6-.37-.69-.56-1.5-.56-2.43Zm18.65-.14c0,.26-.02,.52-.05,.8h-6.19c.04,.56,.22,.98,.53,1.28,.32,.29,.71,.43,1.17,.43,.68,0,1.16-.29,1.42-.86h2.91c-.15,.58-.43,1.13-.82,1.58-.39,.48-.89,.85-1.46,1.1-.59,.27-1.24,.4-1.97,.4-.88,0-1.65-.19-2.34-.56-.68-.37-1.23-.92-1.6-1.6-.38-.69-.58-1.5-.58-2.43s.19-1.74,.56-2.43c.37-.68,.92-1.23,1.6-1.6,.68-.37,1.47-.56,2.35-.56s1.63,.18,2.3,.54,1.2,.88,1.57,1.55c.38,.67,.58,1.46,.58,2.35h0Zm-2.8-.72c0-.47-.16-.84-.48-1.12s-.72-.42-1.2-.42-.85,.13-1.17,.4c-.31,.27-.5,.64-.58,1.14h3.42Zm-30.53,55.33h8v8h-8v-8Z"/>
  <path class="cls-2" d="M791,158.5v50"/>
  <g class="cls-11">
    <path class="cls-4" d="M790.5,232.74c1.72,0,3.12-1.4,3.12-3.12s-1.4-3.12-3.12-3.12c-1.72,.03-3.1,1.45-3.07,3.18,.03,1.68,1.39,3.04,3.07,3.07Zm9.63,13.77c-.88-9.89-5.59-11.86-5.59-11.86,0,0-4.55-2.74-9.35,.75-3.11,2.83-3.83,7.15-4.32,11.32-.25,2.12,3.07,2.1,3.31,0,.29-2.49,.71-4.99,1.95-7.12v2.4s-.03,11.55-.03,11.55v9.16c0,.98,.72,1.79,1.74,1.79s1.84-.8,1.84-1.79v-13.1h1.62v13.14c0,2.14,3.31,2.14,3.31,0v-9.21l.14-11.57v-2.78c1.33,2.17,1.76,4.75,2.07,7.31,.25,2.1,3.56,2.12,3.32,0h0Z"/>
  </g>
  <path class="cls-4" d="M758.34,274.5v-1.66h3.33v11.66h-1.84v-10h-1.49Zm12.05,2.48c.31-.4,.73-.75,1.26-1.02s1.14-.42,1.81-.42c.77,0,1.47,.19,2.1,.58,.64,.37,1.14,.9,1.5,1.58s.54,1.47,.54,2.35-.18,1.68-.54,2.38c-.34,.67-.86,1.24-1.5,1.63-.63,.38-1.36,.58-2.1,.58-.67,0-1.27-.13-1.79-.4-.49-.25-.93-.6-1.28-1.02v5.47h-1.82v-13.01h1.82v1.3h0Zm5.36,3.07c0-.61-.13-1.13-.38-1.57-.22-.43-.57-.78-.99-1.01-.81-.47-1.81-.47-2.62,0-.42,.25-.76,.6-.99,1.02-.24,.45-.37,.98-.37,1.58s.12,1.14,.37,1.6c.23,.42,.58,.78,.99,1.02,.81,.47,1.81,.47,2.62,0,.42-.25,.77-.62,.99-1.06,.26-.46,.38-.99,.38-1.6Zm11.74-.18c0,.33-.02,.63-.06,.9h-6.74c.05,.7,.31,1.27,.78,1.7,.47,.43,1.04,.64,1.73,.64,.98,0,1.67-.41,2.08-1.23h1.97c-.26,.8-.77,1.5-1.46,2-.69,.51-1.56,.77-2.59,.77-.84,0-1.6-.19-2.27-.56-.66-.38-1.2-.93-1.57-1.6-.37-.69-.56-1.49-.56-2.4s.18-1.7,.54-2.38c.35-.67,.89-1.23,1.55-1.6,.67-.37,1.44-.56,2.3-.56s1.57,.18,2.22,.54c.64,.36,1.17,.89,1.52,1.54,.36,.65,.54,1.4,.54,2.26h0Zm-1.9-.58c-.01-.67-.25-1.21-.72-1.62-.47-.4-1.05-.61-1.74-.61-.63,0-1.17,.2-1.62,.61-.45,.39-.72,.93-.8,1.62h4.88Zm5.52-2.34c.25-.43,.62-.79,1.06-1.04,.45-.26,.98-.38,1.58-.38v1.89h-.46c-.72,0-1.26,.18-1.63,.54-.36,.36-.54,.99-.54,1.89v4.64h-1.82v-8.82h1.82v1.28Zm7.52,7.68c-.69,0-1.32-.12-1.87-.37-.54-.26-.98-.6-1.3-1.02-.31-.42-.49-.93-.51-1.46h1.89c.03,.37,.21,.69,.53,.94,.33,.24,.74,.37,1.23,.37s.91-.1,1.18-.29c.29-.2,.43-.46,.43-.77,0-.33-.16-.58-.48-.74-.31-.16-.8-.34-1.49-.53-.66-.18-1.2-.36-1.62-.53-.42-.17-.79-.44-1.09-.78-.3-.35-.45-.82-.45-1.39,0-.47,.14-.9,.42-1.28,.28-.39,.67-.7,1.18-.93,.52-.22,1.12-.34,1.79-.34,1,0,1.81,.26,2.42,.77,.62,.5,.95,1.19,.99,2.06h-1.82c-.02-.37-.19-.71-.48-.94-.29-.23-.68-.35-1.17-.35s-.85,.09-1.1,.27c-.24,.16-.39,.43-.38,.72,0,.23,.09,.43,.26,.59,.17,.16,.38,.29,.62,.38,.25,.08,.61,.2,1.09,.34,.64,.17,1.16,.35,1.57,.53,.41,.17,.78,.43,1.07,.77,.3,.34,.45,.8,.46,1.36,0,.5-.14,.95-.42,1.34-.28,.39-.67,.7-1.18,.93-.5,.22-1.09,.34-1.78,.34h0Zm9.17,0c-.83,0-1.58-.19-2.26-.56-.67-.38-1.21-.93-1.58-1.6-.38-.69-.58-1.49-.58-2.4s.2-1.69,.59-2.38c.38-.68,.94-1.23,1.62-1.6,.68-.37,1.45-.56,2.29-.56s1.61,.19,2.29,.56c.68,.37,1.24,.92,1.62,1.6,.4,.69,.59,1.49,.59,2.38s-.2,1.69-.61,2.38c-.39,.68-.97,1.24-1.66,1.62-.71,.38-1.5,.57-2.3,.56h0Zm0-1.58c.47,0,.91-.11,1.31-.34,.42-.22,.75-.56,1.01-1.01s.38-.99,.38-1.63-.12-1.18-.37-1.62c-.22-.42-.56-.77-.98-1.01-.4-.22-.85-.34-1.31-.34-.47,0-.91,.11-1.31,.34-.39,.22-.71,.56-.94,1.01-.23,.44-.35,.98-.35,1.62,0,.95,.24,1.68,.72,2.21,.49,.51,1.1,.77,1.84,.77h0Zm10.83-7.52c.69,0,1.31,.14,1.86,.43,.55,.29,.99,.71,1.3,1.28,.31,.57,.46,1.25,.46,2.05v5.2h-1.81v-4.93c0-.79-.2-1.39-.59-1.81-.39-.43-.93-.64-1.62-.64s-1.23,.21-1.63,.64c-.39,.42-.59,1.02-.59,1.81v4.93h-1.82v-8.82h1.82v1.01c.31-.37,.7-.66,1.14-.85,.47-.2,.97-.3,1.49-.3h0Zm84.57-185.67l-4.02,9.63h-2.8l4.06-9.33h-4.98v-2.34h7.73v2.03h0Zm7.51,1.97c.28-.42,.66-.77,1.1-1.01,.47-.26,1.02-.38,1.65-.38,.74,0,1.4,.19,2,.56,.6,.37,1.07,.91,1.41,1.6,.35,.69,.53,1.5,.53,2.42s-.18,1.73-.53,2.43c-.34,.69-.81,1.23-1.41,1.62-.6,.37-1.29,.57-2,.56-.62,0-1.17-.13-1.65-.38-.44-.23-.82-.57-1.1-.99v5.5h-2.74v-13.18h2.74v1.26Zm3.9,3.18c0-.68-.19-1.22-.58-1.6-.36-.39-.86-.6-1.39-.59-.53,0-1.03,.21-1.39,.59-.37,.39-.56,.93-.56,1.62s.19,1.22,.56,1.62c.36,.38,.87,.6,1.39,.59,.53,0,1.03-.21,1.39-.59,.38-.4,.58-.95,.58-1.63Zm6.96-7.36v11.84h-2.74v-11.84s2.74,0,2.74,0Zm1.44,7.36c0-.92,.17-1.72,.51-2.42,.35-.69,.83-1.23,1.42-1.6,.6-.37,1.29-.57,2-.56,.63,0,1.18,.13,1.65,.38,.48,.26,.85,.59,1.1,1.01v-1.26h2.74v8.93h-2.74v-1.26c-.27,.42-.64,.75-1.12,1.01-.47,.26-1.02,.38-1.65,.38-.7,0-1.39-.19-1.98-.56-.6-.38-1.07-.92-1.42-1.62-.34-.7-.51-1.51-.51-2.43h0Zm6.69,.02c0-.68-.19-1.22-.58-1.62-.35-.39-.85-.6-1.38-.59-.53,0-1.03,.21-1.39,.59-.37,.38-.56,.92-.56,1.6s.19,1.23,.56,1.63c.36,.38,.87,.6,1.39,.59,.54,0,1-.2,1.38-.59,.38-.39,.58-.93,.58-1.62Zm4.17,0c0-.93,.19-1.74,.56-2.43,.36-.67,.91-1.23,1.58-1.6,.68-.37,1.46-.56,2.34-.56,1.12,0,2.05,.29,2.8,.88,.76,.59,1.25,1.41,1.49,2.48h-2.91c-.24-.68-.72-1.02-1.42-1.02-.47-.01-.92,.21-1.2,.59-.3,.38-.45,.94-.45,1.66s.15,1.29,.45,1.68c.3,.38,.7,.58,1.2,.58,.7,0,1.18-.34,1.42-1.02h2.91c-.23,1.04-.73,1.87-1.49,2.46s-1.69,.9-2.8,.9c-.88,0-1.65-.19-2.34-.56-.67-.37-1.22-.93-1.58-1.6-.37-.69-.56-1.5-.56-2.43Zm18.65-.14c0,.26-.02,.52-.05,.8h-6.19c.04,.56,.22,.98,.53,1.28,.32,.29,.71,.43,1.17,.43,.68,0,1.16-.29,1.42-.86h2.91c-.15,.58-.43,1.13-.82,1.58-.39,.48-.89,.85-1.46,1.1-.59,.27-1.24,.4-1.97,.4-.87,0-1.65-.19-2.34-.56-.68-.37-1.23-.92-1.6-1.6-.38-.69-.58-1.5-.58-2.43s.19-1.74,.56-2.43c.37-.68,.92-1.23,1.6-1.6,.68-.37,1.47-.56,2.35-.56s1.63,.18,2.3,.54,1.2,.88,1.57,1.55c.38,.67,.58,1.46,.58,2.35h0Zm-2.8-.72c0-.47-.16-.84-.48-1.12s-.72-.42-1.2-.42-.85,.13-1.17,.4c-.31,.27-.5,.64-.58,1.14h3.42Zm-29.72,55.33h8v8h-8v-8Z"/>
  <path class="cls-2" d="M924.5,157.5v50"/>
  <g class="cls-10">
    <g>
      <path d="M915.39,237.53h0c0-1.24,.5-2.42,1.38-3.29-.42-.16-.86-.25-1.31-.25h-7.91c-1.95,0-3.53,1.56-3.54,3.48v10.83c0,.81,.66,1.47,1.47,1.47s1.47-.66,1.47-1.47v-10.82c.01-.4,.33-.54,.63-.54,0,7.73,0,17.59,0,25.32,0,.98,.79,1.77,1.77,1.77s1.77-.79,1.77-1.77v-14.14h.76v14.14c0,.98,.79,1.77,1.77,1.77,.91,0,1.73-.69,1.73-1.77v-24.74h0Zm-2.71-4.74c1.58-.61,2.36-2.38,1.75-3.95s-2.38-2.36-3.95-1.75c-.05,.02-.09,.04-.14,.06-1.54,.69-2.24,2.49-1.55,4.03,.66,1.49,2.37,2.2,3.89,1.61Z"/>
      <path d="M927.89,237.53h0c0-1.22,.48-2.38,1.34-3.24-.41-.15-.84-.23-1.27-.23h-7.92c-.82,0-1.62,.28-2.26,.8-.81,.65-1.28,1.64-1.29,2.68v10.83c0,.81,.66,1.47,1.47,1.47s1.47-.66,1.47-1.47c0-7.06,0-10.83,0-10.88,.02-.54,.6-.48,.6-.48v25.32c0,.98,.82,1.77,1.79,1.77s1.77-.79,1.77-1.77v-14.14h.76v14.14c0,.98,.79,1.77,1.77,1.77s1.73-.79,1.73-1.77c0,0,.02-13.57,0-24.79h0s0,0,0,0Zm-3.81-4.45c1.69-.04,3.03-1.43,2.99-3.12-.04-1.69-1.43-3.03-3.12-2.99h0c-1.69,.04-3.03,1.43-2.99,3.12,.04,1.69,1.43,3.03,3.12,2.99h0Z"/>
      <path d="M944,237.52c-.01-1.91-1.6-3.47-3.54-3.47h-7.91c-.83,0-1.64,.29-2.29,.83-.79,.65-1.25,1.62-1.25,2.65v10.83c.02,.81,.7,1.46,1.51,1.44,.78-.02,1.41-.65,1.44-1.44v-10.82c0-.27,.31-.54,.62-.54v25.32c0,1.05,.91,1.87,1.96,1.76,.9-.09,1.59-.85,1.59-1.76v-14.14h.76v14.14c0,.98,.79,1.77,1.77,1.77s1.78-.79,1.78-1.77c0-3.04,0-21.26,0-25.32,.32,0,.62,.27,.62,.53v10.83c.02,.81,.7,1.46,1.51,1.44,.78-.02,1.41-.65,1.44-1.44v-10.84h0Zm-7.5-4.45c1.69,0,3.06-1.37,3.06-3.06s-1.37-3.06-3.06-3.06-3.06,1.37-3.06,3.06,1.37,3.06,3.06,3.06Z"/>
    </g>
  </g>
  <path class="cls-4" d="M886.74,275.5v-1.66h3.33v11.66h-1.84v-10h-1.49Zm13.35-.1h-5.36v3.18c.22-.3,.55-.55,.99-.75,.45-.2,.93-.31,1.42-.3,.9,0,1.62,.19,2.18,.58,.57,.38,.97,.87,1.2,1.46,.25,.59,.37,1.22,.37,1.86,0,.79-.15,1.49-.46,2.11-.3,.61-.77,1.11-1.36,1.44-.6,.35-1.33,.53-2.21,.53-1.16,0-2.1-.29-2.8-.86-.7-.58-1.12-1.34-1.26-2.29h1.78c.12,.5,.38,.9,.78,1.2,.41,.29,.91,.43,1.52,.43,.76,0,1.32-.23,1.7-.69,.38-.46,.58-1.07,.58-1.82s-.19-1.36-.58-1.76c-.38-.42-.95-.62-1.7-.62-.52,0-.97,.13-1.33,.4-.36,.26-.63,.63-.77,1.06h-1.73v-6.74h7.04v1.6h0Zm8.92,2.58c.31-.4,.73-.75,1.26-1.02,.53-.28,1.14-.42,1.81-.42,.77,0,1.47,.19,2.1,.58,.64,.37,1.14,.9,1.5,1.58,.36,.68,.54,1.47,.54,2.35s-.18,1.68-.54,2.38c-.34,.67-.86,1.24-1.5,1.63-.63,.38-1.36,.58-2.1,.58-.67,0-1.27-.13-1.79-.4-.49-.25-.93-.6-1.28-1.02v5.47h-1.82v-13.01h1.82v1.3h0Zm5.36,3.07c0-.61-.13-1.13-.38-1.57-.22-.43-.57-.78-.99-1.01-.81-.47-1.81-.47-2.62,0-.42,.25-.76,.6-.99,1.02-.24,.45-.37,.98-.37,1.58s.12,1.14,.37,1.6c.23,.42,.58,.78,.99,1.02,.81,.47,1.81,.47,2.62,0,.42-.25,.77-.62,.99-1.06,.26-.46,.38-.99,.38-1.6Zm11.74-.18c0,.33-.02,.63-.06,.9h-6.74c.05,.7,.32,1.27,.78,1.7s1.04,.64,1.73,.64c.98,0,1.67-.41,2.08-1.23h1.97c-.26,.8-.77,1.5-1.46,2-.69,.51-1.56,.77-2.59,.77-.84,0-1.6-.19-2.27-.56-.66-.38-1.2-.93-1.57-1.6-.37-.69-.56-1.49-.56-2.4s.18-1.7,.54-2.38c.35-.67,.89-1.23,1.55-1.6,.67-.37,1.44-.56,2.3-.56s1.57,.18,2.22,.54c.64,.36,1.17,.89,1.52,1.54,.36,.65,.54,1.4,.54,2.26h0Zm-1.9-.58c-.01-.67-.25-1.21-.72-1.62s-1.05-.61-1.74-.61c-.63,0-1.17,.2-1.62,.61-.45,.39-.72,.93-.8,1.62h4.88Zm5.52-2.34c.25-.43,.62-.79,1.06-1.04,.45-.26,.98-.38,1.58-.38v1.89h-.46c-.72,0-1.26,.18-1.63,.54-.36,.36-.54,.99-.54,1.89v4.64h-1.82v-8.82h1.82v1.28Zm7.52,7.68c-.69,0-1.32-.12-1.87-.37-.54-.26-.98-.6-1.3-1.02-.31-.42-.49-.93-.51-1.46h1.89c.03,.37,.21,.69,.53,.94,.33,.24,.74,.37,1.23,.37s.91-.1,1.18-.29c.29-.2,.43-.46,.43-.77,0-.33-.16-.58-.48-.74-.31-.16-.81-.34-1.49-.53-.66-.18-1.2-.36-1.62-.53-.42-.17-.79-.44-1.09-.78-.3-.35-.45-.82-.45-1.39,0-.47,.14-.9,.42-1.28,.28-.39,.67-.7,1.18-.93,.52-.22,1.12-.34,1.79-.34,1,0,1.81,.26,2.42,.77,.62,.5,.95,1.19,.99,2.06h-1.82c-.02-.37-.19-.71-.48-.94-.29-.23-.68-.35-1.17-.35s-.85,.09-1.1,.27c-.24,.16-.39,.43-.38,.72,0,.23,.09,.43,.26,.59,.17,.16,.38,.29,.62,.38,.24,.08,.61,.2,1.09,.34,.64,.17,1.16,.35,1.57,.53,.42,.17,.77,.43,1.07,.77,.3,.34,.45,.8,.46,1.36,0,.5-.14,.95-.42,1.34-.28,.39-.67,.7-1.18,.93-.5,.22-1.09,.34-1.78,.34h0Zm9.17,0c-.83,0-1.58-.19-2.26-.56-.67-.38-1.21-.93-1.58-1.6-.38-.69-.58-1.49-.58-2.4s.2-1.69,.59-2.38c.38-.68,.94-1.23,1.62-1.6,.68-.37,1.45-.56,2.29-.56s1.6,.19,2.29,.56c.68,.37,1.24,.92,1.62,1.6,.39,.69,.59,1.49,.59,2.38s-.2,1.69-.61,2.38c-.39,.68-.97,1.24-1.66,1.62-.71,.38-1.5,.57-2.3,.56h0Zm0-1.58c.47,0,.91-.11,1.31-.34,.42-.22,.75-.56,1.01-1.01s.38-.99,.38-1.63-.12-1.18-.37-1.62c-.22-.42-.56-.77-.98-1.01-.4-.22-.85-.34-1.31-.34-.47,0-.91,.11-1.31,.34-.4,.22-.71,.56-.94,1.01-.23,.44-.35,.98-.35,1.62,0,.95,.24,1.68,.72,2.21,.49,.51,1.1,.77,1.84,.77h0Zm10.83-7.52c.69,0,1.31,.14,1.86,.43,.55,.29,1,.73,1.3,1.28,.31,.57,.46,1.25,.46,2.05v5.2h-1.81v-4.93c0-.79-.2-1.39-.59-1.81-.4-.43-.93-.64-1.62-.64s-1.23,.21-1.63,.64c-.4,.42-.59,1.02-.59,1.81v4.93h-1.82v-8.82h1.82v1.01c.31-.37,.7-.66,1.14-.85,.47-.2,.98-.31,1.49-.3h0Zm78.03-183.31c-1.01-.53-1.51-1.37-1.51-2.51,0-.58,.15-1.1,.45-1.57,.3-.48,.75-.86,1.36-1.14,.61-.29,1.35-.43,2.24-.43s1.63,.14,2.22,.43c.61,.28,1.06,.66,1.36,1.14,.3,.47,.45,.99,.45,1.57s-.14,1.08-.41,1.5c-.27,.43-.63,.76-1.09,1.01,.57,.28,1.02,.66,1.32,1.15,.31,.48,.47,1.04,.47,1.7,0,.76-.19,1.41-.58,1.97-.38,.54-.9,.96-1.56,1.25s-1.38,.43-2.18,.43-1.53-.14-2.19-.43c-.65-.29-1.17-.7-1.55-1.25-.39-.56-.58-1.21-.58-1.97,0-.66,.15-1.23,.46-1.71,.31-.49,.75-.87,1.32-1.14h0Zm3.92-2.1c0-.44-.13-.77-.39-1.01-.24-.25-.57-.37-.99-.37s-.75,.12-1.01,.37c-.24,.25-.37,.59-.37,1.02s.13,.75,.39,.99c.25,.24,.58,.35,.99,.35s.74-.12,.99-.37c.26-.25,.39-.58,.39-.99Zm-1.38,3.28c-.5,0-.91,.14-1.22,.42-.31,.27-.46,.64-.46,1.12,0,.45,.15,.82,.45,1.1,.31,.29,.72,.43,1.23,.43s.91-.14,1.2-.43c.3-.29,.45-.66,.45-1.1,0-.47-.16-.84-.47-1.12-.3-.28-.69-.42-1.18-.42h0Zm12.31-2.58c.27-.42,.63-.75,1.1-1.01,.47-.26,1.02-.38,1.65-.38,.74,0,1.4,.19,2,.56s1.07,.91,1.41,1.6c.35,.69,.53,1.5,.53,2.42s-.18,1.73-.53,2.43c-.34,.69-.81,1.23-1.41,1.62-.6,.37-1.26,.56-2,.56-.62,0-1.17-.13-1.65-.38-.44-.23-.82-.58-1.1-.99v5.5h-2.74v-13.18h2.74v1.26Zm3.9,3.18c0-.68-.19-1.22-.57-1.6-.36-.39-.87-.6-1.4-.59-.54,0-1,.2-1.39,.59-.37,.39-.56,.93-.56,1.62s.19,1.22,.56,1.62c.39,.39,.85,.59,1.39,.59s1.01-.2,1.4-.59c.38-.4,.57-.95,.57-1.63Zm6.96-7.36v11.84h-2.74v-11.84s2.74,0,2.74,0Zm1.44,7.36c0-.92,.17-1.72,.51-2.42,.35-.69,.83-1.23,1.42-1.6,.6-.37,1.27-.56,2-.56,.63,0,1.18,.13,1.65,.38,.48,.26,.85,.59,1.1,1.01v-1.26h2.74v8.93h-2.74v-1.26c-.26,.42-.64,.75-1.12,1.01-.46,.26-1.01,.38-1.64,.38-.73,0-1.39-.19-1.99-.56-.61-.4-1.1-.96-1.42-1.62-.34-.7-.51-1.51-.51-2.43h0Zm6.68,.02c0-.68-.19-1.22-.57-1.62-.35-.39-.86-.6-1.38-.59-.54,0-1.01,.2-1.39,.59-.37,.38-.56,.92-.56,1.6s.19,1.23,.56,1.63c.38,.39,.85,.59,1.39,.59s1.01-.2,1.38-.59c.38-.39,.57-.93,.57-1.62Zm4.18,0c0-.93,.18-1.74,.56-2.43,.36-.67,.91-1.23,1.58-1.6,.68-.37,1.46-.56,2.34-.56,1.12,0,2.05,.29,2.8,.88s1.25,1.41,1.48,2.48h-2.91c-.24-.68-.72-1.02-1.42-1.02-.5,0-.9,.2-1.2,.59-.3,.38-.45,.94-.45,1.66s.15,1.29,.45,1.68c.3,.38,.7,.58,1.2,.58,.7,0,1.18-.34,1.42-1.02h2.91c-.23,1.04-.73,1.87-1.48,2.46-.76,.6-1.69,.9-2.8,.9-.88,0-1.66-.19-2.34-.56-.67-.37-1.22-.93-1.58-1.6-.38-.69-.56-1.5-.56-2.43Zm18.64-.14c0,.26-.01,.52-.04,.8h-6.2c.05,.56,.22,.98,.53,1.28,.32,.29,.71,.43,1.17,.43,.68,0,1.16-.29,1.42-.86h2.92c-.15,.58-.43,1.12-.82,1.58-.38,.47-.87,.84-1.46,1.1-.58,.27-1.24,.4-1.96,.4-.88,0-1.66-.19-2.34-.56-.68-.37-1.23-.92-1.6-1.6-.38-.69-.58-1.5-.58-2.43s.19-1.74,.56-2.43c.39-.69,.92-1.23,1.6-1.6,.69-.37,1.47-.56,2.36-.56s1.63,.18,2.3,.54,1.19,.88,1.57,1.55c.38,.67,.57,1.46,.57,2.35h0Zm-2.8-.72c0-.47-.16-.84-.48-1.12s-.72-.42-1.2-.42-.84,.13-1.16,.4c-.31,.27-.51,.64-.58,1.14h3.42Zm-30.62,55.33h8v8h-8v-8Z"/>
  <path class="cls-2" d="M1063,157.5v50"/>
  <g class="cls-9">
    <g>
      <path d="M1053.89,237.53h0c0-1.29,.52-2.45,1.38-3.29-.42-.16-.86-.25-1.31-.25h-7.92c-1.94,0-3.53,1.56-3.54,3.48v10.83c.03,.81,.72,1.45,1.53,1.42,.77-.03,1.39-.65,1.42-1.42v-10.82c.01-.4,.33-.54,.63-.54-.01,7.73,0,17.59,0,25.32,0,.99,.81,1.77,1.77,1.77s1.77-.79,1.77-1.77v-14.14h.76v14.14c0,.98,.8,1.77,1.77,1.77,.92,0,1.74-.69,1.74-1.77v-24.74h0Zm-2.72-4.74c1.56-.65,2.3-2.43,1.66-3.99-.65-1.56-2.44-2.3-4-1.65-1.56,.64-2.3,2.43-1.65,3.99,0,0,0,0,0,0,.65,1.56,2.43,2.3,3.99,1.65Z"/>
      <path d="M1066.39,237.53h0c0-1.26,.5-2.41,1.34-3.24-.41-.15-.84-.23-1.27-.23h-7.92c-.84,0-1.63,.3-2.25,.8-.81,.65-1.29,1.63-1.29,2.68v10.83c0,.81,.67,1.47,1.48,1.47,.81,0,1.46-.66,1.47-1.47v-10.88c.02-.54,.6-.48,.6-.48v25.32c0,.98,.82,1.77,1.8,1.77s1.77-.79,1.77-1.77v-14.14h.76v14.14c0,.98,.79,1.77,1.77,1.77s1.74-.79,1.74-1.77c0,0,.02-13.57,0-24.79h0s0,0,0,0Zm-3.82-4.45c1.69-.03,3.03-1.43,2.99-3.12,0,0,0,0,0,0-.04-1.69-1.43-3.02-3.12-2.99,0,0,0,0,0,0-1.69,.03-3.03,1.43-2.99,3.12,0,0,0,0,0,0,.04,1.69,1.43,3.02,3.12,2.99Z"/>
      <path d="M1082.5,237.52c-.01-1.91-1.6-3.47-3.54-3.47h-7.92c-.83,0-1.64,.29-2.29,.83-.79,.65-1.25,1.62-1.25,2.65v10.83c0,.83,.68,1.48,1.47,1.48s1.48-.65,1.48-1.48v-10.82c0-.27,.3-.54,.62-.54v25.32c0,.98,.81,1.78,1.79,1.77,.06,0,.11,0,.17,0,.9-.09,1.59-.85,1.59-1.76v-14.14h.76v14.14c0,.98,.79,1.77,1.77,1.77s1.78-.79,1.78-1.77c-.01-3.04,0-21.26,0-25.32,.32,0,.62,.27,.62,.53v10.83c.03,.81,.72,1.45,1.53,1.42,.77-.03,1.39-.65,1.42-1.42v-10.84h0Zm-7.5-4.45c1.68,0,3.05-1.37,3.05-3.05h0c0-1.69-1.36-3.06-3.04-3.06h0c-1.69,0-3.06,1.37-3.06,3.06h0c0,1.69,1.37,3.06,3.06,3.06h0Z"/>
    </g>
  </g>
  <path class="cls-4" d="M1030.67,275.4h-5.36v3.18c.22-.3,.55-.55,.99-.75,.45-.2,.92-.3,1.42-.3,.9,0,1.62,.19,2.18,.58s.96,.87,1.2,1.46,.37,1.2,.37,1.86c0,.79-.16,1.49-.47,2.11-.3,.61-.75,1.09-1.36,1.44-.59,.35-1.33,.53-2.2,.53-1.17,0-2.1-.29-2.8-.86-.71-.58-1.13-1.34-1.27-2.29h1.78c.1,.48,.38,.91,.78,1.2,.41,.29,.91,.43,1.52,.43,.76,0,1.32-.23,1.7-.69,.38-.46,.57-1.07,.57-1.82s-.19-1.36-.57-1.76c-.39-.42-.95-.62-1.7-.62-.52,0-.96,.13-1.33,.4-.35,.26-.6,.61-.76,1.06h-1.73v-6.74h7.04v1.6h0Zm2.7,4.11c0-1.85,.31-3.29,.92-4.32,.63-1.05,1.71-1.57,3.24-1.57s2.59,.52,3.21,1.57c.63,1.04,.95,2.48,.95,4.32s-.32,3.33-.95,4.38c-.62,1.05-1.69,1.57-3.21,1.57s-2.61-.52-3.24-1.57c-.61-1.06-.92-2.52-.92-4.38Zm6.52,0c0-.86-.05-1.6-.17-2.19-.11-.6-.33-1.08-.67-1.46-.35-.38-.85-.58-1.52-.58s-1.18,.19-1.52,.58c-.35,.37-.57,.86-.69,1.46-.11,.6-.16,1.33-.16,2.19s.05,1.65,.16,2.26c.1,.61,.33,1.1,.67,1.47,.35,.37,.86,.56,1.54,.56s1.17-.19,1.52-.56,.58-.86,.68-1.47c.11-.61,.16-1.36,.16-2.26h0Zm9.95-1.54c.31-.4,.73-.75,1.26-1.02s1.14-.42,1.81-.42c.77,0,1.47,.19,2.09,.58,.64,.37,1.17,.92,1.51,1.58,.36,.68,.54,1.47,.54,2.35s-.18,1.68-.54,2.38c-.34,.67-.87,1.24-1.51,1.63-.62,.38-1.32,.58-2.09,.58-.67,0-1.27-.13-1.79-.4-.49-.25-.93-.6-1.28-1.02v5.47h-1.83v-13.01h1.83v1.3h0Zm5.36,3.07c0-.61-.13-1.13-.39-1.57-.22-.43-.57-.78-.99-1.01-.4-.23-.84-.35-1.31-.35s-.9,.12-1.31,.35-.74,.58-1,1.02c-.24,.45-.36,.98-.36,1.58s.12,1.14,.36,1.6c.26,.45,.59,.79,1,1.02s.85,.35,1.31,.35c.97,0,1.86-.54,2.3-1.41,.26-.46,.39-.99,.39-1.6Zm11.74-.18c0,.33-.03,.63-.07,.9h-6.73c.05,.7,.31,1.27,.78,1.7s1.05,.64,1.73,.64c.98,0,1.67-.41,2.08-1.23h1.97c-.27,.8-.78,1.5-1.46,2-.69,.51-1.56,.77-2.59,.77-.84,0-1.6-.19-2.27-.56-.66-.38-1.21-.93-1.57-1.6-.38-.69-.56-1.49-.56-2.4s.18-1.7,.54-2.38c.38-.69,.89-1.23,1.55-1.6,.68-.37,1.44-.56,2.31-.56s1.57,.18,2.22,.54,1.16,.88,1.52,1.54c.36,.65,.55,1.4,.55,2.26h0Zm-1.91-.58c-.01-.67-.25-1.21-.72-1.62s-1.05-.61-1.74-.61c-.63,0-1.17,.2-1.62,.61-.45,.39-.71,.93-.8,1.62h4.88Zm5.53-2.34c.26-.45,.61-.8,1.05-1.04,.45-.26,.98-.38,1.59-.38v1.89h-.47c-.71,0-1.26,.18-1.63,.54-.36,.36-.54,.99-.54,1.89v4.64h-1.83v-8.82h1.83v1.28Zm7.51,7.68c-.69,0-1.32-.12-1.87-.37-.54-.26-.98-.6-1.3-1.02-.31-.42-.49-.93-.51-1.46h1.89c.03,.37,.21,.69,.53,.94,.33,.24,.74,.37,1.23,.37s.91-.1,1.18-.29c.29-.2,.44-.46,.44-.77,0-.33-.16-.58-.48-.74-.31-.16-.81-.34-1.49-.53-.66-.18-1.2-.36-1.62-.53-.42-.17-.79-.44-1.09-.78-.29-.35-.44-.82-.44-1.39,0-.47,.13-.9,.41-1.28,.28-.39,.67-.7,1.19-.93,.52-.22,1.12-.34,1.79-.34,1,0,1.81,.26,2.41,.77,.62,.5,.95,1.19,1,2.06h-1.83c-.02-.37-.19-.71-.48-.94-.29-.23-.68-.35-1.17-.35s-.84,.09-1.1,.27c-.24,.16-.39,.43-.38,.72,0,.23,.08,.43,.25,.59s.38,.29,.63,.38c.24,.08,.6,.2,1.08,.34,.64,.17,1.17,.35,1.57,.53,.42,.17,.78,.43,1.07,.77,.3,.34,.46,.8,.47,1.36,0,.5-.14,.95-.42,1.34s-.67,.7-1.18,.93c-.5,.22-1.1,.34-1.78,.34h0Zm9.17,0c-.83,0-1.58-.19-2.25-.56-.67-.38-1.22-.93-1.59-1.6-.38-.69-.57-1.49-.57-2.4s.19-1.69,.59-2.38c.39-.69,.93-1.23,1.61-1.6,.69-.37,1.45-.56,2.29-.56s1.61,.19,2.29,.56c.68,.37,1.24,.93,1.62,1.6,.39,.69,.59,1.49,.59,2.38s-.2,1.69-.61,2.38c-.4,.69-.96,1.23-1.66,1.62-.7,.37-1.46,.56-2.31,.56Zm0-1.58c.47,0,.91-.11,1.31-.34,.42-.22,.76-.56,1.01-1.01,.26-.45,.39-.99,.39-1.63s-.13-1.18-.37-1.62c-.25-.45-.57-.78-.98-1.01-.4-.22-.84-.34-1.31-.34s-.91,.11-1.31,.34-.71,.56-.95,1.01c-.23,.44-.35,.98-.35,1.62,0,.95,.24,1.68,.72,2.21,.49,.51,1.11,.77,1.84,.77h0Zm10.83-7.52c.69,0,1.31,.14,1.86,.43,.55,.29,.98,.71,1.29,1.28s.47,1.25,.47,2.05v5.2h-1.81v-4.93c0-.79-.2-1.39-.59-1.81-.4-.43-.94-.64-1.62-.64s-1.23,.21-1.63,.64c-.4,.42-.59,1.02-.59,1.81v4.93h-1.83v-8.82h1.83v1.01c.29-.36,.67-.64,1.13-.85,.47-.2,.98-.31,1.49-.3h0Zm82.48-179.56c.16,.84,.66,1.26,1.48,1.26,.56,0,.96-.25,1.2-.75,.23-.5,.35-1.32,.35-2.45-.24,.33-.56,.59-.96,.77-.41,.18-.86,.27-1.36,.27-.68,0-1.29-.14-1.83-.42-.53-.29-.97-.73-1.26-1.26-.3-.57-.45-1.25-.45-2.05s.16-1.48,.48-2.06c.33-.59,.8-1.04,1.39-1.36,.61-.32,1.33-.48,2.15-.48,1.58,0,2.68,.49,3.31,1.47,.63,.98,.94,2.43,.94,4.34,0,1.39-.12,2.53-.38,3.44-.24,.9-.67,1.58-1.26,2.05-.59,.47-1.4,.7-2.42,.7-.81,0-1.5-.16-2.08-.48-.56-.32-1-.74-1.31-1.26-.3-.53-.48-1.12-.51-1.73h2.52Zm1.33-3.06c.45,0,.81-.13,1.07-.4,.27-.28,.4-.65,.4-1.12,0-.51-.13-.91-.41-1.18s-.65-.42-1.12-.42-.84,.14-1.12,.43c-.27,.28-.4,.66-.4,1.15,0,.46,.13,.83,.4,1.12,.28,.28,.67,.42,1.18,.42Zm11.97-1.18c.28-.42,.66-.77,1.11-1.01,.47-.26,1.02-.38,1.65-.38,.73,0,1.4,.19,2,.56,.59,.37,1.06,.91,1.4,1.6,.36,.69,.53,1.5,.53,2.42s-.17,1.73-.53,2.43c-.34,.69-.81,1.23-1.4,1.62-.6,.37-1.27,.56-2,.56-.62,0-1.17-.13-1.65-.38-.45-.23-.83-.58-1.11-.99v5.5h-2.73v-13.18h2.73v1.26Zm3.91,3.18c0-.68-.19-1.22-.58-1.6-.36-.39-.86-.6-1.39-.59-.54,0-1.01,.2-1.39,.59-.38,.39-.56,.93-.56,1.62s.18,1.22,.56,1.62,.85,.59,1.39,.59,1.01-.2,1.39-.59c.39-.4,.58-.95,.58-1.63Zm6.95-7.36v11.84h-2.73v-11.84h2.73Zm1.44,7.36c0-.92,.17-1.72,.51-2.42,.36-.69,.83-1.23,1.43-1.6,.6-.38,1.29-.57,2-.56,.63,0,1.18,.13,1.65,.38,.48,.26,.84,.59,1.1,1.01v-1.26h2.74v8.93h-2.74v-1.26c-.27,.42-.64,.75-1.12,1.01-.47,.26-1.02,.38-1.65,.38-.72,0-1.39-.19-1.98-.56-.6-.38-1.07-.92-1.43-1.62-.34-.7-.51-1.51-.51-2.43h0Zm6.69,.02c0-.68-.19-1.22-.58-1.62-.35-.39-.85-.6-1.37-.59-.55,0-1.01,.2-1.39,.59-.38,.38-.56,.92-.56,1.6s.18,1.23,.56,1.63c.38,.39,.84,.59,1.39,.59s1-.2,1.37-.59c.39-.39,.58-.93,.58-1.62Zm4.17,0c0-.93,.19-1.74,.56-2.43,.36-.67,.91-1.23,1.58-1.6,.69-.37,1.47-.56,2.34-.56,1.12,0,2.05,.29,2.8,.88,.76,.59,1.25,1.41,1.49,2.48h-2.91c-.25-.68-.72-1.02-1.43-1.02-.5,0-.9,.2-1.2,.59-.3,.38-.45,.94-.45,1.66s.15,1.29,.45,1.68c.3,.38,.7,.58,1.2,.58,.71,0,1.18-.34,1.43-1.02h2.91c-.24,1.04-.73,1.87-1.49,2.46s-1.69,.9-2.8,.9c-.87,0-1.65-.19-2.34-.56-.67-.37-1.22-.93-1.58-1.6-.37-.69-.56-1.5-.56-2.43Zm18.65-.14c0,.26-.02,.52-.05,.8h-6.19c.04,.56,.22,.98,.53,1.28,.32,.29,.71,.43,1.16,.43,.69,0,1.16-.29,1.43-.86h2.91c-.15,.58-.43,1.13-.82,1.58-.38,.47-.87,.84-1.45,1.1-.59,.27-1.24,.4-1.97,.4-.87,0-1.65-.19-2.34-.56-.67-.37-1.23-.93-1.6-1.6-.38-.69-.57-1.5-.57-2.43s.18-1.74,.56-2.43,.92-1.23,1.6-1.6,1.46-.56,2.35-.56,1.63,.18,2.3,.54c.68,.36,1.2,.88,1.57,1.55,.39,.67,.58,1.46,.58,2.35h0Zm-2.8-.72c0-.47-.16-.84-.48-1.12s-.72-.42-1.2-.42-.85,.13-1.17,.4c-.31,.27-.5,.64-.58,1.14h3.43Zm-30.36,55.33h8v8h-8v-8Z"/>
  <path class="cls-2" d="M1207,158.4v50"/>
  <path class="cls-4" d="M1210.39,237.96h0c0-1.26,.5-2.41,1.34-3.24-.41-.15-.84-.23-1.27-.23h-7.92c-.84,0-1.63,.3-2.25,.8-.81,.65-1.29,1.63-1.29,2.68v10.83c.03,.81,.72,1.45,1.53,1.42,.77-.03,1.39-.65,1.42-1.42v-10.88c.02-.54,.6-.48,.6-.48v25.32c0,.98,.82,1.77,1.8,1.77s1.77-.79,1.77-1.77v-14.14h.76v14.14c0,.98,.79,1.77,1.77,1.77s1.74-.79,1.74-1.77c0,0,.02-13.57,0-24.79h0s0,0,0,0Zm-3.82-4.46c1.69-.03,3.03-1.43,2.99-3.12,0,0,0,0,0,0-.04-1.69-1.43-3.02-3.12-2.99-1.69,.04-3.03,1.43-2.99,3.12h0c.04,1.69,1.43,3.02,3.12,2.99Z"/>
  <path class="cls-4" d="M1198.02,237.96h0c.01-1.29,.52-2.45,1.39-3.28-.42-.16-.87-.25-1.31-.25h-7.92c-1.95,0-3.53,1.56-3.54,3.48v10.83c0,.82,.66,1.47,1.47,1.47s1.47-.66,1.47-1.47v-10.82c.02-.4,.33-.54,.64-.54-.01,7.73,0,17.59,0,25.32,0,.99,.8,1.77,1.77,1.77s1.77-.79,1.77-1.77v-14.14h.76v14.14c0,.98,.79,1.77,1.77,1.77,.91,0,1.73-.69,1.73-1.77v-24.74h0Zm-2.71-4.74c1.56-.64,2.3-2.43,1.65-3.99,0,0,0,0,0,0-.64-1.56-2.42-2.3-3.98-1.66,0,0,0,0,0,0-1.56,.64-2.3,2.43-1.65,3.99h0c.64,1.57,2.43,2.31,3.98,1.66,0,0,0,0,0,0Zm-10.29,4.74h0c.01-1.29,.52-2.45,1.39-3.28-.42-.16-.87-.25-1.31-.25h-7.92c-1.95,0-3.53,1.56-3.54,3.48v10.83c0,.82,.66,1.47,1.47,1.47s1.47-.66,1.47-1.47v-10.82c.02-.4,.33-.54,.64-.54-.01,7.73,0,17.59,0,25.32,0,.99,.8,1.77,1.77,1.77s1.77-.79,1.77-1.77v-14.14h.76v14.14c0,.98,.79,1.77,1.77,1.77,.91,0,1.73-.69,1.73-1.77v-24.74h0Zm-2.71-4.74c1.56-.64,2.3-2.43,1.65-3.99,0,0,0,0,0,0-.64-1.56-2.42-2.3-3.98-1.66,0,0,0,0,0,0-1.56,.64-2.3,2.43-1.65,3.99h0c.64,1.57,2.43,2.31,3.98,1.66,0,0,0,0,0,0Zm44.33,4.74c-.01-1.91-1.6-3.47-3.55-3.47h-7.91c-.83,0-1.65,.29-2.29,.83-.79,.65-1.25,1.62-1.26,2.65v10.83c0,.83,.68,1.47,1.48,1.47s1.47-.65,1.47-1.47v-10.82c0-.27,.31-.54,.63-.54v25.32c0,.98,.79,1.77,1.77,1.77s1.77-.79,1.77-1.77v-14.14h.77v14.14c0,.98,.79,1.77,1.77,1.77s1.77-.79,1.77-1.77v-25.32c.32,0,.63,.27,.63,.53v10.83c0,.81,.66,1.47,1.47,1.47s1.48-.67,1.48-1.47v-10.84h0Zm-7.51-4.45c1.69,0,3.06-1.37,3.06-3.06s-1.37-3.06-3.06-3.06-3.06,1.37-3.06,3.06c0,1.69,1.37,3.05,3.05,3.06Zm8.85,4.52h0c0-1.22-.48-2.38-1.34-3.24,.39-.15,.82-.23,1.26-.23h7.92c.85,0,1.64,.3,2.26,.8,.81,.65,1.28,1.64,1.28,2.68v10.83c0,.67-.44,1.24-1.06,1.41-.78,.23-1.59-.22-1.82-.99-.04-.14-.06-.28-.06-.42-.01-7.06-.01-10.83-.01-10.88-.01-.54-.6-.48-.6-.48v25.32c0,.98-.82,1.77-1.8,1.77s-1.77-.79-1.77-1.77v-14.14h-.76v14.14c0,.98-.79,1.77-1.77,1.77s-1.73-.79-1.73-1.77c0,0-.02-13.57,0-24.79h0s0,0,0,0Zm3.81-4.46c-1.69-.03-3.03-1.43-2.99-3.12,0,0,0,0,0,0,.02-1.69,1.4-3.04,3.08-3.03,1.69,.02,3.04,1.4,3.03,3.08,0,.03,0,.05,0,.08-.03,1.68-1.42,3.02-3.11,2.99,0,0,0,0-.01,0Zm-67.69,41.02v-1.66h3.32v11.66h-1.84v-10h-1.48Zm5.83,4.02c0-1.85,.31-3.29,.93-4.32,.63-1.05,1.7-1.57,3.23-1.57s2.6,.52,3.21,1.57c.63,1.03,.95,2.47,.95,4.32s-.32,3.33-.95,4.38c-.61,1.05-1.69,1.57-3.21,1.57s-2.6-.52-3.23-1.57c-.62-1.06-.93-2.52-.93-4.38Zm6.53,0c0-.86-.06-1.6-.18-2.19-.11-.6-.33-1.08-.67-1.46-.34-.38-.85-.58-1.52-.58s-1.18,.19-1.52,.58c-.34,.37-.57,.86-.69,1.46-.11,.6-.16,1.33-.16,2.19s.05,1.65,.16,2.26,.33,1.1,.67,1.47c.35,.37,.87,.56,1.54,.56s1.18-.19,1.52-.56c.35-.37,.58-.86,.69-1.47,.1-.61,.16-1.36,.16-2.26Zm3.72,0c0-1.85,.31-3.29,.93-4.32,.63-1.05,1.7-1.57,3.23-1.57s2.6,.52,3.21,1.57c.63,1.03,.95,2.47,.95,4.32s-.32,3.33-.95,4.38c-.61,1.05-1.69,1.57-3.21,1.57s-2.6-.52-3.23-1.57c-.62-1.06-.93-2.52-.93-4.38Zm6.53,0c0-.86-.06-1.6-.18-2.19-.11-.6-.33-1.08-.67-1.46-.34-.38-.85-.58-1.52-.58s-1.18,.19-1.52,.58c-.34,.37-.57,.86-.69,1.46-.11,.6-.16,1.33-.16,2.19s.05,1.65,.16,2.26,.33,1.1,.67,1.47c.35,.37,.87,.56,1.54,.56s1.18-.19,1.52-.56c.35-.37,.58-.86,.69-1.47,.1-.61,.16-1.36,.16-2.26Zm9.94-1.54c.31-.41,.73-.75,1.26-1.02,.54-.28,1.14-.42,1.81-.42,.77,0,1.47,.19,2.1,.58,.64,.37,1.14,.9,1.5,1.58,.36,.68,.55,1.47,.55,2.35s-.19,1.68-.55,2.38c-.34,.67-.86,1.24-1.5,1.63-.63,.38-1.33,.58-2.1,.58-.67,0-1.27-.13-1.79-.4-.49-.25-.93-.6-1.28-1.02v5.47h-1.82v-13.01h1.82v1.3Zm5.36,3.07c0-.61-.13-1.13-.39-1.57-.22-.43-.57-.78-.99-1.01-.4-.23-.84-.35-1.31-.35-.96,0-1.85,.53-2.3,1.38-.25,.45-.37,.98-.37,1.58s.12,1.14,.37,1.6c.25,.45,.58,.79,.99,1.02,.42,.23,.85,.35,1.31,.35,.97,0,1.86-.54,2.3-1.41,.26-.46,.39-.99,.39-1.6h0Zm11.74-.18c0,.33-.02,.63-.07,.9h-6.73c.05,.7,.31,1.27,.78,1.7,.47,.43,1.05,.64,1.73,.64,.98,0,1.68-.41,2.08-1.23h1.97c-.27,.81-.75,1.48-1.46,2-.69,.51-1.55,.77-2.59,.77-.84,0-1.6-.19-2.27-.56-.66-.38-1.2-.93-1.57-1.6-.37-.69-.56-1.49-.56-2.4s.18-1.7,.54-2.38c.36-.67,.9-1.23,1.56-1.6,.67-.37,1.44-.56,2.3-.56s1.57,.18,2.22,.54c.66,.36,1.16,.87,1.52,1.54,.37,.65,.55,1.4,.55,2.26h0Zm-1.91-.58c-.01-.67-.25-1.21-.72-1.62-.46-.41-1.05-.61-1.74-.61-.63,0-1.17,.2-1.62,.61-.44,.39-.71,.93-.8,1.62h4.88Zm5.53-2.34c.26-.45,.62-.8,1.05-1.04,.45-.26,.98-.38,1.59-.38v1.89h-.47c-.71,0-1.25,.18-1.63,.54-.36,.36-.54,.99-.54,1.89v4.64h-1.83v-8.82h1.83v1.28Zm7.51,7.68c-.69,0-1.31-.12-1.87-.37-.51-.23-.95-.58-1.29-1.02-.31-.42-.49-.93-.52-1.46h1.89c.03,.37,.21,.69,.53,.94,.33,.24,.74,.37,1.23,.37s.91-.1,1.19-.29c.28-.2,.43-.46,.43-.77,0-.33-.16-.58-.48-.74-.31-.16-.81-.34-1.49-.53-.66-.18-1.2-.36-1.62-.53-.42-.17-.79-.44-1.08-.78-.3-.35-.45-.82-.45-1.39,0-.47,.14-.9,.41-1.28,.28-.39,.68-.7,1.19-.93,.52-.22,1.12-.34,1.79-.34,1,0,1.81,.26,2.42,.77,.62,.5,.95,1.19,.99,2.06h-1.83c-.03-.39-.19-.71-.48-.94-.28-.23-.67-.35-1.16-.35s-.85,.09-1.11,.27c-.24,.16-.38,.43-.38,.72,0,.23,.08,.43,.25,.59,.18,.16,.38,.29,.63,.38,.24,.08,.61,.2,1.09,.34,.64,.17,1.16,.35,1.56,.53,.42,.17,.78,.43,1.08,.77,.3,.34,.45,.79,.46,1.36,0,.5-.14,.95-.42,1.34-.27,.39-.67,.7-1.18,.93-.5,.22-1.09,.34-1.78,.34h0Zm9.18,0c-.84,0-1.59-.19-2.26-.56-.66-.38-1.21-.93-1.58-1.6-.39-.69-.58-1.49-.58-2.4s.2-1.69,.59-2.38c.38-.68,.94-1.23,1.62-1.6,.68-.37,1.44-.56,2.29-.56s1.6,.19,2.28,.56c.68,.37,1.24,.92,1.62,1.6,.39,.69,.59,1.49,.59,2.38s-.2,1.69-.61,2.38c-.4,.69-.96,1.23-1.66,1.62-.69,.37-1.46,.56-2.3,.56Zm0-1.58c.46,0,.9-.11,1.31-.34s.75-.56,1.01-1.01c.25-.45,.38-.99,.38-1.63s-.12-1.18-.37-1.62c-.22-.42-.56-.77-.97-1.01-.4-.22-.86-.34-1.32-.34-.47,0-.9,.11-1.31,.34-.39,.22-.71,.56-.94,1.01-.24,.44-.35,.98-.35,1.62,0,.95,.24,1.68,.72,2.21,.49,.51,1.1,.77,1.84,.77h0Zm10.82-7.52c.7,0,1.31,.14,1.86,.43,.55,.29,.99,.71,1.29,1.28,.31,.57,.47,1.25,.47,2.05v5.2h-1.81v-4.93c0-.79-.2-1.39-.59-1.81-.4-.43-.93-.64-1.62-.64s-1.22,.21-1.63,.64c-.39,.42-.59,1.02-.59,1.81v4.93h-1.83v-8.82h1.83v1.01c.3-.36,.68-.65,1.13-.85,.47-.2,.98-.31,1.49-.3h0Zm81.14-184.31v-2.54h4.43v11.68h-2.85v-9.14h-1.58Zm6.3,3.14c0-1.83,.35-3.28,1.06-4.34,.71-1.06,1.86-1.58,3.44-1.58s2.72,.53,3.42,1.58c.72,1.06,1.07,2.5,1.07,4.34s-.35,3.31-1.07,4.37c-.7,1.06-1.84,1.58-3.42,1.58s-2.73-.53-3.44-1.58-1.06-2.51-1.06-4.37Zm6.31,0c0-1.08-.12-1.9-.36-2.48-.23-.59-.72-.88-1.45-.88s-1.22,.29-1.46,.88c-.23,.58-.35,1.4-.35,2.48,0,.72,.04,1.33,.13,1.81,.08,.47,.25,.85,.51,1.15,.27,.29,.66,.43,1.17,.43s.89-.14,1.15-.43c.27-.3,.44-.68,.53-1.15,.08-.48,.13-1.08,.13-1.81h0Zm10.53-1.66c.26-.42,.63-.75,1.1-1.01,.47-.26,1.02-.38,1.65-.38,.74,0,1.4,.19,2,.56s1.07,.91,1.41,1.6c.35,.69,.53,1.5,.53,2.42s-.18,1.73-.53,2.43c-.34,.69-.81,1.23-1.41,1.62-.6,.37-1.26,.56-2,.56-.62,0-1.17-.13-1.65-.38-.47-.26-.84-.59-1.1-.99v5.5h-2.74v-13.18h2.74v1.26Zm3.9,3.18c0-.68-.19-1.22-.57-1.6-.36-.39-.87-.6-1.4-.59-.54,0-1,.2-1.39,.59-.37,.39-.56,.93-.56,1.62s.19,1.22,.56,1.62c.39,.39,.85,.59,1.39,.59s1.01-.2,1.4-.59c.38-.4,.57-.95,.57-1.63Zm6.96-7.36v11.84h-2.74v-11.84s2.74,0,2.74,0Zm1.44,7.36c0-.92,.17-1.72,.51-2.42,.35-.69,.82-1.23,1.42-1.6s1.27-.56,2-.56c.63,0,1.18,.13,1.65,.38,.48,.26,.85,.59,1.1,1.01v-1.26h2.74v8.93h-2.74v-1.26c-.26,.42-.64,.75-1.12,1.01-.47,.26-1.01,.38-1.64,.38-.73,0-1.39-.19-1.99-.56-.6-.38-1.07-.92-1.42-1.62-.34-.7-.51-1.51-.51-2.43h0Zm6.68,.02c0-.68-.19-1.22-.57-1.62-.35-.39-.86-.6-1.38-.59-.54,0-1.01,.2-1.39,.59-.37,.38-.56,.92-.56,1.6s.19,1.23,.56,1.63c.38,.39,.85,.59,1.39,.59s1-.2,1.38-.59c.38-.39,.57-.93,.57-1.62Zm4.18,0c0-.93,.18-1.74,.56-2.43s.91-1.23,1.58-1.6c.68-.37,1.46-.56,2.34-.56,1.12,0,2.05,.29,2.8,.88s1.25,1.41,1.48,2.48h-2.91c-.24-.68-.72-1.02-1.42-1.02-.5,0-.9,.2-1.2,.59-.3,.38-.45,.94-.45,1.66s.15,1.29,.45,1.68c.3,.38,.7,.58,1.2,.58,.7,0,1.18-.34,1.42-1.02h2.91c-.23,1.04-.73,1.87-1.48,2.46-.76,.6-1.7,.9-2.8,.9-.88,0-1.66-.19-2.34-.56-.67-.37-1.22-.93-1.58-1.6-.38-.69-.56-1.5-.56-2.43Zm18.64-.14c0,.26-.01,.52-.05,.8h-6.19c.05,.56,.22,.98,.53,1.28,.32,.29,.71,.43,1.17,.43,.68,0,1.16-.29,1.42-.86h2.91c-.14,.58-.42,1.13-.81,1.58-.39,.47-.87,.84-1.46,1.1-.58,.27-1.24,.4-1.97,.4-.87,0-1.65-.19-2.33-.56-.68-.37-1.23-.92-1.6-1.6-.39-.69-.58-1.5-.58-2.43s.19-1.74,.56-2.43c.39-.69,.92-1.23,1.6-1.6,.69-.37,1.47-.56,2.35-.56s1.64,.18,2.31,.54,1.19,.88,1.57,1.55c.38,.67,.57,1.46,.57,2.35h0Zm-2.8-.72c0-.47-.16-.84-.48-1.12s-.72-.42-1.2-.42-.85,.13-1.17,.4c-.3,.27-.5,.64-.57,1.14h3.42Zm-33.66,55.33h8v8h-8v-8Z"/>
  <path class="cls-2" d="M1359,158.47v50"/>
  <path class="cls-4" d="M1326.89,238.03h0c0-1.29,.52-2.45,1.38-3.28-.41-.16-.86-.25-1.31-.25h-7.92c-1.95,0-3.53,1.56-3.54,3.48v10.83c0,.81,.67,1.47,1.48,1.47,.81,0,1.46-.66,1.47-1.47v-10.82c.01-.4,.33-.54,.63-.54-.01,7.73,0,17.59,0,25.32,0,.99,.8,1.77,1.77,1.77s1.77-.79,1.77-1.77v-14.14h.76v14.14c0,.98,.79,1.77,1.77,1.77,.92,0,1.74-.69,1.74-1.77v-24.74h0Zm-2.72-4.74c1.56-.65,2.3-2.43,1.66-3.99-.65-1.56-2.44-2.3-4-1.65-1.56,.65-2.3,2.43-1.65,3.99,0,0,0,0,0,0,.64,1.56,2.43,2.3,3.98,1.66,0,0,0,0,0,0h0Zm15.49,4.74h0c0-1.29,.52-2.45,1.38-3.28-.41-.16-.86-.25-1.31-.25h-7.92c-1.94,0-3.53,1.56-3.54,3.48v10.83c0,.81,.67,1.47,1.48,1.47,.81,0,1.46-.66,1.47-1.47v-10.82c.01-.4,.33-.54,.63-.54-.01,7.73,0,17.59,0,25.32,0,.99,.8,1.77,1.77,1.77s1.77-.79,1.77-1.77v-14.14h.76v14.14c0,.98,.8,1.77,1.77,1.77,.92,0,1.74-.69,1.74-1.77v-24.74h0Zm-2.72-4.74c1.56-.65,2.3-2.43,1.66-3.99-.65-1.56-2.44-2.3-4-1.65-1.56,.65-2.3,2.43-1.65,3.99,0,0,0,0,0,0,.65,1.56,2.43,2.3,3.99,1.65h0Zm15.49,4.74h0c0-1.29,.52-2.45,1.38-3.28-.41-.16-.86-.25-1.31-.25h-7.92c-1.94,0-3.53,1.56-3.54,3.48v10.83c0,.81,.67,1.47,1.48,1.47,.81,0,1.46-.66,1.47-1.47v-10.82c.01-.4,.33-.54,.63-.54v25.32c0,.99,.81,1.77,1.77,1.77s1.77-.79,1.77-1.77v-14.14h.76v14.14c0,.98,.8,1.77,1.77,1.77,.92,0,1.74-.69,1.74-1.77v-24.74h0Zm-2.72-4.74c1.56-.65,2.3-2.43,1.66-3.99-.65-1.56-2.44-2.3-4-1.65-1.55,.67-2.27,2.46-1.6,4.01,.65,1.52,2.4,2.25,3.94,1.63h0Zm15.49,4.68h0c0-1.26,.5-2.41,1.34-3.24-.39-.15-.82-.23-1.27-.23h-7.91c-.85,0-1.64,.3-2.26,.8-.81,.66-1.28,1.64-1.29,2.68v10.83c0,.81,.67,1.47,1.48,1.47,.81,0,1.46-.66,1.47-1.47v-10.88c.02-.54,.61-.48,.61-.48v25.32c0,.98,.81,1.77,1.79,1.77s1.77-.79,1.77-1.77v-14.14h.77v14.14c0,.98,.79,1.77,1.76,1.77s1.74-.79,1.74-1.77c0,0,.02-13.57,0-24.79h0s0,0,0,0Zm-3.81-4.45c1.69-.04,3.02-1.44,2.99-3.12-.04-1.69-1.44-3.03-3.13-2.99-1.69,.04-3.03,1.44-2.99,3.13,.04,1.69,1.44,3.03,3.13,2.99Zm20.15,4.45c-.01-1.91-1.6-3.47-3.54-3.47h-7.92c-.82,0-1.64,.29-2.29,.83-.78,.66-1.24,1.62-1.25,2.65v10.83c0,.83,.68,1.48,1.47,1.48s1.48-.65,1.48-1.48v-10.82c0-.27,.31-.54,.62-.54v25.32c0,.98,.81,1.78,1.79,1.77,.06,0,.11,0,.17,0,.9-.09,1.59-.85,1.59-1.76v-14.14h.76v14.14c0,.98,.79,1.78,1.78,1.78s1.78-.79,1.78-1.78v-25.32c.32,0,.62,.27,.62,.53v10.83c.03,.81,.72,1.45,1.53,1.42,.77-.03,1.39-.65,1.42-1.42v-10.84h0Zm-7.5-4.45c1.69,0,3.06-1.37,3.06-3.06,0-1.69-1.37-3.06-3.06-3.06h0c-1.68,0-3.05,1.37-3.05,3.05h0c0,1.69,1.36,3.06,3.04,3.06h0Zm8.84,4.45h0c0-1.26-.5-2.41-1.34-3.24,.4-.15,.83-.23,1.27-.23h7.92c.84,0,1.63,.3,2.25,.8,.81,.65,1.29,1.63,1.29,2.68v10.83c0,.81-.67,1.47-1.48,1.47-.81,0-1.46-.66-1.47-1.47v-10.88c-.02-.54-.6-.48-.6-.48v25.32c0,.98-.82,1.77-1.8,1.77s-1.77-.79-1.77-1.77v-14.14h-.76v14.14c0,.98-.79,1.77-1.77,1.77s-1.74-.79-1.74-1.77c0,0-.02-13.57,0-24.79h0s0,0,0,0Zm3.82-4.45c-1.69-.04-3.03-1.43-2.99-3.12,0,0,0,0,0,0,.04-1.69,1.43-3.02,3.12-2.99,0,0,0,0,0,0,1.69,.03,3.03,1.43,2.99,3.12,0,0,0,0,0,0-.04,1.69-1.43,3.02-3.12,2.99Zm8.91,4.45h0c0-1.26-.5-2.41-1.34-3.24,.4-.15,.82-.23,1.27-.23h7.92c.84,0,1.63,.3,2.25,.8,.81,.66,1.28,1.64,1.29,2.68v10.83c0,.81-.67,1.47-1.48,1.47-.81,0-1.46-.66-1.47-1.47v-10.88c-.02-.54-.61-.48-.61-.48v25.32c0,.98-.81,1.77-1.79,1.77s-1.77-.79-1.77-1.77v-14.14h-.76v14.14c0,.98-.8,1.77-1.77,1.77s-1.74-.79-1.74-1.77c0,0-.02-13.57,0-24.79h0s0,0,0,0Zm3.82-4.45c-1.69-.04-3.03-1.43-2.99-3.12,0,0,0,0,0,0,.03-1.68,1.42-3.02,3.11-2.99,0,0,0,0,.01,0,1.69,.03,3.03,1.43,2.99,3.12,0,0,0,0,0,0-.04,1.69-1.43,3.02-3.12,2.99Zm-88.46,41.02v-1.66h3.33v11.66h-1.84v-10h-1.49Zm5.83,4.02c0-1.85,.31-3.29,.93-4.32,.63-1.05,1.71-1.57,3.23-1.57s2.6,.52,3.22,1.57c.63,1.04,.94,2.48,.94,4.32s-.31,3.33-.94,4.38c-.62,1.05-1.69,1.57-3.22,1.57s-2.6-.52-3.23-1.57c-.62-1.06-.93-2.52-.93-4.38Zm6.53,0c0-.86-.06-1.59-.17-2.19-.11-.6-.33-1.08-.68-1.46-.34-.38-.84-.58-1.52-.58s-1.17,.19-1.52,.58c-.34,.37-.57,.86-.68,1.46-.11,.6-.16,1.33-.16,2.19s.05,1.65,.16,2.26c.1,.61,.33,1.1,.67,1.47,.35,.37,.86,.56,1.53,.56s1.18-.19,1.52-.56c.36-.37,.59-.86,.69-1.47,.11-.61,.16-1.36,.16-2.26h0Zm3.72,0c0-1.85,.31-3.29,.93-4.32,.63-1.05,1.71-1.57,3.23-1.57s2.6,.52,3.22,1.57c.63,1.04,.94,2.48,.94,4.32s-.31,3.33-.94,4.38c-.62,1.05-1.69,1.57-3.22,1.57s-2.6-.52-3.23-1.57c-.62-1.06-.93-2.52-.93-4.38Zm6.53,0c0-.86-.06-1.59-.17-2.19-.11-.6-.33-1.08-.68-1.46-.34-.38-.84-.58-1.52-.58s-1.17,.19-1.52,.58c-.34,.37-.57,.86-.68,1.46-.11,.6-.16,1.33-.16,2.19s.05,1.65,.16,2.26c.1,.61,.33,1.1,.67,1.47,.35,.37,.86,.56,1.53,.56s1.18-.19,1.52-.56c.36-.37,.59-.86,.69-1.47,.11-.61,.16-1.36,.16-2.26h0Zm3.72,0c0-1.85,.31-3.29,.93-4.32,.63-1.05,1.71-1.57,3.23-1.57s2.6,.52,3.22,1.57c.63,1.04,.94,2.48,.94,4.32s-.31,3.33-.94,4.38c-.62,1.05-1.69,1.57-3.22,1.57s-2.6-.52-3.23-1.57c-.62-1.06-.93-2.52-.93-4.38Zm6.53,0c0-.86-.06-1.59-.17-2.19-.11-.6-.33-1.08-.68-1.46-.34-.38-.84-.58-1.52-.58s-1.17,.19-1.52,.58c-.34,.37-.57,.86-.68,1.46-.11,.6-.16,1.33-.16,2.19s.05,1.65,.16,2.26c.1,.61,.33,1.1,.67,1.47,.35,.37,.86,.56,1.53,.56s1.18-.19,1.52-.56c.36-.37,.59-.86,.69-1.47,.11-.61,.16-1.36,.16-2.26h0Zm9.94-1.54c.31-.4,.73-.75,1.27-1.02,.53-.28,1.13-.42,1.81-.42,.76,0,1.46,.19,2.09,.58,.64,.38,1.16,.93,1.51,1.58,.36,.68,.54,1.47,.54,2.35s-.18,1.68-.54,2.38c-.35,.67-.87,1.23-1.51,1.63-.63,.38-1.33,.58-2.09,.58-.68,0-1.27-.13-1.8-.4-.49-.25-.93-.6-1.28-1.02v5.47h-1.82v-13.01h1.82v1.3h0Zm5.36,3.07c0-.61-.12-1.13-.38-1.57-.23-.42-.57-.77-.99-1.01-.4-.23-.85-.35-1.31-.35-.46,0-.9,.12-1.32,.35-.4,.23-.73,.58-.99,1.02-.24,.45-.37,.98-.37,1.58s.13,1.14,.37,1.6c.26,.45,.59,.79,.99,1.02,.42,.23,.86,.35,1.32,.35s.9-.12,1.31-.35c.41-.24,.74-.6,.99-1.06,.26-.46,.38-.99,.38-1.6Zm11.74-.18c0,.33-.02,.63-.06,.9h-6.74c.06,.7,.32,1.27,.79,1.7,.47,.43,1.04,.64,1.73,.64,.98,0,1.67-.41,2.08-1.23h1.96c-.26,.81-.75,1.48-1.45,2-.7,.51-1.56,.77-2.59,.77-.85,0-1.6-.19-2.28-.56-.66-.38-1.2-.93-1.56-1.6-.38-.69-.56-1.49-.56-2.4s.18-1.7,.54-2.38c.37-.69,.89-1.23,1.55-1.6,.67-.37,1.44-.56,2.31-.56s1.57,.18,2.22,.54c.65,.36,1.16,.88,1.52,1.54,.36,.65,.54,1.4,.54,2.26h0Zm-1.9-.58c-.01-.67-.25-1.21-.72-1.62-.47-.4-1.05-.61-1.74-.61-.63,0-1.17,.2-1.62,.61-.45,.39-.71,.93-.8,1.62h4.88Zm5.52-2.34c.27-.45,.62-.79,1.06-1.04,.45-.26,.97-.38,1.58-.38v1.89h-.46c-.72,0-1.26,.18-1.63,.54-.37,.36-.55,.99-.55,1.89v4.64h-1.82v-8.82h1.82v1.28Zm7.52,7.68c-.69,0-1.32-.12-1.87-.37-.55-.26-.98-.6-1.3-1.02-.31-.42-.49-.93-.51-1.46h1.89c.03,.37,.21,.69,.53,.94,.33,.25,.74,.37,1.23,.37s.9-.1,1.18-.29c.29-.2,.43-.46,.43-.77,0-.33-.16-.58-.48-.74-.31-.16-.8-.34-1.48-.53-.67-.18-1.2-.36-1.62-.53-.42-.17-.78-.43-1.09-.78-.3-.35-.45-.82-.45-1.39,0-.47,.14-.9,.42-1.28,.28-.39,.67-.7,1.18-.93,.53-.22,1.12-.34,1.8-.34,1,0,1.8,.26,2.41,.77,.62,.5,.95,1.19,.99,2.06h-1.82c-.02-.37-.19-.71-.48-.94-.29-.23-.68-.35-1.17-.35s-.85,.09-1.1,.27c-.26,.18-.39,.42-.39,.72,0,.23,.09,.43,.26,.59s.38,.29,.62,.38c.25,.09,.61,.2,1.09,.34,.64,.17,1.16,.35,1.57,.53,.42,.17,.77,.43,1.07,.77,.3,.34,.45,.8,.47,1.36,0,.5-.14,.95-.42,1.34-.28,.39-.67,.7-1.18,.93s-1.1,.34-1.78,.34h0Zm9.17,0c-.83,0-1.58-.19-2.26-.56-.66-.38-1.21-.93-1.58-1.6-.38-.69-.58-1.49-.58-2.4s.2-1.69,.6-2.38c.39-.69,.93-1.23,1.61-1.6,.68-.37,1.45-.56,2.29-.56s1.61,.19,2.29,.56c.68,.37,1.22,.91,1.61,1.6,.4,.69,.6,1.49,.6,2.38s-.21,1.69-.61,2.38c-.4,.68-.97,1.24-1.67,1.62-.69,.37-1.46,.56-2.3,.56Zm0-1.58c.47,0,.91-.11,1.31-.34,.42-.22,.75-.56,1.01-1.01s.38-.99,.38-1.63-.12-1.18-.36-1.62c-.25-.45-.57-.78-.98-1.01-.4-.22-.85-.34-1.31-.34-.47,0-.91,.11-1.31,.34s-.71,.56-.95,1.01c-.23,.44-.35,.98-.35,1.62,0,.95,.24,1.69,.72,2.21,.49,.51,1.1,.77,1.84,.77h0Zm10.83-7.52c.69,0,1.31,.14,1.85,.43,.56,.29,.99,.71,1.3,1.28,.31,.57,.46,1.25,.46,2.05v5.2h-1.8v-4.93c0-.79-.2-1.39-.6-1.81-.39-.43-.93-.64-1.61-.64s-1.23,.21-1.63,.64c-.4,.42-.6,1.02-.6,1.81v4.93h-1.82v-8.82h1.82v1.01c.3-.36,.68-.64,1.14-.85,.47-.2,.96-.3,1.49-.3h0Z"/>
</svg>