<?xml version="1.0" encoding="UTF-8"?>
<svg id="Layer_1" data-name="Layer 1" xmlns="http://www.w3.org/2000/svg" viewBox="0 0 650 371">
  <defs>
    <style>
      .cls-1 {
        fill: #020202;
      }

      .cls-2 {
        fill: none;
        stroke: #020202;
        stroke-dasharray: 0 0 5 5;
      }

      .cls-3 {
        fill: #ffd835;
        fill-rule: evenodd;
      }
    </style>
  </defs>
  <path class="cls-3" d="M647.22,3.52l.03-.34h-172.98c0,17.1-10.59,31.02-23.59,31.02S427.08,20.28,427.08,0H0V1.49l.71,.27,1.26,1.1,1.02,1.54,.76,3.96,.25,2.64s.26,.88,.51,3.08c.19,.76,.28,1.22,.35,1.62,.11,.65,.2,1.11,.67,2.34,.76,2.2,1.26,4.18,1.26,4.18l.26,.66-1.01,3.96-1.01,3.52s.26,4.84,.26,5.28c0,.22-.26,4.4-.26,4.4l-.76,4.4v1.98l-3.04,1.32-.25,.88s-.25,1.98-.25,2.64c.25,.66,.25,1.1,.25,1.1,0,0,.25,1.1,.5,1.98,.16,.27,.27,.42,.35,.53,.18,.25,.24,.32,.41,1.23,.26,1.1,.51,1.98,.76,2.2,.25,.22-.25,1.32-.25,1.32l.26,4.4,.51,2.64,.51,1.76-.76,1.1-.5,1.1-.25,1.32,.25,3.52-1.51,2.42-.25,5.72v1.54c0,.66-.5,1.54-.76,1.98-.25,.44,0,1.98,0,1.98l-.2,1.04v2.13l1.21,2.11s.5,4.62,.76,5.72c.25,1.1,0,1.54,0,1.54l-.76,5.72-1.01,2.42,1.77,3.08v.66l-.25,2.42v6.38l.25,2.2-1.01,1.54,.76,.22v1.54l.5,.66v3.3H1.21l-.76,2.42,1.77,4.18,.25,2.64-.51,2.86-1.77,.22L0,144.94v3.12l1.46,2.23-1.46,2.04v8.66l.2,.52v2.64l-.2,1.39v2.43l.45,2.56-.45,.52v26.15l.2,.61,.25,1.54,.5,.88,.5,.88,.51,.88,.76,1.32,.25,1.1-.26,2.2-.25,.66v3.08l.51,3.08s.51,1.98,1.01,2.86l1.01,1.76,.51,.22-.76,2.64-2.28,2.42,.25,1.98,.26,1.32-.26,.88-.51,1.98,.26,1.1,.51,1.32,.25,1.54v1.32l-.25,3.74-.51,2.2-.51,1.1s0,1.1,1.27,3.74c1.26,2.64,0,2.86,0,2.86l-2.78,6.6-.25,1.54,.25,1.1,.5,2.2-.25,1.1-.25,1.1,.25,1.1,.5,.44v2.64s-1.01,5.5-.76,5.94c.25,.44,.5,1.54,.5,1.54l.25,1.98,1.26,1.54,.25,1.1v2.64s.26,2.64,.26,3.52c.25,.88,0,2.64,0,2.64l-1.01,1.98-1.26,1.54v3.96s.75,1.54,.5,1.98c-.25,.22-.25,.88-.25,.88l-.5,2.2-.25,1.54L0,301.85v1.14c.57,.4,1.78,1.27,1.97,1.77l.76,.22,.25,1.32v1.32l.25,1.98s.26,.88,.26,1.32c0,.15,.22,.1,.45,.05,.11-.02,.22-.05,.31-.05,.25,0,.25,.44,1.26,1.1l-.76,1.32-1.01-.22-.51,.88-.51,1.32-.51,.88-.25,1.76-.76,2.2v4.4l.5,1.1-.76,2.42,2.03,3.08,.25,1.32,1.26,.88v3.96l-.51,.88-.25,3.52v.66l.51,.88v2.2l-.51,1.32-.76,2.2-.76,2.64,.51,1.32v1.54l-.76,4.18-.75,.88v2.42l.5,.88-.25,2.2-1.01-.44,.5,1.76,.5,4.62H427.08c0-17.1,10.59-31.02,23.59-31.02s23.59,13.92,23.59,31.02h175.73v-1.82l-.25-.17-1.26-9.68-.25-3.3,.25-1.98-.51-3.52-1.77-1.32,.51-1.98,1.26-1.32,1.26-1.98-.25-2.2-.51-1.32-1.27-2.64h-1.01l-1.26-2.42v-2.64l1.52,.22-.76-2.86-.25-2.86-.51-2.64,1.01-2.64,.76-1.98v-2.42l-.25-2.2,.25-2.2v-1.32l3.03-3.74,.25-.88v-1.09l-4.3-3.53-.76-6.16,1.01-3.08,1.26-2.42s0-3.3,.25-4.62c.25-1.32,1.27-.88,1.27-.88l.25-1.91-1.3-5.05,.55-3.17-2.02-1.76,.25-4.18-1.52-1.32-1.27-3.74,4.3-6.6v-2.42h1.26l-.2-7.89,.71-3.55v-4.62l-2.02-2.86,.25-3.74v-4.4l2.02,.22-.76-1.32-1.77-2.2,2.28-2.42-2.02-2.42,1.01-.22,.25-3.74h-1.27l-1.26-3.08,.25-3.74h-1.01v-2.2l-1.26-2.86,.25-2.42-1.52-1.1-1.52-3.08v-2.2l.25-2.2,.25-3.08,1.52,.22,.25-3.74,1.52-1.1,2.02-1.1,2.02-7.26-.76-2.64,1.26-2.64-2.53-2.86,2.53-5.28-.51-3.52-2.78-1.76-2.02-1.98s1.26-3.08,1.52-7.04c.25-3.96-3.03-11.66-3.03-11.66l2.28-3.08-1.77-5.28,1.01-2.2,.25-5.28v-2.42l2.28-1.54,.76-1.98,1.26-1.32v-2.42l.76-.66v-3.04l-.51-1.14h.51v-15.51c-.27-.46-.51-.78-.51-.78l.25-3.52-1.26-3.52,1.26-.88v-2.2l-1.26-1.32,.51-1.32,.76-2.64-.76-1.76,.25-1.32v-2.42l-1.01-2.64,.76-1.32-.76-3.74,1.77,.13v-11.85l-3.03-3.02,3.03-1.76-1.01-2.86v-2.64l1.01-.13v-5.63l-.91,1.25,.71-4.5,.2-4.62h-1.01v-2.2l-1.27-2.64,1.52-2.2-1.26-1.32,1.52-1.98-1.52-.66-.51-2.2,.76-2.42v-3.52l-.51-1.98,.76-2.2s-1.27,0-1.27,0Zm2.78,173.4v5.61l-.25-.55v-1.32l.25-2.42v-1.32h0ZM1.46,371l-1.46-.96v.96H1.46Z"/>
  <path class="cls-1" d="M69.89,78.65c-.09-.43-.25-.74-.48-.95-.23-.22-.56-.33-.98-.33-.65,0-1.13,.29-1.41,.86-.29,.56-.44,1.46-.45,2.69,.26-.41,.64-.74,1.09-.95,.5-.23,1.04-.35,1.59-.34,1.13,0,2.03,.36,2.71,1.07,.69,.71,1.03,1.7,1.03,2.98,0,.84-.17,1.57-.52,2.2-.33,.63-.85,1.15-1.48,1.48-.64,.36-1.41,.53-2.29,.53-1.77,0-3-.55-3.69-1.65-.69-1.11-1.03-2.71-1.03-4.78,0-2.18,.36-3.8,1.09-4.85,.74-1.07,1.91-1.6,3.52-1.6,.86,0,1.59,.17,2.17,.52,.6,.33,1.04,.78,1.35,1.33,.31,.55,.49,1.15,.55,1.81,0,0-2.74,0-2.74,0Zm-1.36,3.31c-.5,0-.91,.15-1.24,.45-.32,.29-.48,.7-.48,1.24s.15,.98,.45,1.29c.31,.31,.75,.46,1.31,.46,.51,0,.9-.15,1.19-.45,.3-.31,.45-.73,.45-1.26s-.14-.96-.43-1.27c-.29-.31-.7-.46-1.24-.46Zm13.01-2.38c.3-.46,.71-.83,1.19-1.08,.51-.28,1.1-.41,1.78-.41,.79,0,1.51,.2,2.15,.6,.64,.4,1.15,.98,1.52,1.72,.38,.75,.57,1.61,.57,2.6s-.19,1.86-.57,2.62c-.37,.75-.87,1.32-1.52,1.74-.65,.4-1.39,.61-2.15,.6-.67,0-1.26-.14-1.78-.41-.48-.25-.89-.62-1.19-1.07v5.92h-2.95v-14.18h2.95v1.36h0Zm4.21,3.42c0-.74-.21-1.31-.62-1.72-.39-.42-.93-.65-1.5-.64-.59,0-1.09,.21-1.5,.64-.4,.43-.6,1-.6,1.74s.2,1.31,.6,1.74c.41,.43,.91,.64,1.5,.64s1.09-.21,1.5-.64c.41-.44,.62-1.02,.62-1.75Zm7.5-7.92v12.74h-2.95v-12.74h2.95Zm1.55,7.92c0-.99,.18-1.85,.55-2.6,.38-.75,.89-1.32,1.54-1.72,.65-.4,1.39-.61,2.16-.6,.68,0,1.27,.14,1.78,.41,.52,.28,.91,.64,1.19,1.08v-1.36h2.95v9.6h-2.95v-1.36c-.29,.45-.69,.81-1.21,1.08-.51,.28-1.1,.41-1.78,.41-.76,0-1.5-.2-2.14-.6-.64-.41-1.15-.99-1.53-1.74-.37-.76-.55-1.63-.55-2.62h0Zm7.21,.02c0-.73-.21-1.31-.62-1.74-.38-.41-.92-.65-1.48-.64-.59,0-1.09,.21-1.5,.64-.4,.41-.6,.99-.6,1.72s.2,1.32,.6,1.75c.41,.43,.91,.64,1.5,.64s1.08-.21,1.48-.64c.41-.42,.62-1,.62-1.74Zm4.5,0c0-1,.2-1.87,.6-2.62,.39-.73,.99-1.32,1.71-1.72,.74-.4,1.58-.6,2.52-.6,1.21,0,2.21,.32,3.02,.95,.82,.63,1.35,1.52,1.6,2.67h-3.14c-.26-.74-.78-1.1-1.54-1.1-.54,0-.97,.21-1.29,.64-.32,.41-.48,1.01-.48,1.79s.16,1.38,.48,1.81c.32,.41,.75,.62,1.29,.62,.76,0,1.27-.37,1.54-1.1h3.14c-.25,1.12-.79,2.01-1.6,2.65-.82,.64-1.82,.96-3.02,.96-.94,0-1.78-.2-2.52-.6-.72-.4-1.31-1-1.71-1.72-.4-.75-.6-1.62-.6-2.62h0Zm20.1-.16c0,.28-.02,.56-.05,.86h-6.68c.05,.6,.24,1.06,.57,1.38,.35,.31,.76,.46,1.26,.46,.74,0,1.25-.31,1.54-.93h3.14c-.16,.63-.45,1.2-.88,1.71-.42,.51-.96,.92-1.57,1.19-.63,.29-1.34,.43-2.12,.43-.94,0-1.78-.2-2.52-.6-.73-.39-1.33-.99-1.72-1.72-.41-.75-.62-1.62-.62-2.62s.2-1.87,.6-2.62c.4-.73,1-1.33,1.72-1.72,.74-.4,1.58-.6,2.54-.6s1.76,.19,2.48,.58c.72,.39,1.29,.95,1.69,1.67,.41,.72,.62,1.57,.62,2.53Zm-3.02-.78c0-.5-.17-.91-.52-1.2-.35-.3-.78-.45-1.29-.45s-.91,.14-1.26,.43c-.33,.29-.54,.69-.62,1.22h3.69Zm-24.82,60.77h-8.7v8.7h8.7v-8.7h0Z"/>
  <path class="cls-2" d="M95.28,151.57v53.94"/>
  <path class="cls-1" d="M94.77,232.27c1.89,0,3.42-1.53,3.42-3.42s-1.53-3.42-3.42-3.42h0c-1.89,0-3.42,1.53-3.42,3.42s1.53,3.42,3.42,3.42Zm10.56,15.09c-.96-10.84-6.13-13-6.13-13,0,0-4.99-3-10.25,.82-3.41,3.1-4.19,7.84-4.73,12.41-.27,2.32,3.36,2.3,3.63,0,.32-2.73,.78-5.47,2.14-7.8v2.63s-.03,12.66-.03,12.66v10.04c0,1.08,.79,1.96,1.9,1.96s2.01-.88,2.01-1.96v-14.36h1.78v14.4c0,2.34,3.63,2.34,3.63,0v-10.09l.15-12.69c0-1.21,0-2.29,0-3.04,1.45,2.38,1.93,5.2,2.26,8.01,.27,2.3,3.91,2.32,3.63,0Zm-46.58,31.32v-1.83h3.72v12.8h-2.05v-10.97h-1.66Zm13.46,2.72c.35-.44,.82-.82,1.41-1.12s1.27-.46,2.02-.46c.86,0,1.64,.21,2.34,.63,.71,.41,1.3,1.01,1.68,1.74,.4,.75,.61,1.61,.61,2.58s-.2,1.84-.61,2.62c-.38,.74-.97,1.36-1.68,1.79-.71,.42-1.52,.64-2.34,.63-.75,0-1.42-.15-2-.44-.55-.28-1.03-.66-1.43-1.12v6.01h-2.04v-14.28h2.04v1.42Zm5.99,3.37c0-.67-.14-1.24-.43-1.72-.25-.47-.64-.85-1.11-1.11-.91-.51-2.02-.51-2.93,0-.46,.27-.85,.66-1.11,1.12-.27,.49-.41,1.07-.41,1.74s.14,1.25,.41,1.76c.29,.49,.66,.87,1.11,1.12,.91,.51,2.02,.51,2.93,0,.47-.27,.85-.68,1.11-1.16,.29-.5,.43-1.09,.43-1.76Zm13.11-.19c0,.36-.02,.69-.07,.98h-7.52c.06,.77,.35,1.39,.88,1.86,.52,.47,1.17,.7,1.93,.7,1.1,0,1.87-.45,2.32-1.35h2.2c-.3,.89-.84,1.62-1.62,2.2-.78,.56-1.74,.84-2.89,.84-.94,0-1.79-.2-2.54-.61-.73-.42-1.34-1.02-1.75-1.76-.42-.76-.63-1.64-.63-2.63s.2-1.87,.61-2.62c.4-.74,1-1.35,1.73-1.76,.75-.41,1.61-.61,2.57-.61s1.76,.2,2.48,.6c.72,.4,1.29,.96,1.7,1.69,.4,.71,.61,1.54,.61,2.48Zm-2.13-.63c-.01-.74-.28-1.33-.8-1.77-.53-.45-1.17-.67-1.95-.67-.7,0-1.3,.22-1.8,.67-.5,.43-.8,1.02-.89,1.77h5.45Zm6.17-2.56c.3-.49,.69-.87,1.18-1.14,.5-.28,1.09-.42,1.77-.42v2.07h-.52c-.8,0-1.41,.2-1.82,.6-.4,.4-.61,1.09-.61,2.07v5.09h-2.04v-9.67h2.04v1.4Zm8.39,8.43c-.77,0-1.47-.14-2.09-.4-.61-.28-1.09-.66-1.45-1.12-.35-.46-.55-1.02-.57-1.6h2.11c.04,.41,.23,.76,.59,1.04,.37,.27,.83,.4,1.38,.4s1.01-.11,1.32-.32c.32-.22,.48-.5,.48-.84,0-.36-.18-.63-.54-.81-.35-.18-.9-.37-1.66-.58-.61-.16-1.21-.35-1.8-.58-.47-.19-.88-.48-1.21-.86-.33-.39-.5-.9-.5-1.53,0-.52,.15-.98,.46-1.4,.31-.43,.75-.77,1.32-1.02,.58-.25,1.25-.37,2-.37,1.12,0,2.02,.28,2.7,.84,.69,.55,1.06,1.3,1.11,2.27h-2.04c-.04-.43-.21-.78-.54-1.04-.32-.26-.76-.39-1.3-.39s-.95,.1-1.23,.3c-.29,.2-.43,.46-.43,.79,0,.26,.1,.48,.29,.65,.19,.18,.42,.32,.7,.42,.28,.09,.68,.22,1.21,.37,.71,.19,1.3,.38,1.75,.58,.46,.19,.86,.47,1.2,.84,.33,.37,.51,.87,.52,1.49,0,.53-.16,1.05-.46,1.48-.31,.43-.75,.77-1.32,1.02-.56,.25-1.22,.37-1.98,.37h0Zm10.24,0c-.93,0-1.77-.2-2.52-.61-.74-.41-1.35-1.02-1.77-1.76-.43-.76-.64-1.64-.64-2.63s.22-1.86,.66-2.62c.42-.74,1.05-1.35,1.8-1.76,.76-.41,1.61-.61,2.56-.61s1.79,.2,2.55,.61c.76,.4,1.38,1.01,1.8,1.76,.44,.76,.66,1.63,.66,2.62s-.22,1.86-.68,2.62c-.44,.75-1.09,1.37-1.86,1.77-.77,.41-1.63,.61-2.57,.61h0Zm0-1.74c.53,0,1.01-.12,1.46-.37,.46-.25,.84-.61,1.13-1.11,.29-.49,.43-1.09,.43-1.79s-.14-1.29-.41-1.77c-.25-.47-.63-.85-1.09-1.11-.45-.25-.95-.37-1.46-.37-.52,0-1.01,.12-1.46,.37-.44,.25-.79,.61-1.05,1.11-.26,.48-.39,1.07-.39,1.77,0,1.04,.27,1.85,.8,2.42,.55,.56,1.23,.84,2.05,.84h0Zm12.09-8.25c.77,0,1.46,.16,2.07,.47,.61,.31,1.12,.8,1.45,1.4,.35,.62,.52,1.37,.52,2.25v5.71h-2.02v-5.41c0-.87-.22-1.53-.66-1.98-.44-.47-1.04-.7-1.8-.7s-1.37,.23-1.82,.7c-.44,.46-.66,1.12-.66,1.98v5.41h-2.04v-9.67h2.04v1.11c.34-.41,.78-.72,1.27-.93,.53-.22,1.09-.34,1.66-.33Zm46.88-202.18l-4.41,10.41h-3.07l4.46-10.08h-5.46v-2.53h8.49v2.2h0Zm8.24,2.13c.29-.45,.7-.81,1.21-1.09,.52-.28,1.12-.41,1.81-.41,.77,0,1.54,.2,2.2,.61,.66,.4,1.17,.98,1.55,1.73,.39,.75,.58,1.62,.58,2.61s-.19,1.87-.58,2.63c-.37,.75-.89,1.33-1.55,1.75-.66,.4-1.42,.61-2.2,.61-.68,0-1.28-.14-1.81-.42-.49-.25-.9-.62-1.21-1.07v5.95h-3.01v-14.25h3.01v1.37h0Zm4.29,3.44c0-.74-.21-1.32-.63-1.73-.41-.43-.92-.64-1.53-.64-.58,0-1.13,.22-1.53,.64-.41,.43-.62,1.01-.62,1.75s.21,1.32,.62,1.75c.42,.43,.93,.64,1.53,.64s1.11-.21,1.53-.64c.42-.44,.63-1.03,.63-1.76Zm7.64-7.96v12.8h-3.01v-12.8h3.01Zm1.58,7.96c0-.99,.19-1.86,.56-2.61,.39-.75,.91-1.33,1.56-1.73,.66-.4,1.42-.61,2.2-.61,.69,0,1.29,.14,1.81,.42,.53,.28,.93,.64,1.21,1.09v-1.37h3.01v9.65h-3.01v-1.37c-.29,.45-.7,.81-1.23,1.09-.52,.28-1.12,.41-1.81,.41-.77,0-1.52-.2-2.18-.61-.66-.42-1.18-1-1.56-1.75-.38-.76-.56-1.64-.56-2.63h0Zm7.35,.02c0-.74-.21-1.32-.63-1.75-.39-.42-.94-.65-1.51-.64-.6,0-1.11,.21-1.53,.64-.41,.42-.62,.99-.62,1.73s.21,1.33,.62,1.76c.42,.43,.93,.64,1.53,.64s1.1-.21,1.51-.64c.42-.43,.63-1.01,.63-1.75Zm4.58,0c0-1,.21-1.88,.62-2.63,.4-.73,1.01-1.33,1.74-1.73,.75-.4,1.6-.61,2.57-.61,1.23,0,2.26,.32,3.07,.95,.83,.63,1.38,1.53,1.63,2.68h-3.2c-.27-.74-.79-1.11-1.56-1.11-.55,0-.99,.21-1.32,.64-.33,.42-.49,1.01-.49,1.8s.16,1.39,.49,1.82c.33,.42,.77,.62,1.32,.62,.77,0,1.29-.37,1.56-1.11h3.2c-.26,1.13-.8,2.02-1.63,2.66-.83,.65-1.86,.97-3.07,.97-.96,0-1.82-.2-2.57-.61-.73-.4-1.34-1-1.74-1.73-.41-.75-.62-1.63-.62-2.63Zm20.48-.16c0,.28-.02,.57-.05,.86h-6.8c.05,.6,.24,1.06,.58,1.38,.35,.31,.78,.47,1.28,.47,.75,0,1.27-.31,1.56-.93h3.2c-.16,.63-.47,1.22-.9,1.71-.43,.52-.98,.92-1.6,1.19-.64,.29-1.36,.43-2.16,.43-.96,0-1.82-.2-2.57-.61-.74-.39-1.35-1-1.76-1.73-.42-.75-.63-1.63-.63-2.63s.21-1.88,.62-2.63c.41-.73,1.02-1.33,1.76-1.73,.75-.4,1.61-.61,2.58-.61s1.79,.2,2.53,.59c.73,.38,1.32,.96,1.72,1.68,.42,.73,.63,1.57,.63,2.54h0Zm-3.08-.78c0-.51-.18-.91-.53-1.21-.35-.3-.79-.45-1.32-.45s-.93,.14-1.28,.43c-.34,.29-.55,.7-.63,1.23h3.76Zm-24.77,60.83h-8.7v8.7h8.7v-8.7Z"/>
  <path class="cls-2" d="M195.76,151.83v53.95"/>
  <path d="M185.95,239.51h0c0-1.36,.55-2.66,1.52-3.6-.46-.18-.95-.27-1.44-.27h-8.68c-2.13,0-3.87,1.71-3.88,3.81v11.87c0,.89,.72,1.62,1.62,1.62s1.62-.72,1.62-1.62v-11.86c.01-.43,.36-.59,.69-.59,0,8.48,0,19.28,0,27.76,0,1.07,.87,1.94,1.94,1.94s1.94-.87,1.94-1.94v-15.5h.84v15.5c0,1.07,.87,1.94,1.94,1.94,1,0,1.9-.76,1.9-1.94v-27.12Zm-2.97-5.2c1.73-.67,2.58-2.61,1.92-4.33-.67-1.73-2.61-2.58-4.33-1.92-.05,.02-.1,.04-.15,.06-1.69,.75-2.45,2.73-1.7,4.42,.72,1.63,2.6,2.41,4.27,1.77Z"/>
  <path d="M199.65,239.52h0c0-1.34,.53-2.61,1.47-3.56-.44-.17-.92-.26-1.39-.26h-8.68c-.93,0-1.79,.33-2.47,.88-.88,.72-1.4,1.79-1.41,2.93v11.87c.02,.89,.76,1.6,1.66,1.58,.86-.02,1.55-.71,1.58-1.58,0-7.74,0-11.87,0-11.92,.02-.59,.66-.53,.66-.53v27.76c0,1.07,.89,1.94,1.97,1.94s1.94-.87,1.94-1.94v-15.5h.84v15.5c0,1.07,.87,1.94,1.94,1.94,1.07,0,1.9-.87,1.9-1.94,0,0,.02-14.88,0-27.18h0s0,0,0,0Zm-4.18-4.88c1.85-.04,3.32-1.57,3.28-3.42s-1.57-3.32-3.42-3.28h0c-1.85,.04-3.32,1.57-3.28,3.42s1.57,3.32,3.42,3.28Z"/>
  <path d="M217.31,239.51c-.01-2.1-1.75-3.8-3.88-3.8h-8.68c-.91,0-1.8,.32-2.51,.91-.86,.72-1.37,1.78-1.37,2.9v11.87c.03,.89,.78,1.59,1.67,1.56,.85-.03,1.53-.71,1.56-1.56v-11.86c0-.3,.34-.59,.68-.59v27.76c0,1.07,.88,1.94,1.95,1.94,.06,0,.13,0,.19-.01,.99-.1,1.74-.94,1.74-1.93v-15.5h.84v15.5c0,1.07,.87,1.94,1.94,1.94h0c1.07,0,1.95-.87,1.95-1.94,0-3.33,0-23.3,0-27.76,.35,0,.68,.29,.68,.58v11.87c0,.89,.72,1.62,1.62,1.62,.89,0,1.61-.73,1.62-1.62v-11.88Zm-8.22-4.87c1.85,0,3.35-1.5,3.35-3.35s-1.5-3.35-3.35-3.35-3.35,1.5-3.35,3.35,1.5,3.35,3.35,3.35Z"/>
  <path class="cls-1" d="M154,280.72v-1.82h3.67v12.78h-2.03v-10.95h-1.64Zm14.73-.11h-5.91v3.49c.25-.33,.61-.6,1.09-.82,.49-.22,1.03-.34,1.57-.33,.99,0,1.79,.21,2.4,.63,.62,.42,1.07,.95,1.32,1.6,.27,.64,.41,1.32,.41,2.03,0,.86-.17,1.64-.51,2.31-.33,.67-.85,1.22-1.5,1.58-.66,.39-1.47,.58-2.44,.58-1.28,0-2.31-.32-3.09-.95-.78-.63-1.24-1.47-1.4-2.51h1.96c.13,.55,.42,.99,.87,1.32,.45,.32,1.01,.47,1.68,.47,.84,0,1.46-.25,1.87-.75,.42-.5,.63-1.17,.63-2s-.21-1.48-.63-1.93c-.42-.46-1.05-.68-1.87-.68-.58,0-1.07,.15-1.46,.44-.39,.29-.69,.69-.85,1.16h-1.91v-7.38h7.77v1.75h0Zm9.84,2.82c.34-.44,.81-.82,1.4-1.12,.59-.3,1.25-.46,1.99-.46,.85,0,1.62,.21,2.31,.63,.71,.41,1.28,1.01,1.66,1.73,.4,.75,.6,1.61,.6,2.58s-.2,1.84-.6,2.61c-.38,.74-.95,1.35-1.66,1.79-.7,.42-1.5,.64-2.31,.63-.74,0-1.4-.14-1.98-.44-.54-.28-1.02-.66-1.41-1.12v5.99h-2.01v-14.25h2.01v1.42Zm5.91,3.36c0-.67-.14-1.24-.42-1.72-.25-.47-.63-.85-1.1-1.1-.9-.51-2-.51-2.9,0-.45,.26-.81,.63-1.1,1.12-.27,.49-.41,1.07-.41,1.73s.14,1.25,.41,1.75c.28,.49,.65,.86,1.1,1.12,.9,.51,2,.51,2.9,0,.47-.28,.85-.68,1.1-1.16,.28-.5,.42-1.09,.42-1.75h0Zm12.95-.19c0,.36-.02,.69-.07,.98h-7.43c.06,.77,.35,1.39,.87,1.86,.52,.47,1.15,.7,1.91,.7,1.08,0,1.85-.45,2.29-1.35h2.17c-.29,.88-.85,1.65-1.61,2.19-.76,.56-1.72,.84-2.86,.84-.93,0-1.76-.2-2.51-.61-.72-.42-1.32-1.02-1.73-1.75-.41-.76-.62-1.64-.62-2.63s.2-1.86,.6-2.61c.39-.74,.99-1.35,1.71-1.75,.74-.41,1.59-.61,2.54-.61s1.74,.2,2.45,.6c.71,.39,1.29,.97,1.68,1.68,.4,.71,.6,1.54,.6,2.47h0Zm-2.1-.63c-.01-.74-.28-1.33-.79-1.77-.52-.44-1.16-.67-1.92-.67-.69,0-1.29,.22-1.78,.67-.49,.43-.79,1.02-.88,1.77h5.38Zm6.09-2.56c.28-.48,.68-.87,1.16-1.14,.49-.28,1.08-.42,1.75-.42v2.07h-.51c-.79,0-1.39,.2-1.8,.6-.4,.4-.6,1.09-.6,2.07v5.08h-2.01v-9.66h2.01v1.4Zm8.29,8.41c-.76,0-1.45-.13-2.07-.4-.6-.28-1.08-.65-1.43-1.12-.35-.46-.54-1.02-.57-1.6h2.08c.04,.41,.23,.75,.58,1.03,.36,.27,.82,.4,1.36,.4s1-.11,1.31-.32c.32-.22,.48-.5,.48-.84,0-.36-.18-.63-.53-.81-.34-.17-.89-.37-1.64-.58-.61-.16-1.2-.35-1.78-.58-.46-.19-.87-.48-1.2-.86-.33-.39-.49-.89-.49-1.52,0-.51,.15-.98,.46-1.4,.3-.43,.74-.77,1.31-1.02,.58-.24,1.24-.37,1.98-.37,1.11,0,1.99,.28,2.67,.84,.68,.55,1.05,1.3,1.1,2.26h-2.01c-.04-.43-.21-.78-.53-1.03-.32-.26-.75-.39-1.29-.39s-.94,.1-1.22,.3c-.28,.2-.42,.46-.42,.79,0,.25,.1,.48,.28,.65,.2,.18,.43,.33,.69,.42,.27,.09,.67,.22,1.2,.37,.71,.19,1.28,.38,1.73,.58,.46,.19,.85,.47,1.18,.84,.33,.37,.5,.87,.51,1.49,0,.55-.15,1.04-.46,1.47-.31,.43-.74,.77-1.31,1.02-.55,.25-1.21,.37-1.96,.37h0Zm10.12,0c-.92,0-1.75-.2-2.49-.61-.73-.41-1.34-1.02-1.75-1.75-.42-.76-.64-1.64-.64-2.63s.22-1.85,.65-2.61c.42-.74,1.03-1.35,1.78-1.75,.75-.41,1.6-.61,2.52-.61s1.77,.2,2.52,.61c.75,.4,1.37,1.01,1.78,1.75,.43,.76,.65,1.63,.65,2.61s-.22,1.85-.67,2.61c-.44,.75-1.07,1.36-1.84,1.77-.77,.41-1.61,.61-2.54,.61h0Zm0-1.73c.52,0,1-.12,1.45-.37,.46-.24,.83-.61,1.11-1.1,.28-.49,.42-1.09,.42-1.79s-.13-1.29-.41-1.77c-.27-.49-.63-.86-1.08-1.1-.44-.24-.94-.37-1.45-.37-.52,0-1,.12-1.45,.37-.44,.24-.78,.61-1.04,1.1-.26,.48-.39,1.07-.39,1.77,0,1.04,.26,1.85,.79,2.42,.54,.56,1.22,.84,2.03,.84Zm11.95-8.24c.76,0,1.45,.16,2.05,.47,.61,.31,1.11,.8,1.43,1.4,.34,.62,.51,1.37,.51,2.24v5.7h-1.99v-5.4c0-.86-.22-1.52-.65-1.98-.44-.47-1.03-.7-1.78-.7s-1.35,.23-1.8,.7c-.43,.46-.65,1.12-.65,1.98v5.4h-2.01v-9.66h2.01v1.1c.34-.4,.77-.72,1.25-.93,.52-.22,1.08-.34,1.64-.33h0Zm42.35-200.52c-1.11-.57-1.66-1.47-1.66-2.7,0-.62,.17-1.18,.5-1.69,.33-.52,.83-.92,1.5-1.22,.67-.31,1.49-.46,2.47-.46s1.8,.15,2.45,.46c.67,.3,1.17,.71,1.5,1.22,.33,.5,.5,1.09,.5,1.69,0,.62-.15,1.16-.45,1.62-.3,.46-.71,.84-1.2,1.08,.63,.3,1.12,.71,1.45,1.24,.34,.52,.52,1.12,.52,1.82,0,.81-.21,1.52-.64,2.12-.42,.58-.99,1.03-1.72,1.34-.73,.31-1.52,.46-2.4,.46s-1.69-.15-2.41-.46c-.72-.31-1.29-.76-1.71-1.34-.43-.6-.64-1.3-.64-2.12,0-.71,.17-1.33,.51-1.84,.34-.53,.83-.93,1.45-1.22h0Zm4.32-2.25c0-.47-.14-.83-.43-1.08-.26-.26-.63-.39-1.09-.39s-.83,.13-1.11,.39c-.27,.26-.41,.63-.41,1.1s.14,.8,.43,1.07c.27,.25,.64,.38,1.09,.38s.82-.13,1.09-.4c.29-.26,.43-.62,.43-1.07Zm-1.52,3.53c-.55,0-1,.15-1.35,.45-.34,.29-.51,.69-.51,1.21,0,.48,.17,.88,.5,1.19,.34,.31,.79,.46,1.36,.46s1-.15,1.32-.46c.33-.31,.5-.71,.5-1.19s-.18-.91-.52-1.21c-.33-.3-.76-.45-1.3-.45Zm13.56-2.77c.31-.46,.72-.83,1.21-1.08,.52-.28,1.12-.41,1.82-.41,.82,0,1.54,.2,2.2,.6,.66,.4,1.18,.98,1.55,1.72,.39,.75,.58,1.61,.58,2.6s-.2,1.86-.58,2.62c-.37,.75-.89,1.32-1.55,1.74-.66,.4-1.43,.61-2.2,.6-.68,0-1.29-.14-1.82-.41-.49-.25-.9-.62-1.21-1.07v5.92h-3.02v-14.18h3.02v1.36h0Zm4.3,3.43c0-.73-.21-1.31-.63-1.72-.4-.42-.96-.65-1.54-.64-.58,0-1.13,.22-1.53,.64-.41,.43-.62,1-.62,1.74s.21,1.31,.62,1.74c.4,.41,.96,.64,1.53,.64,.61,0,1.11-.21,1.54-.64,.42-.44,.63-1.02,.63-1.76Zm7.67-7.92v12.74h-3.02v-12.74s3.02,0,3.02,0Zm1.59,7.92c0-.99,.19-1.85,.56-2.6,.39-.75,.92-1.32,1.57-1.72,.66-.4,1.43-.61,2.2-.6,.69,0,1.3,.14,1.82,.41,.53,.28,.94,.64,1.21,1.08v-1.36h3.02v9.6h-3.02v-1.36c-.29,.45-.7,.81-1.23,1.08-.51,.28-1.11,.41-1.81,.41-.8,0-1.53-.2-2.19-.6-.67-.43-1.21-1.03-1.57-1.74-.38-.76-.56-1.63-.56-2.62Zm7.36,.02c0-.74-.21-1.31-.63-1.74-.41-.42-.92-.64-1.52-.64s-1.11,.21-1.53,.64c-.41,.41-.62,.99-.62,1.72s.21,1.32,.62,1.76c.42,.43,.94,.64,1.53,.64s1.11-.21,1.52-.64c.42-.43,.63-1,.63-1.74Zm4.61,0c0-1,.2-1.87,.62-2.62,.4-.73,1.01-1.33,1.74-1.72,.75-.4,1.61-.6,2.58-.6,1.23,0,2.26,.32,3.08,.95,.83,.63,1.38,1.52,1.63,2.67h-3.21c-.26-.73-.79-1.1-1.57-1.1-.55,0-.99,.21-1.32,.64-.33,.41-.5,1.01-.5,1.79s.17,1.38,.5,1.81c.33,.41,.77,.62,1.32,.62,.77,0,1.3-.37,1.57-1.1h3.21c-.25,1.12-.8,2.01-1.63,2.65-.84,.64-1.86,.96-3.08,.96-.97,0-1.83-.2-2.58-.6-.73-.4-1.34-.99-1.74-1.72-.42-.75-.62-1.62-.62-2.62h0Zm20.54-.16c0,.28-.01,.56-.04,.86h-6.83c.05,.6,.24,1.06,.58,1.38,.35,.31,.78,.46,1.29,.46,.75,0,1.28-.31,1.57-.93h3.22c-.17,.63-.48,1.21-.9,1.71-.42,.5-.96,.9-1.61,1.19-.64,.29-1.37,.43-2.16,.43-.97,0-1.83-.2-2.58-.6-.74-.39-1.35-.99-1.76-1.72-.42-.75-.64-1.62-.64-2.62s.21-1.87,.62-2.62c.41-.73,1.02-1.33,1.76-1.72,.76-.4,1.62-.6,2.6-.6s1.8,.19,2.54,.58,1.31,.95,1.73,1.67c.42,.72,.63,1.57,.63,2.53Zm-3.08-.78c0-.5-.18-.91-.53-1.21-.35-.3-.79-.45-1.32-.45s-.92,.14-1.28,.43c-.34,.29-.56,.69-.64,1.22h3.77Zm-24.76,60.78h-8.7v8.7h8.7v-8.7Z"/>
  <path class="cls-2" d="M303.5,151.83v53.95"/>
  <path d="M294.1,239.51h0c0-1.41,.57-2.68,1.51-3.6-.46-.18-.94-.27-1.44-.27h-8.68c-2.13,0-3.87,1.71-3.88,3.81v11.87c0,.9,.72,1.62,1.61,1.62s1.62-.73,1.62-1.62v-11.86c.01-.43,.36-.59,.69-.59-.01,8.48,0,19.28,0,27.76,0,1.08,.89,1.94,1.94,1.94s1.94-.87,1.94-1.94v-15.5h.83v15.5c0,1.07,.88,1.94,1.94,1.94s1.91-.76,1.91-1.94v-27.12h0Zm-2.98-5.2c1.71-.71,2.52-2.67,1.82-4.38-.71-1.71-2.67-2.52-4.38-1.81-1.71,.71-2.52,2.66-1.81,4.37,0,0,0,0,0,0,.71,1.71,2.66,2.52,4.37,1.81,0,0,0,0,0,0h0Z"/>
  <path d="M307.8,239.52h0c0-1.39,.55-2.64,1.47-3.56-.45-.17-.92-.25-1.39-.26h-8.68c-.92,0-1.79,.33-2.47,.88-.89,.71-1.41,1.79-1.41,2.93v11.87c.02,.89,.76,1.6,1.66,1.58,.86-.02,1.55-.71,1.58-1.58v-11.92c.02-.59,.66-.53,.66-.53v27.76c0,1.07,.9,1.94,1.97,1.94s1.94-.87,1.94-1.94v-15.5h.83v15.5c0,1.07,.87,1.94,1.94,1.94s1.91-.87,1.91-1.94c0,0,.02-14.88,0-27.18h0s0,0,0,0Zm-4.19-4.88c1.85-.04,3.32-1.57,3.28-3.42,0,0,0,0,0,0-.04-1.85-1.57-3.31-3.42-3.28,0,0,0,0,0,0-1.85,.04-3.32,1.57-3.28,3.42,0,0,0,0,0,0,.04,1.85,1.57,3.31,3.42,3.27Z"/>
  <path d="M325.46,239.51c-.01-2.1-1.75-3.8-3.88-3.8h-8.68c-.91,0-1.8,.32-2.51,.91-.86,.72-1.37,1.78-1.37,2.9v11.87c0,.89,.72,1.61,1.61,1.62,.89,0,1.62-.72,1.62-1.62v-11.86c0-.3,.33-.59,.68-.59v27.76c0,1.08,.88,1.95,1.96,1.94,.06,0,.12,0,.19-.01,.99-.1,1.74-.93,1.74-1.93v-15.5h.83v15.5c0,1.07,.87,1.94,1.94,1.94,1.07,0,1.95-.87,1.95-1.94-.01-3.33,0-23.3,0-27.76,.35,0,.68,.29,.68,.58v11.87c0,.89,.72,1.62,1.62,1.62s1.61-.74,1.61-1.62v-11.88h0Zm-8.22-4.87c1.85,0,3.34-1.5,3.34-3.34h0c0-1.86-1.49-3.36-3.34-3.36-1.85-.03-3.38,1.44-3.41,3.29-.03,1.85,1.44,3.38,3.29,3.41,.04,0,.08,0,.12,0Z"/>
  <path class="cls-1" d="M268.11,280.78h-5.95v3.45c.24-.32,.61-.59,1.1-.81,.5-.22,1.02-.33,1.58-.33,1,0,1.8,.21,2.42,.62,.62,.42,1.07,.94,1.33,1.58,.27,.64,.41,1.3,.41,2.01,0,.86-.18,1.62-.52,2.29-.33,.66-.86,1.21-1.51,1.56-.66,.38-1.48,.57-2.45,.57-1.3,0-2.33-.31-3.11-.94-.79-.62-1.26-1.45-1.41-2.48h1.98c.12,.54,.42,.98,.87,1.3,.46,.31,1.01,.47,1.69,.47,.84,0,1.47-.25,1.89-.74s.63-1.16,.63-1.98-.21-1.47-.63-1.91c-.43-.45-1.05-.68-1.89-.68-.58,0-1.07,.14-1.48,.43-.39,.28-.67,.66-.84,1.14h-1.92v-7.3h7.82v1.73h0Zm3,4.45c0-2,.35-3.56,1.02-4.68,.7-1.13,1.9-1.7,3.6-1.7s2.88,.57,3.57,1.7c.7,1.12,1.05,2.68,1.05,4.68s-.36,3.61-1.05,4.75c-.69,1.13-1.88,1.7-3.57,1.7s-2.9-.57-3.6-1.7c-.68-1.14-1.02-2.73-1.02-4.75Zm7.24,0c0-.94-.06-1.73-.19-2.38-.12-.65-.37-1.17-.74-1.58-.39-.42-.94-.62-1.69-.62s-1.31,.21-1.69,.62c-.39,.4-.63,.93-.77,1.58-.12,.65-.18,1.44-.18,2.38s.05,1.79,.18,2.44c.11,.66,.37,1.19,.74,1.59,.39,.4,.95,.61,1.71,.61s1.3-.2,1.69-.61c.39-.4,.64-.94,.76-1.59,.12-.66,.18-1.47,.18-2.44h0Zm11.05-1.66c.35-.44,.81-.81,1.4-1.11,.59-.3,1.27-.45,2.01-.45,.86,0,1.63,.21,2.32,.62,.71,.4,1.29,1,1.68,1.72,.4,.74,.6,1.59,.6,2.55s-.2,1.82-.6,2.58c-.4,.75-.97,1.34-1.68,1.77-.69,.42-1.47,.62-2.32,.62-.74,0-1.41-.14-1.99-.43-.54-.27-1.03-.65-1.42-1.11v5.93h-2.03v-14.09h2.03v1.4h0Zm5.95,3.33c0-.66-.14-1.23-.43-1.7-.25-.47-.63-.85-1.1-1.09-.44-.25-.95-.38-1.46-.38-.51,0-1,.13-1.45,.38-.46,.26-.85,.65-1.11,1.11-.27,.49-.4,1.06-.4,1.72s.13,1.24,.4,1.73c.26,.46,.65,.85,1.11,1.11,.46,.25,.94,.38,1.45,.38s1.01-.13,1.46-.38c.47-.27,.85-.67,1.1-1.14,.29-.5,.43-1.08,.43-1.73h0Zm13.04-.19c0,.36-.03,.68-.08,.97h-7.48c.05,.76,.34,1.37,.87,1.84,.52,.46,1.17,.69,1.92,.69,1.09,0,1.86-.45,2.31-1.33h2.19c-.3,.88-.84,1.6-1.62,2.17-.77,.55-1.73,.83-2.88,.83-.93,0-1.78-.2-2.52-.61-.73-.4-1.33-1-1.74-1.73-.42-.75-.62-1.62-.62-2.6s.2-1.84,.6-2.58c.42-.75,.99-1.33,1.72-1.73,.76-.4,1.6-.61,2.57-.61s1.74,.2,2.47,.59c.71,.38,1.3,.96,1.69,1.66,.4,.7,.61,1.52,.61,2.44h0Zm-2.12-.62c-.01-.73-.28-1.31-.8-1.75-.52-.44-1.17-.66-1.93-.66-.7,0-1.3,.22-1.8,.66-.5,.43-.79,1.01-.89,1.75h5.42Zm6.14-2.53c.28-.48,.68-.86,1.17-1.13,.5-.28,1.09-.42,1.77-.42v2.05h-.52c-.79,0-1.4,.2-1.81,.59-.4,.39-.6,1.08-.6,2.05v5.03h-2.03v-9.55h2.03v1.39h0Zm8.34,8.32c-.77,0-1.47-.13-2.08-.4-.6-.28-1.09-.65-1.44-1.11-.35-.45-.55-1.01-.57-1.58h2.1c.03,.4,.23,.74,.59,1.02,.37,.27,.82,.4,1.37,.4s1.01-.1,1.31-.31c.32-.22,.49-.5,.49-.83,0-.36-.18-.62-.53-.8-.34-.17-.9-.36-1.65-.57-.61-.16-1.21-.35-1.8-.57-.46-.19-.88-.48-1.21-.85-.32-.38-.49-.88-.49-1.51,0-.51,.14-.97,.46-1.39,.31-.43,.74-.76,1.32-1.01,.58-.24,1.24-.36,1.99-.36,1.11,0,2.01,.28,2.68,.83,.69,.54,1.05,1.29,1.11,2.24h-2.03c-.02-.4-.22-.78-.53-1.02-.32-.25-.76-.38-1.3-.38s-.93,.1-1.22,.29c-.27,.17-.43,.46-.42,.78,0,.26,.09,.47,.28,.64,.19,.17,.42,.31,.7,.42,.27,.09,.67,.21,1.2,.36,.71,.18,1.3,.38,1.74,.57,.47,.18,.87,.46,1.19,.83,.33,.37,.51,.86,.52,1.47,0,.54-.16,1.03-.47,1.46-.31,.43-.74,.76-1.31,1.01-.55,.24-1.22,.36-1.98,.36h0Zm10.19,0c-.92,0-1.76-.2-2.5-.61-.74-.4-1.35-1-1.77-1.73-.42-.75-.63-1.62-.63-2.6s.21-1.83,.65-2.58c.42-.74,1.04-1.34,1.79-1.73,.77-.4,1.61-.61,2.54-.61s1.79,.2,2.54,.61c.75,.4,1.37,1,1.8,1.73,.43,.75,.65,1.61,.65,2.58s-.22,1.83-.68,2.58c-.44,.74-1.08,1.35-1.84,1.75-.78,.4-1.62,.61-2.57,.61Zm0-1.72c.52,0,1.01-.12,1.45-.36,.47-.25,.86-.63,1.12-1.09,.29-.48,.43-1.07,.43-1.77s-.14-1.28-.41-1.75c-.28-.49-.63-.85-1.09-1.09-.45-.24-.95-.37-1.45-.36-.52,0-1.01,.12-1.46,.36-.44,.24-.79,.61-1.05,1.09-.26,.47-.39,1.06-.39,1.75,0,1.03,.27,1.83,.8,2.39,.54,.55,1.23,.83,2.04,.83h0Zm12.03-8.15c.77,0,1.46,.16,2.07,.47,.61,.31,1.11,.79,1.43,1.39,.34,.61,.52,1.35,.52,2.22v5.63h-2.01v-5.34c0-.86-.22-1.51-.65-1.96-.45-.46-1.05-.69-1.8-.69s-1.37,.23-1.81,.69c-.44,.45-.65,1.1-.65,1.96v5.34h-2.03v-9.55h2.03v1.09c.34-.4,.77-.72,1.26-.92,.52-.22,1.09-.33,1.65-.33h0Zm46.74-196.68c.17,1,.71,1.49,1.6,1.49,.61,0,1.04-.3,1.3-.89,.25-.59,.38-1.56,.38-2.89-.26,.39-.61,.69-1.04,.91-.46,.22-.96,.33-1.47,.32-.73,0-1.39-.16-1.98-.49-.57-.34-1.03-.84-1.36-1.49-.32-.67-.49-1.47-.49-2.42s.17-1.74,.52-2.44c.34-.67,.86-1.23,1.5-1.61,.66-.38,1.44-.57,2.33-.57,1.71,0,2.9,.58,3.58,1.74,.68,1.16,1.02,2.87,1.02,5.12,0,1.64-.13,2.99-.41,4.06-.26,1.06-.72,1.86-1.36,2.42s-1.51,.83-2.62,.83c-.88,0-1.62-.19-2.25-.57-.59-.36-1.08-.88-1.42-1.49-.33-.63-.52-1.33-.55-2.04h2.72Zm1.44-3.61c.49,0,.88-.16,1.16-.47,.29-.33,.43-.77,.43-1.32,0-.61-.14-1.07-.44-1.4-.3-.33-.7-.49-1.21-.49s-.91,.17-1.21,.51c-.29,.33-.43,.78-.43,1.36,0,.54,.14,.98,.43,1.32,.3,.33,.73,.49,1.28,.49h0Zm12.94-1.4c.29-.49,.71-.9,1.2-1.19,.51-.3,1.1-.45,1.78-.45,.79,0,1.51,.22,2.16,.66,.64,.44,1.15,1.07,1.51,1.89,.39,.82,.57,1.77,.57,2.85s-.18,2.04-.57,2.87c-.37,.82-.88,1.46-1.51,1.91-.64,.44-1.39,.67-2.16,.66-.67,0-1.27-.15-1.78-.45-.49-.29-.9-.69-1.2-1.17v6.5h-2.95v-15.57h2.95v1.49Zm4.23,3.76c0-.81-.2-1.44-.63-1.89-.4-.46-.91-.7-1.5-.7s-1.09,.23-1.5,.7c-.41,.47-.61,1.1-.61,1.91s.19,1.44,.61,1.91c.41,.47,.92,.7,1.5,.7s1.09-.23,1.5-.7c.42-.48,.63-1.12,.63-1.93Zm7.51-8.69v13.98h-2.95v-13.98h2.95Zm1.56,8.69c0-1.08,.18-2.03,.55-2.85,.39-.82,.9-1.45,1.55-1.89,.63-.44,1.39-.67,2.16-.66,.68,0,1.28,.15,1.78,.45,.52,.3,.91,.7,1.19,1.19v-1.49h2.96v10.54h-2.96v-1.49c-.29,.49-.71,.9-1.21,1.19-.51,.3-1.1,.45-1.78,.45-.78,0-1.5-.22-2.14-.66-.65-.45-1.16-1.09-1.55-1.91-.37-.83-.55-1.79-.55-2.87Zm7.23,.02c0-.81-.21-1.44-.63-1.91-.4-.46-.9-.7-1.48-.7s-1.09,.23-1.5,.7c-.41,.45-.61,1.08-.61,1.89s.2,1.45,.61,1.93c.41,.47,.91,.7,1.5,.7s1.08-.23,1.48-.7c.42-.46,.63-1.1,.63-1.91h0Zm4.51,0c0-1.1,.21-2.05,.61-2.87,.41-.82,.98-1.45,1.71-1.89,.75-.44,1.59-.66,2.53-.66,1.21,0,2.22,.35,3.03,1.04,.82,.69,1.35,1.67,1.61,2.93h-3.15c-.27-.81-.78-1.21-1.55-1.21-.54,0-.97,.23-1.3,.7-.33,.45-.49,1.11-.49,1.96s.16,1.52,.49,1.98c.32,.45,.76,.68,1.3,.68,.77,0,1.28-.4,1.55-1.21h3.15c-.26,1.24-.79,2.21-1.61,2.91-.82,.71-1.83,1.06-3.03,1.06-.94,0-1.78-.22-2.53-.66-.72-.44-1.3-1.07-1.71-1.89-.4-.82-.61-1.78-.61-2.87h0Zm20.17-.17c0,.3-.02,.62-.05,.94h-6.69c.04,.65,.24,1.16,.57,1.51,.35,.34,.77,.51,1.25,.51,.75,0,1.26-.34,1.55-1.02h3.15c-.15,.68-.46,1.32-.89,1.87-.41,.56-.94,.99-1.57,1.3-.64,.32-1.34,.47-2.13,.47-.94,0-1.78-.22-2.53-.66-.74-.44-1.31-1.07-1.73-1.89-.41-.82-.62-1.78-.62-2.87s.2-2.05,.61-2.87c.38-.78,.98-1.44,1.73-1.89,.73-.44,1.58-.66,2.54-.66s1.76,.21,2.49,.64c.74,.43,1.3,1.04,1.7,1.83,.42,.79,.63,1.72,.63,2.78h0Zm-3.03-.85c0-.56-.17-1-.52-1.32-.35-.33-.78-.49-1.3-.49s-.92,.16-1.27,.47c-.33,.32-.54,.76-.63,1.34h3.71Zm-24.82,61.78h-8.7v8.7h8.7v-8.7Z"/>
  <path class="cls-2" d="M417.98,153.57v53.94"/>
  <path class="cls-1" d="M421.74,239.18h0c0-1.34,.52-2.62,1.47-3.57-.44-.17-.91-.26-1.39-.26h-8.66c-.92,0-1.78,.33-2.46,.88-.89,.72-1.41,1.8-1.41,2.95v11.92c0,.74,.49,1.36,1.16,1.56,.86,.25,1.75-.24,2-1.1,.04-.15,.07-.3,.06-.46v-11.97c.02-.6,.66-.53,.66-.53v27.87c0,1.08,.9,1.95,1.97,1.95,1.07,0,1.94-.87,1.94-1.94h0v-15.57h.83v15.56c0,1.07,.86,1.94,1.93,1.95h0c1.07,0,1.9-.87,1.9-1.95,0,0,.02-14.94,0-27.29h0Z"/>
  <path class="cls-1" d="M418.06,235.35c1.92-.04,3.45-1.63,3.41-3.55,0,0,0,0,0,0-.04-1.92-1.63-3.45-3.55-3.4-1.92,.04-3.44,1.63-3.41,3.55,0,0,0,0,0,0,.04,1.92,1.63,3.44,3.55,3.4h0Zm-10.29,3.89h0c.01-1.41,.57-2.69,1.52-3.61-.45-.18-.94-.27-1.43-.28h-8.63c-2.12,0-3.84,1.71-3.86,3.83v11.92c0,.9,.72,1.62,1.6,1.62s1.6-.73,1.6-1.62v-11.91c.02-.43,.36-.59,.7-.59-.01,8.51,0,19.36,0,27.87,0,1.09,.87,1.95,1.93,1.95,1.07,0,1.93-.88,1.93-1.95v-15.57h.83v15.57c0,1.08,.86,1.95,1.93,1.95,.99,0,1.89-.76,1.89-1.95v-27.23h0Z"/>
  <path class="cls-1" d="M405.4,235.09c1.77-.73,2.62-2.77,1.88-4.54,0,0,0,0,0,0-.73-1.77-2.76-2.62-4.54-1.89,0,0,0,0,0,0-1.77,.73-2.62,2.76-1.88,4.54,0,0,0,0,0,.01,.73,1.77,2.77,2.62,4.54,1.88h0s0,0,0,0Zm-11.55,4.16h0c.01-1.41,.57-2.69,1.52-3.61-.45-.18-.94-.27-1.43-.28h-8.63c-2.12,0-3.84,1.71-3.86,3.83v11.92c0,.9,.72,1.62,1.6,1.62s1.6-.73,1.6-1.62v-11.91c.02-.43,.36-.59,.7-.59-.01,8.51,0,19.36,0,27.87,0,1.09,.87,1.95,1.93,1.95s1.93-.87,1.93-1.95v-15.57h.83v15.57c0,1.08,.86,1.95,1.93,1.95,.99,0,1.89-.76,1.89-1.95v-27.23h0Z"/>
  <path class="cls-1" d="M391.47,235.09c1.77-.73,2.62-2.76,1.88-4.53,0,0,0,0,0-.01-.73-1.77-2.76-2.62-4.54-1.89,0,0,0,0,0,0-1.77,.73-2.62,2.76-1.88,4.54,0,0,0,0,0,.01,.73,1.77,2.76,2.62,4.54,1.88,0,0,0,0,0,0h0Zm47.39,4.09c-.01-2.11-1.67-3.82-3.7-3.82h-8.25c-.87,0-1.72,.32-2.39,.92-.84,.74-1.31,1.8-1.32,2.91v11.92c0,.91,.71,1.62,1.54,1.62s1.53-.72,1.53-1.62v-11.91c0-.3,.32-.59,.66-.59v27.87c0,1.16,.95,2.05,2.04,1.94,.94-.1,1.66-.93,1.66-1.94v-15.57h.8v15.57c0,1.08,.83,1.95,1.85,1.95s1.85-.87,1.85-1.95v-27.87c.33,0,.66,.29,.66,.58v11.92c0,.9,.69,1.62,1.53,1.62s1.54-.74,1.54-1.62v-11.93Z"/>
  <path class="cls-1" d="M431.9,235.35c1.92,0,3.48-1.56,3.49-3.48,0-1.92-1.56-3.48-3.48-3.48s-3.48,1.56-3.48,3.48,1.55,3.48,3.47,3.48Zm8.43,5.36h0c0-1.28-.54-2.5-1.47-3.38,.44-.16,.91-.24,1.38-.24h8.67c.93,0,1.8,.31,2.47,.84,.85,.66,1.4,1.67,1.4,2.79v11.29c0,.7-.48,1.29-1.16,1.48-1.04,.29-2.06-.45-2.06-1.48-.01-7.36-.01-11.29-.01-11.34-.01-.56-.66-.5-.66-.5v26.4c0,1.02-.9,1.84-1.97,1.84s-1.94-.83-1.94-1.84v-14.75h-.83v14.74c0,1.02-.86,1.85-1.94,1.85s-1.89-.83-1.89-1.85c0,0-.02-14.15,0-25.85h0s0,0,0,0Zm5.42-5.37c-1.92-.04-3.45-1.63-3.41-3.55,0,0,0,0,0,0,.04-1.92,1.63-3.45,3.56-3.4,1.92,.04,3.45,1.63,3.4,3.56h0c-.04,1.92-1.62,3.44-3.54,3.4,0,0-.01,0-.02,0Zm-74.75,45.53v-1.8h3.63v12.64h-2.01v-10.83h-1.62Zm6.37,4.35c0-2,.34-3.56,1.02-4.68,.69-1.13,1.86-1.7,3.53-1.7s2.84,.57,3.51,1.7c.69,1.12,1.04,2.68,1.04,4.68s-.35,3.61-1.04,4.75c-.67,1.13-1.85,1.7-3.51,1.7s-2.84-.57-3.53-1.7c-.68-1.14-1.02-2.73-1.02-4.75Zm7.14,0c0-.94-.07-1.73-.2-2.38-.12-.65-.36-1.17-.73-1.58-.37-.42-.93-.62-1.66-.62s-1.29,.21-1.66,.62c-.37,.4-.62,.93-.75,1.58-.12,.65-.17,1.44-.17,2.38s.05,1.79,.17,2.44c.12,.66,.36,1.19,.73,1.59,.38,.4,.95,.61,1.68,.61s1.29-.2,1.66-.61c.38-.4,.63-.94,.75-1.59,.11-.66,.17-1.47,.17-2.44Zm4.07,0c0-2,.34-3.56,1.02-4.68,.69-1.13,1.86-1.7,3.53-1.7s2.84,.57,3.51,1.7c.69,1.12,1.04,2.68,1.04,4.68s-.35,3.61-1.04,4.75c-.67,1.13-1.85,1.7-3.51,1.7s-2.84-.57-3.53-1.7c-.68-1.14-1.02-2.73-1.02-4.75Zm7.14,0c0-.94-.07-1.73-.2-2.38-.12-.65-.36-1.17-.73-1.58-.37-.42-.93-.62-1.66-.62s-1.29,.21-1.66,.62c-.37,.4-.62,.93-.75,1.58-.12,.65-.17,1.44-.17,2.38s.05,1.79,.17,2.44c.12,.66,.36,1.19,.73,1.59,.38,.4,.95,.61,1.68,.61s1.29-.2,1.66-.61c.38-.4,.63-.94,.75-1.59,.11-.66,.17-1.47,.17-2.44Zm10.86-1.66c.34-.44,.8-.81,1.38-1.11,.59-.3,1.25-.45,1.98-.45,.84,0,1.61,.21,2.3,.62,.7,.4,1.27,1,1.64,1.72,.39,.74,.6,1.59,.6,2.55s-.21,1.82-.6,2.58c-.37,.73-.94,1.34-1.64,1.77-.69,.42-1.49,.63-2.3,.62-.73,0-1.39-.14-1.96-.43-.57-.3-1.04-.67-1.4-1.11v5.93h-1.99v-14.09h1.99v1.4h0Zm5.86,3.33c0-.66-.14-1.23-.43-1.7-.24-.46-.62-.85-1.08-1.09-.89-.51-1.98-.51-2.86,0-.46,.26-.83,.65-1.08,1.11-.27,.49-.4,1.06-.4,1.72s.13,1.24,.4,1.73c.27,.49,.63,.86,1.08,1.11,.46,.25,.93,.38,1.43,.38s.99-.13,1.43-.38c.46-.27,.82-.65,1.08-1.14,.28-.5,.43-1.08,.43-1.73h0Zm12.83-.19c0,.36-.02,.68-.08,.97h-7.36c.05,.76,.34,1.37,.85,1.84,.51,.46,1.15,.69,1.89,.69,1.07,0,1.84-.45,2.27-1.33h2.15c-.3,.88-.82,1.6-1.6,2.17-.75,.55-1.69,.83-2.83,.83-.92,0-1.75-.2-2.48-.61-.72-.41-1.31-1.01-1.72-1.73-.4-.75-.61-1.62-.61-2.6s.2-1.84,.59-2.58c.39-.73,.98-1.33,1.7-1.73,.73-.41,1.57-.61,2.51-.61s1.72,.2,2.43,.59c.71,.38,1.28,.96,1.66,1.66,.4,.7,.6,1.52,.6,2.44h0Zm-2.09-.62c-.01-.73-.27-1.31-.79-1.75-.5-.44-1.15-.66-1.9-.66-.69,0-1.28,.22-1.77,.66-.48,.43-.78,1.01-.88,1.75h5.33Zm6.04-2.53c.28-.47,.67-.86,1.15-1.13,.49-.28,1.07-.42,1.74-.42v2.05h-.51c-.78,0-1.37,.2-1.78,.59-.39,.39-.59,1.08-.59,2.05v5.03h-2v-9.55h2v1.39Zm8.21,8.32c-.75,0-1.43-.13-2.04-.4-.59-.28-1.06-.65-1.41-1.11-.35-.47-.54-1-.57-1.58h2.07c.03,.4,.23,.74,.58,1.02,.36,.27,.81,.4,1.34,.4s.99-.1,1.3-.31c.31-.22,.47-.5,.47-.83,0-.36-.17-.62-.52-.8-.34-.17-.89-.36-1.63-.57-.6-.16-1.19-.35-1.77-.57-.45-.19-.86-.48-1.18-.85-.33-.38-.49-.88-.49-1.51,0-.51,.15-.97,.45-1.39,.31-.43,.74-.76,1.3-1.01,.57-.24,1.22-.36,1.96-.36,1.09,0,1.98,.28,2.64,.83,.68,.54,1.04,1.29,1.08,2.24h-2c-.03-.43-.21-.77-.52-1.02-.31-.25-.73-.38-1.27-.38s-.93,.1-1.21,.29c-.27,.2-.42,.46-.42,.78,0,.24,.09,.48,.27,.64,.2,.17,.42,.31,.69,.42,.26,.09,.67,.21,1.19,.36,.7,.18,1.27,.37,1.7,.57,.46,.18,.85,.46,1.18,.83,.33,.37,.49,.86,.5,1.47,0,.54-.15,1.03-.46,1.46-.3,.43-.73,.76-1.29,1.01-.55,.24-1.19,.36-1.95,.36h0Zm10.03,0c-.92,0-1.74-.2-2.47-.61-.72-.41-1.32-1.01-1.73-1.73-.43-.75-.63-1.62-.63-2.6s.22-1.83,.64-2.58c.41-.73,1.03-1.34,1.77-1.73,.74-.41,1.57-.61,2.5-.61s1.75,.2,2.49,.61c.74,.4,1.36,1,1.77,1.73,.43,.75,.64,1.61,.64,2.58s-.22,1.83-.67,2.58c-.43,.74-1.06,1.35-1.81,1.75-.75,.4-1.6,.61-2.51,.61h0Zm0-1.72c.5,0,.98-.12,1.43-.36,.45-.24,.82-.61,1.1-1.09,.27-.48,.42-1.07,.42-1.77s-.13-1.28-.4-1.75c-.24-.46-.61-.84-1.06-1.09-.44-.24-.94-.37-1.44-.36-.51,0-.98,.12-1.43,.36-.44,.26-.8,.63-1.03,1.09-.26,.47-.38,1.06-.38,1.75,0,1.03,.26,1.83,.79,2.39,.54,.55,1.2,.83,2.01,.83h0Zm11.82-8.15c.77,0,1.43,.16,2.03,.47,.6,.31,1.09,.79,1.41,1.39,.34,.61,.51,1.35,.51,2.22v5.63h-1.98v-5.34c0-.86-.22-1.51-.64-1.96-.44-.46-1.02-.69-1.77-.69s-1.33,.23-1.78,.69c-.43,.45-.64,1.1-.64,1.96v5.34h-2v-9.55h2v1.09c.33-.39,.74-.7,1.23-.92,.51-.22,1.07-.33,1.63-.33h0Zm44.39-201.76v-2.74h4.87v12.57h-3.13v-9.83h-1.74Zm6.92,3.37c0-1.97,.38-3.53,1.16-4.66,.78-1.14,2.04-1.7,3.78-1.7s2.99,.57,3.76,1.7c.79,1.14,1.18,2.69,1.18,4.66s-.39,3.56-1.18,4.7c-.77,1.14-2.02,1.7-3.76,1.7s-3-.57-3.78-1.7-1.16-2.7-1.16-4.7h0Zm6.93,0c0-1.16-.13-2.05-.4-2.67-.25-.63-.79-.95-1.59-.95s-1.34,.32-1.6,.95c-.25,.62-.39,1.51-.39,2.67,0,.78,.04,1.43,.14,1.94,.09,.5,.28,.92,.56,1.24,.3,.31,.72,.46,1.29,.46s.98-.15,1.26-.46c.3-.32,.48-.74,.58-1.24,.09-.52,.14-1.16,.14-1.94Zm11.57-1.79c.29-.45,.69-.81,1.21-1.08,.52-.28,1.12-.41,1.81-.41,.81,0,1.54,.2,2.2,.6s1.17,.97,1.55,1.72c.38,.75,.58,1.61,.58,2.6s-.2,1.86-.58,2.62c-.37,.75-.89,1.32-1.55,1.74-.66,.4-1.42,.61-2.2,.6-.68,0-1.29-.14-1.81-.41-.52-.28-.92-.63-1.21-1.07v5.92h-3.01v-14.18h3.01v1.36Zm4.28,3.43c0-.73-.21-1.31-.63-1.72-.4-.42-.96-.65-1.54-.64-.59,0-1.1,.21-1.53,.64-.41,.43-.61,1-.61,1.74s.21,1.31,.61,1.74c.43,.43,.93,.64,1.53,.64s1.11-.21,1.54-.64c.42-.44,.63-1.02,.63-1.76Zm7.65-7.92v12.74h-3.01v-12.74h3.01Zm1.58,7.92c0-.99,.19-1.85,.56-2.6,.38-.75,.9-1.32,1.56-1.72,.66-.4,1.42-.61,2.2-.6,.69,0,1.3,.14,1.81,.41,.53,.28,.93,.64,1.21,1.08v-1.36h3.01v9.61h-3.01v-1.36c-.29,.45-.7,.81-1.23,1.08-.52,.28-1.11,.41-1.8,.41-.77,0-1.53-.2-2.19-.6-.66-.41-1.18-.99-1.56-1.74-.37-.76-.56-1.63-.56-2.62h0Zm7.34,.02c0-.74-.21-1.31-.63-1.74-.39-.42-.94-.65-1.52-.64-.59,0-1.11,.21-1.53,.64-.41,.41-.61,.99-.61,1.72s.21,1.32,.61,1.76c.42,.43,.93,.64,1.53,.64,.57,.01,1.12-.22,1.52-.64,.42-.42,.63-1,.63-1.74Zm4.59,0c0-1,.2-1.87,.61-2.62,.4-.73,1-1.32,1.74-1.72,.75-.4,1.6-.6,2.57-.6,1.23,0,2.25,.32,3.08,.95,.82,.63,1.37,1.52,1.63,2.67h-3.2c-.26-.73-.79-1.1-1.56-1.1-.55,0-.99,.21-1.32,.64-.33,.41-.49,1.01-.49,1.79s.16,1.38,.49,1.81c.33,.41,.77,.62,1.32,.62,.77,0,1.3-.37,1.56-1.1h3.2c-.25,1.12-.8,2.01-1.63,2.65-.84,.64-1.87,.96-3.08,.96-.97,0-1.82-.2-2.57-.6-.73-.4-1.33-.99-1.74-1.72-.42-.75-.61-1.62-.61-2.62h0Zm20.48-.16c0,.28-.01,.56-.05,.86h-6.8c.05,.6,.24,1.06,.58,1.38,.35,.31,.78,.46,1.28,.46,.75,0,1.27-.31,1.56-.93h3.2c-.16,.63-.46,1.21-.89,1.71-.43,.5-.96,.9-1.6,1.19-.64,.29-1.36,.43-2.16,.43-.96,0-1.81-.2-2.56-.6-.74-.39-1.35-.99-1.76-1.72-.43-.75-.64-1.62-.64-2.62s.21-1.87,.61-2.62c.41-.73,1.02-1.33,1.76-1.72,.76-.4,1.61-.6,2.58-.6s1.8,.19,2.54,.58c.72,.38,1.32,.96,1.72,1.67,.42,.72,.63,1.57,.63,2.53h0Zm-3.08-.78c0-.5-.18-.91-.53-1.21-.35-.3-.79-.45-1.32-.45s-.93,.14-1.28,.43c-.33,.29-.55,.69-.63,1.22h3.76Zm-28.25,60.78h-8.7v8.7h8.7v-8.7Z"/>
  <path class="cls-2" d="M540.21,153.83v53.95"/>
  <path class="cls-1" d="M503.9,239.5h0c0-1.42,.57-2.69,1.5-3.61-.45-.18-.94-.28-1.43-.27h-8.63c-2.12,0-3.84,1.71-3.86,3.83v11.92c0,.9,.72,1.62,1.6,1.62s1.61-.73,1.61-1.62v-11.91c.01-.43,.36-.59,.69-.59-.01,8.51,0,19.36,0,27.87,0,1.09,.87,1.95,1.93,1.95,1.07,0,1.93-.87,1.93-1.94,0,0,0,0,0,0v-15.57h.83v15.57c0,1.08,.86,1.95,1.93,1.95,1,0,1.9-.76,1.9-1.95v-27.23h0Z"/>
  <path class="cls-1" d="M501.51,235.35c1.77-.74,2.62-2.77,1.89-4.55-.74-1.78-2.78-2.62-4.55-1.88-1.77,.73-2.62,2.77-1.88,4.54h0c.73,1.78,2.76,2.62,4.53,1.89,0,0,0,0,0,0Zm16.31,4.16h0c0-1.42,.57-2.69,1.51-3.61-.45-.18-.94-.28-1.43-.27h-8.63c-2.11,0-3.85,1.72-3.86,3.83v11.92c0,.9,.72,1.62,1.6,1.62s1.61-.73,1.61-1.62v-11.91c.01-.43,.36-.59,.69-.59-.01,8.51,0,19.36,0,27.87,0,1.09,.87,1.95,1.93,1.95,1.07,0,1.93-.87,1.93-1.94h0v-15.57h.83v15.57c0,1.08,.87,1.95,1.93,1.95s1.9-.76,1.9-1.95v-27.23h0Z"/>
  <path class="cls-1" d="M515.43,235.35c1.77-.74,2.62-2.77,1.89-4.55-.74-1.78-2.78-2.62-4.55-1.88-1.77,.74-2.62,2.77-1.88,4.54,0,0,0,0,0,0,.73,1.77,2.77,2.62,4.54,1.88h0Zm16.31,4.16h0c0-1.36,.54-2.66,1.5-3.61-.45-.18-.94-.27-1.43-.27h-8.63c-2.11,0-3.85,1.72-3.86,3.83v11.92c0,.9,.72,1.62,1.6,1.62s1.61-.73,1.61-1.62v-11.91c.01-.43,.36-.59,.69-.59v27.87c0,1.09,.88,1.95,1.93,1.95s1.93-.87,1.93-1.95v-15.57h.83v15.57c0,1.08,.87,1.95,1.93,1.95,1,0,1.9-.76,1.9-1.95v-27.23h0Z"/>
  <path class="cls-1" d="M529.35,235.35c1.77-.74,2.62-2.77,1.89-4.55-.74-1.77-2.78-2.62-4.55-1.88-1.76,.77-2.57,2.82-1.8,4.58,.75,1.71,2.72,2.53,4.46,1.85Zm17.9,4.09h0c0-1.39,.61-2.65,1.65-3.57-.5-.17-1.03-.26-1.56-.26h-9.73c-1,0-1.97,.3-2.78,.88-.96,.7-1.58,1.76-1.59,2.94v11.92c0,.74,.55,1.36,1.3,1.56,1.17,.3,2.33-.48,2.33-1.56v-11.97c.03-.59,.75-.53,.75-.53v27.87c0,1.08,1,1.95,2.2,1.95s2.18-.87,2.18-1.95v-15.57h.95v15.57c0,1.08,.97,1.95,2.16,1.95s2.14-.87,2.14-1.95c0,0,.02-14.94,0-27.29h0s0,0,0,0Z"/>
  <path class="cls-1" d="M542.03,235.61c1.91-.04,3.43-1.63,3.4-3.56-.05-1.92-1.64-3.44-3.56-3.4-1.92,.05-3.44,1.64-3.4,3.56,.05,1.92,1.64,3.44,3.56,3.4Zm22.54,3.82c-.01-2.1-1.67-3.82-3.7-3.82h-8.27c-.86,0-1.71,.32-2.39,.92-.83,.74-1.3,1.8-1.3,2.91v11.92c0,.91,.71,1.62,1.53,1.62s1.55-.72,1.55-1.62v-11.91c0-.3,.32-.59,.65-.59v27.87c0,1.15,.96,2.05,2.05,1.94,.93-.1,1.66-.93,1.66-1.94v-15.57h.79v15.57c0,1.08,.84,1.95,1.85,1.95s1.86-.87,1.86-1.95v-27.87c.34,0,.65,.29,.65,.58v11.92c0,.9,.69,1.62,1.54,1.62s1.53-.74,1.53-1.62v-11.93h0Z"/>
  <path class="cls-1" d="M555.86,235.61c1.92,0,3.48-1.56,3.49-3.48h0c0-1.92-1.56-3.48-3.48-3.48h0c-1.92,0-3.47,1.55-3.47,3.47h0c0,1.93,1.55,3.49,3.47,3.49h0Zm10.17,3.83h0c0-1.34-.52-2.62-1.47-3.57,.44-.17,.91-.26,1.39-.26h8.66c.92,0,1.78,.33,2.46,.88,.89,.72,1.41,1.8,1.41,2.94v11.92c0,.74-.49,1.36-1.16,1.56-.86,.25-1.75-.24-2-1.1-.04-.15-.06-.3-.06-.46v-11.97c-.02-.59-.66-.53-.66-.53v27.87c0,1.08-.9,1.95-1.97,1.95-1.07,0-1.94-.87-1.94-1.94h0v-15.57h-.83v15.57c0,1.07-.86,1.94-1.93,1.95h0c-1.07,0-1.9-.87-1.9-1.95,0,0-.02-14.94,0-27.29h0s0,0,0,0Z"/>
  <path class="cls-1" d="M569.71,235.61c-1.92-.04-3.45-1.63-3.41-3.55,0,0,0,0,0,0,.04-1.92,1.63-3.44,3.55-3.4,0,0,0,0,0,0,1.92,.04,3.45,1.63,3.41,3.55,0,0,0,0,0,0-.05,1.92-1.63,3.44-3.55,3.4h0Zm10.24,3.83h0c0-1.34-.52-2.62-1.47-3.57,.44-.17,.91-.26,1.39-.26h8.66c.92,0,1.78,.33,2.46,.88,.85,.7,1.4,1.76,1.41,2.94v11.92c0,.74-.49,1.36-1.16,1.56-.86,.25-1.75-.24-2-1.1-.04-.15-.06-.3-.06-.46v-11.97c-.02-.59-.67-.53-.67-.53v27.87c0,1.08-.88,1.95-1.96,1.95-1.07,0-1.94-.87-1.94-1.94h0v-15.57h-.83v15.57c0,1.07-.86,1.94-1.94,1.95-1.07,0-1.9-.87-1.9-1.95,0,0-.02-14.94,0-27.29h0s0,0,0,0Z"/>
  <path class="cls-1" d="M583.64,235.61c-1.92-.04-3.45-1.63-3.41-3.55,0,0,0,0,0,0,.04-1.92,1.62-3.44,3.54-3.4,0,0,.01,0,.02,0,1.92,.04,3.45,1.63,3.41,3.55,0,0,0,0,0,0-.04,1.92-1.63,3.44-3.55,3.4h0Zm-95.64,45.53v-1.8h3.61v12.64h-2v-10.83h-1.62Zm6.32,4.35c0-2,.34-3.56,1.01-4.68,.68-1.13,1.86-1.7,3.5-1.7s2.82,.57,3.49,1.7c.68,1.12,1.02,2.68,1.02,4.68s-.34,3.61-1.02,4.75c-.67,1.13-1.83,1.7-3.49,1.7s-2.82-.57-3.5-1.7c-.67-1.14-1.01-2.73-1.01-4.75Zm7.08,0c0-.94-.07-1.73-.18-2.37-.12-.65-.36-1.17-.74-1.58-.37-.42-.91-.62-1.65-.62s-1.27,.21-1.65,.62c-.37,.4-.62,.93-.74,1.58-.12,.65-.17,1.44-.17,2.37s.05,1.79,.17,2.44c.11,.66,.36,1.19,.73,1.6,.38,.4,.93,.61,1.66,.61s1.28-.2,1.65-.61c.39-.4,.64-.94,.75-1.6,.12-.66,.17-1.47,.17-2.44h0Zm4.04,0c0-2,.34-3.56,1.01-4.68,.68-1.13,1.86-1.7,3.5-1.7s2.82,.57,3.49,1.7c.68,1.12,1.02,2.68,1.02,4.68s-.34,3.61-1.02,4.75c-.67,1.13-1.83,1.7-3.49,1.7s-2.82-.57-3.5-1.7c-.67-1.14-1.01-2.73-1.01-4.75h0Zm7.08,0c0-.94-.07-1.73-.18-2.37-.12-.65-.36-1.17-.74-1.58-.37-.42-.91-.62-1.65-.62s-1.27,.21-1.65,.62c-.37,.4-.62,.93-.74,1.58-.12,.65-.17,1.44-.17,2.37s.05,1.79,.17,2.44c.11,.66,.36,1.19,.73,1.6,.38,.4,.93,.61,1.66,.61s1.28-.2,1.65-.61c.39-.4,.64-.94,.75-1.6,.12-.66,.17-1.47,.17-2.44Zm4.03,0c0-2,.34-3.56,1.01-4.68,.68-1.13,1.85-1.7,3.5-1.7s2.82,.57,3.49,1.7c.68,1.12,1.02,2.68,1.02,4.68s-.34,3.61-1.02,4.75c-.67,1.13-1.83,1.7-3.49,1.7s-2.82-.57-3.5-1.7c-.67-1.14-1.01-2.73-1.01-4.75Zm7.08,0c0-.94-.07-1.73-.18-2.37-.12-.65-.36-1.17-.74-1.58-.37-.42-.91-.62-1.65-.62s-1.27,.21-1.65,.62c-.37,.4-.62,.93-.74,1.58-.12,.65-.17,1.44-.17,2.37s.05,1.79,.17,2.44c.11,.66,.36,1.19,.73,1.6,.38,.4,.93,.61,1.66,.61s1.28-.2,1.65-.61c.39-.4,.64-.94,.75-1.6,.12-.66,.17-1.47,.17-2.44Zm10.78-1.66c.34-.44,.79-.81,1.38-1.11,.58-.3,1.23-.45,1.96-.45,.83,0,1.58,.21,2.27,.62,.7,.41,1.26,1,1.64,1.72,.39,.74,.59,1.59,.59,2.55s-.2,1.82-.59,2.58c-.38,.73-.94,1.34-1.64,1.77-.68,.42-1.47,.63-2.27,.62-.74,0-1.38-.14-1.95-.43-.56-.3-1.03-.67-1.39-1.11v5.93h-1.97v-14.09h1.97v1.4Zm5.81,3.33c0-.66-.13-1.22-.41-1.7-.25-.46-.62-.84-1.07-1.09-.43-.25-.92-.38-1.42-.38-.5,0-.98,.13-1.43,.38-.43,.25-.79,.62-1.07,1.11-.26,.48-.4,1.06-.4,1.72s.14,1.24,.4,1.73c.28,.49,.64,.86,1.07,1.11,.46,.26,.93,.38,1.43,.38s.98-.13,1.42-.38c.46-.28,.83-.67,1.07-1.14,.28-.5,.41-1.08,.41-1.73Zm12.73-.19c0,.36-.02,.68-.07,.97h-7.31c.07,.76,.35,1.38,.86,1.84s1.13,.69,1.88,.69c1.06,0,1.81-.44,2.26-1.33h2.13c-.28,.88-.81,1.6-1.57,2.17-.76,.55-1.69,.83-2.81,.83-.92,0-1.73-.2-2.47-.61-.71-.41-1.3-1.01-1.69-1.73-.41-.75-.61-1.62-.61-2.6s.2-1.84,.59-2.58c.38-.73,.97-1.33,1.68-1.73,.73-.4,1.56-.61,2.51-.61s1.7,.2,2.41,.59c.7,.38,1.27,.96,1.65,1.66,.39,.7,.59,1.52,.59,2.44Zm-2.06-.62c-.01-.73-.27-1.31-.78-1.75-.51-.44-1.14-.66-1.89-.66-.68,0-1.27,.22-1.76,.66-.49,.43-.77,1.01-.87,1.75h5.29Zm5.99-2.53c.29-.48,.67-.86,1.15-1.13,.49-.28,1.05-.42,1.71-.42v2.05h-.5c-.78,0-1.37,.2-1.77,.59-.4,.39-.6,1.08-.6,2.05v5.03h-1.97v-9.55h1.97v1.39h0Zm8.16,8.32c-.75,0-1.43-.13-2.03-.4-.6-.28-1.06-.65-1.41-1.11-.34-.46-.53-1.01-.55-1.58h2.05c.03,.4,.23,.74,.58,1.02,.36,.27,.8,.4,1.33,.4s.98-.1,1.28-.31c.32-.22,.47-.5,.47-.83,0-.36-.17-.62-.52-.8-.34-.17-.87-.36-1.6-.57-.6-.16-1.18-.35-1.76-.57-.46-.19-.86-.48-1.18-.85-.33-.38-.49-.88-.49-1.51,0-.51,.15-.97,.46-1.39,.3-.43,.73-.76,1.28-1.01,.58-.24,1.22-.36,1.95-.36,1.09,0,1.95,.28,2.61,.83,.67,.54,1.03,1.29,1.07,2.23h-1.97c-.03-.43-.21-.77-.52-1.02-.31-.25-.74-.38-1.27-.38s-.92,.1-1.19,.29c-.28,.2-.42,.46-.42,.78,0,.26,.1,.47,.28,.64,.18,.17,.41,.31,.67,.42,.27,.09,.66,.21,1.18,.36,.69,.19,1.26,.38,1.7,.57,.45,.18,.84,.47,1.16,.83,.33,.37,.49,.86,.51,1.47,0,.52-.15,1.03-.46,1.45-.3,.43-.73,.76-1.28,1.01-.55,.24-1.19,.36-1.93,.36h0Zm9.95,0c-.9,0-1.71-.2-2.45-.61-.72-.41-1.31-1.01-1.71-1.73-.41-.75-.63-1.62-.63-2.6s.22-1.83,.65-2.58c.41-.73,1.01-1.33,1.75-1.73,.74-.4,1.57-.61,2.48-.61s1.75,.2,2.48,.61c.73,.4,1.34,1,1.75,1.73,.43,.75,.65,1.61,.65,2.58s-.23,1.83-.66,2.58c-.43,.74-1.06,1.35-1.81,1.75-.75,.4-1.58,.61-2.49,.61Zm0-1.72c.51,0,.99-.12,1.42-.36,.46-.24,.81-.61,1.09-1.09,.28-.48,.41-1.08,.41-1.77s-.13-1.28-.39-1.75c-.27-.48-.62-.85-1.06-1.09-.43-.24-.92-.37-1.42-.36-.51,0-.99,.12-1.42,.36-.43,.24-.77,.61-1.03,1.09-.25,.48-.38,1.06-.38,1.75,0,1.03,.26,1.83,.78,2.39,.53,.55,1.19,.83,2,.83h0Zm11.75-8.15c.75,0,1.42,.16,2.01,.47,.6,.31,1.09,.79,1.41,1.39,.34,.61,.5,1.35,.5,2.22v5.63h-1.95v-5.34c0-.85-.22-1.51-.65-1.96-.42-.46-1.01-.69-1.75-.69s-1.34,.23-1.77,.69c-.43,.45-.65,1.1-.65,1.96v5.34h-1.97v-9.55h1.97v1.09c.33-.4,.76-.71,1.24-.92,.51-.22,1.06-.33,1.62-.33h0Z"/>
</svg>