<?xml version="1.0" encoding="UTF-8"?>
<svg id="Layer_1" data-name="Layer 1" xmlns="http://www.w3.org/2000/svg" viewBox="0 0 650 353">
  <defs>
    <style>
      .cls-1 {
        fill: #020202;
      }

      .cls-2 {
        fill: none;
        stroke: #020202;
        stroke-dasharray: 0 0 5 5;
      }

      .cls-3 {
        fill: #ffd835;
        fill-rule: evenodd;
      }
    </style>
  </defs>
  <path class="cls-3" d="M2.78-14.48l-.03-.34H175.73c0,17.1,10.59,31.02,23.59,31.02s23.59-13.92,23.59-34.2h427.08v1.49l-.71,.27-1.26,1.1-1.01,1.54-.76,3.96-.25,2.64s-.26,.88-.51,3.08c-.14,.54-.25,1.08-.35,1.62-.11,.65-.2,1.11-.67,2.34-.47,1.38-.89,2.77-1.26,4.18l-.26,.66,1.01,3.96,1.02,3.52s-.26,4.84-.26,5.28c0,.22,.26,4.4,.26,4.4l.76,4.4v1.98l3.03,1.32,.26,.88s.25,1.98,.25,2.64c-.25,.66-.25,1.1-.25,1.1,0,0-.26,1.1-.51,1.98-.16,.27-.27,.42-.35,.53-.18,.25-.24,.32-.41,1.23-.26,1.1-.51,1.98-.76,2.2-.25,.22,.26,1.32,.26,1.32l-.26,4.4-.51,2.64-.51,1.76,.76,1.1,.51,1.1,.25,1.32-.25,3.52,1.52,2.42,.26,5.72v1.54c0,.66,.51,1.54,.76,1.98,.25,.44,0,1.98,0,1.98l.2,1.04v2.13l-1.21,2.11s-.51,4.62-.76,5.72c-.25,1.1,0,1.54,0,1.54l.76,5.72,1.01,2.42-1.77,3.08v.66l.25,2.42v6.38l-.25,2.2,1.01,1.54-.76,.22v1.54l-.51,.66v3.3h1.01l.76,2.42-1.77,4.18-.26,2.64,.51,2.86,1.77,.22,.2,.81v3.12l-1.46,2.23,1.46,2.04v8.66l-.2,.52v2.64l.2,1.39v2.43l-.45,2.56,.45,.52v26.15l-.2,.61-.25,1.54-.51,.88-.51,.88-.51,.88-.76,1.32-.26,1.1,.26,2.2,.25,.66v3.08l-.51,3.08s-.51,1.98-1.01,2.86l-1.01,1.76-.51,.22,.76,2.64,2.28,2.42-.25,1.98-.26,1.32,.26,.88,.51,1.98-.26,1.1-.51,1.32-.25,1.54v1.32l.25,3.74,.51,2.2,.51,1.1s0,1.1-1.26,3.74c-1.27,2.64,0,2.86,0,2.86l2.78,6.6,.25,1.54-.25,1.1-.51,2.2,.25,1.1,.26,1.1-.26,1.1-.51,.44v2.64s1.01,5.5,.76,5.94c-.26,.44-.51,1.54-.51,1.54l-.26,1.98-1.27,1.54-.25,1.1v2.64s-.26,2.64-.26,3.52c-.25,.88,0,2.64,0,2.64l1.01,1.98,1.26,1.54v3.96s-.76,1.54-.51,1.98c.26,.22,.26,.88,.26,.88l.51,2.2,.25,1.54,.2,.61v1.14c-.58,.4-1.78,1.27-1.97,1.77l-.76,.22-.26,1.32v1.32l-.25,1.98s-.26,.88-.26,1.32c0,.15-.22,.1-.45,.05-.1-.03-.21-.04-.31-.05-.25,0-.25,.44-1.27,1.1l.76,1.32,1.01-.22,.51,.88,.51,1.32,.51,.88,.25,1.76,.76,2.2v4.4l-.51,1.1,.76,2.42-2.03,3.08-.25,1.32-1.27,.88v3.96l.51,.88,.25,3.52v.66l-.51,.88v2.2l.51,1.32,.76,2.2,.76,2.64-.51,1.32v1.54l.76,4.18,.76,.88v2.42l-.51,.88,.26,2.2,1.01-.44-.51,1.76-.51,4.62H222.92c0-17.1-10.59-31.02-23.59-31.02s-23.59,13.92-23.59,31.02H0v-1.82l.25-.17,1.26-9.68,.25-3.3-.25-1.98,.51-3.52,1.77-1.32-.51-1.98-1.26-1.32-1.26-1.98,.25-2.2,.51-1.32,1.26-2.64h1.01l1.26-2.42v-2.64l-1.52,.22,.76-2.86,.25-2.86,.51-2.64-1.01-2.64-.76-1.98v-2.42l.25-2.2-.25-2.2v-1.32l-3.03-3.74L0,289.19v-1.09l4.3-3.53,.76-6.16-1.01-3.08-1.26-2.42s0-3.3-.25-4.62c-.25-1.32-1.26-.88-1.26-.88l-.25-1.91,1.3-5.05-.55-3.17,2.02-1.76-.25-4.18,1.52-1.32,1.26-3.74-4.3-6.6v-2.42H.76l.2-7.89-.7-3.55v-4.62l2.02-2.86-.25-3.74v-4.4L0,210.41l.76-1.32,1.77-2.2-2.28-2.42,2.02-2.42-1.01-.22-.25-3.74h1.26l1.26-3.08-.25-3.74h1.01v-2.2l1.26-2.86-.25-2.42,1.52-1.1,1.52-3.08v-2.2l-.25-2.2-.25-3.08-1.52,.22-.25-3.74-1.52-1.1-2.02-1.1-2.02-7.26,.76-2.64-1.27-2.64,2.53-2.86-2.53-5.28,.51-3.52,2.78-1.76,2.02-1.98s-1.26-3.08-1.52-7.04,3.03-11.66,3.03-11.66l-2.28-3.08,1.77-5.28-1.01-2.2-.25-5.28v-2.42l-2.28-1.54-.76-1.98-1.26-1.32v-2.42l-.76-.66v-3.04l.51-1.14H0v-15.51c.27-.46,.51-.78,.51-.78l-.25-3.52,1.26-3.52-1.26-.88v-2.2l1.26-1.32-.51-1.32-.76-2.64,.76-1.76-.25-1.32v-2.42l1.01-2.64-.76-1.32,.76-3.74-1.77,.13v-11.85l3.03-3.02-3.03-1.76,1.01-2.86v-2.64l-1.01-.13v-5.64l.92,1.25L.2,13.47l-.2-4.62H1.01v-2.2l1.26-2.64L.76,1.81,2.02,.48,.51-1.5l1.52-.66,.51-2.2-.76-2.42v-3.52l.51-1.98-.76-2.2h1.27ZM0,158.92v5.61l.25-.55v-1.32l-.25-2.42v-1.32Zm648.54,194.08l1.46-.96v.96h-1.46Z"/>
  <path d="M140.93,89.27h-23.7c-1.23,0-2.23,1-2.23,2.23h0v7.49c0,1.23,1,2.23,2.23,2.23h23.7c1.23,0,2.23-1,2.23-2.23v-7.48c0-1.23-1-2.23-2.23-2.23Zm-13.61,2.55l-1.58,7.03c-.11,.47-.52,.8-1,.8h-.02c-.46,0-.86-.3-.98-.74l-1.32-4.62c-.01-.05-.07-.08-.12-.07-.03,0-.06,.03-.07,.07l-1.29,4.62c-.15,.54-.71,.86-1.26,.71-.36-.1-.64-.39-.72-.76l-1.59-7.03c-.11-.43,.16-.87,.59-.97,.43-.11,.87,.16,.97,.59,0,.01,0,.02,0,.03l1.05,4.62c.01,.05,.07,.08,.12,.07,.03,0,.06-.03,.07-.07l1.28-4.58c.14-.49,.64-.78,1.13-.64,.31,.09,.55,.33,.64,.64l1.3,4.59c.01,.05,.07,.08,.12,.07,.03,0,.06-.04,.07-.07l1.03-4.62c.1-.43,.53-.71,.96-.61s.71,.53,.61,.96Zm3.9,6.99c0,.46-.37,.83-.83,.83-.46,0-.83-.37-.83-.83h0v-7.14c0-.46,.37-.83,.83-.83s.83,.37,.83,.83v7.14Zm9.6-.21c0,.58-.47,1.05-1.04,1.05h0c-.35,0-.68-.18-.88-.47l-3.17-4.87c-.05-.07-.14-.09-.21-.04-.04,.03-.07,.08-.07,.13v4.43c0,.46-.37,.84-.84,.84h0c-.46,0-.84-.38-.84-.84v-6.92c0-.58,.47-1.04,1.04-1.04,.35,0,.68,.18,.87,.47l3.18,4.89c.05,.07,.14,.09,.21,.04,.04-.03,.07-.07,.07-.13v-4.45c-.03-.46,.32-.86,.78-.9s.86,.32,.9,.78c0,.04,0,.08,0,.12v6.92s0,0,0,0Zm-18.55-12.56h13.61v.9c0,.94-.76,1.7-1.7,1.7h-10.2c-.94,0-1.7-.76-1.7-1.7v-.9h0Zm15.59-6.57l-.9,2.74-1.03,3.14h-13.6l-1.08-3.14-.99-2.86c.23-.07,.43-.19,.6-.36l3.54,3.22,3.89-3.54c.47,.29,1.06,.29,1.53,0l3.9,3.54,3.49-3.18c.17,.2,.39,.35,.64,.43Z"/>
  <path d="M129.06,78.88c.8,.02,1.46-.61,1.48-1.4,.02-.8-.61-1.46-1.4-1.48-.03,0-.05,0-.08,0-.8,.02-1.42,.68-1.4,1.48,.02,.77,.64,1.38,1.4,1.4Zm9.26,.65c.8,0,1.44-.64,1.44-1.44,0-.8-.64-1.44-1.44-1.44-.8,0-1.44,.64-1.44,1.44,0,.8,.64,1.44,1.44,1.44Zm-18.48-.13c.8,0,1.44-.65,1.44-1.44s-.65-1.44-1.44-1.44-1.44,.65-1.44,1.44,.65,1.44,1.44,1.44h0Z"/>
  <path class="cls-1" d="M62,82.88v-2.71h4.04v12.43h-2.59v-9.72h-1.44Zm11.57,1.57c.24-.44,.58-.8,1-1.07,.43-.27,.93-.41,1.5-.41,.67,0,1.28,.2,1.82,.6s.97,.96,1.28,1.7c.32,.74,.48,1.59,.48,2.57s-.16,1.84-.48,2.59c-.31,.74-.74,1.31-1.28,1.72-.53,.39-1.17,.6-1.82,.6-.53,0-1.05-.13-1.5-.41-.42-.26-.76-.62-1.01-1.06v5.86h-2.49v-14.03h2.49v1.35Zm3.56,3.39c0-.73-.18-1.29-.53-1.7-.34-.42-.76-.63-1.27-.63s-.92,.21-1.27,.63c-.34,.42-.51,.99-.51,1.72s.17,1.3,.51,1.72c.35,.42,.77,.63,1.27,.63s.92-.21,1.27-.63c.35-.43,.53-1.01,.53-1.74Zm6.33-7.83v12.6h-2.49v-12.6h2.49Zm1.31,7.83c0-.98,.15-1.83,.47-2.57,.32-.74,.75-1.31,1.3-1.7,.53-.39,1.17-.6,1.82-.6,.57,0,1.07,.14,1.5,.41,.44,.27,.77,.63,1.01,1.07v-1.34h2.49v9.5h-2.49v-1.35c-.24,.44-.59,.81-1.02,1.07-.43,.27-.93,.41-1.5,.41-.66,0-1.26-.2-1.81-.6-.54-.41-.98-.98-1.3-1.72-.31-.75-.47-1.61-.47-2.59Zm6.09,.02c0-.73-.18-1.3-.53-1.72-.34-.42-.76-.63-1.25-.63s-.92,.21-1.27,.63c-.34,.41-.51,.98-.51,1.7s.17,1.31,.51,1.74c.35,.42,.77,.63,1.27,.63s.91-.21,1.25-.63c.35-.42,.52-.99,.52-1.72h0Zm3.8,0c0-.99,.17-1.85,.51-2.59,.35-.74,.83-1.31,1.44-1.7,.62-.4,1.33-.6,2.13-.6,1.02,0,1.87,.31,2.55,.94,.69,.62,1.14,1.5,1.36,2.64h-2.65c-.22-.73-.66-1.09-1.3-1.09-.46,0-.82,.21-1.09,.63-.27,.41-.41,1-.41,1.77s.14,1.37,.41,1.79c.27,.41,.64,.61,1.09,.61,.64,0,1.07-.36,1.3-1.09h2.65c-.21,1.11-.67,1.99-1.36,2.62-.69,.64-1.54,.95-2.55,.95-.79,0-1.5-.2-2.13-.6-.61-.4-1.09-.96-1.44-1.7-.34-.74-.51-1.6-.51-2.59Zm16.98-.15c0,.27-.01,.56-.04,.85h-5.64c.04,.59,.2,1.04,.48,1.36,.29,.31,.64,.46,1.06,.46,.62,0,1.05-.31,1.3-.92h2.65c-.13,.61-.38,1.18-.74,1.69-.35,.5-.79,.89-1.32,1.18-.55,.29-1.17,.43-1.79,.43-.8,0-1.5-.2-2.13-.6-.62-.4-1.11-.96-1.46-1.7-.35-.74-.52-1.6-.52-2.59s.17-1.85,.51-2.59c.35-.74,.83-1.31,1.46-1.7s1.34-.6,2.14-.6,1.49,.19,2.1,.58c.61,.39,1.09,.94,1.43,1.65,.35,.72,.53,1.55,.53,2.5h0Zm-2.55-.77c0-.5-.14-.9-.44-1.19-.29-.29-.68-.45-1.09-.44-.42,0-.77,.14-1.06,.43-.28,.28-.46,.69-.52,1.21h3.12Zm-4.57,145.92c1.57,0,2.83-1.53,2.83-3.43s-1.27-3.43-2.83-3.43-2.84,1.53-2.84,3.43,1.27,3.43,2.84,3.43Zm8.5,15.3c-.78-10.43-4.93-12.51-4.93-12.51,0,0-4.02-2.89-8.25,.79-2.74,2.98-3.38,7.54-3.81,11.93-.22,2.24,2.71,2.21,2.92,0,.26-2.62,.63-5.26,1.72-7.51v2.53s-.02,12.18-.02,12.18v9.66c0,1.04,.64,1.88,1.53,1.88s1.62-.84,1.62-1.88v-13.81h1.43v13.85c0,2.25,2.92,2.25,2.92,0v-9.71l.12-12.2v-2.93c1.17,2.29,1.56,5,1.82,7.71,.22,2.21,3.14,2.24,2.93,0h0Zm-36,31.65v-1.8h2.95v12.6h-1.63v-10.8h-1.32Zm10.7,2.68c.29-.45,.67-.83,1.12-1.11,.47-.3,1.01-.45,1.6-.45,.68,0,1.3,.21,1.86,.62,.57,.4,1.01,.97,1.34,1.71s.48,1.58,.48,2.54-.16,1.82-.48,2.58c-.32,.75-.77,1.34-1.33,1.76-.53,.41-1.19,.63-1.86,.62-.6,0-1.13-.14-1.59-.43-.45-.29-.84-.66-1.14-1.11v5.91h-1.62v-14.05h1.62v1.4h0Zm4.76,3.32c0-.66-.11-1.22-.34-1.69-.22-.48-.51-.85-.88-1.09-.34-.25-.75-.38-1.17-.38-.41,0-.79,.13-1.16,.38-.36,.25-.65,.62-.88,1.11-.22,.48-.33,1.05-.33,1.71s.11,1.23,.33,1.73c.23,.48,.52,.85,.88,1.11,.37,.25,.76,.38,1.17,.38s.81-.13,1.17-.38c.37-.27,.66-.64,.88-1.14,.23-.5,.34-1.07,.34-1.73Zm10.42-.19c0,.36-.02,.68-.06,.97h-5.98c.05,.76,.28,1.37,.7,1.83,.42,.46,.93,.69,1.53,.69,.87,0,1.49-.44,1.85-1.33h1.75c-.24,.88-.67,1.6-1.29,2.16-.62,.55-1.38,.83-2.3,.83-.72,0-1.42-.2-2.02-.61-.59-.42-1.05-.99-1.39-1.73-.33-.75-.5-1.61-.5-2.59s.16-1.84,.48-2.58c.33-.75,.79-1.33,1.38-1.73,.6-.4,1.28-.61,2.04-.61s1.4,.2,1.97,.59c.58,.39,1.03,.95,1.35,1.66,.32,.7,.48,1.52,.48,2.44Zm-1.69-.62c0-.73-.22-1.31-.64-1.75-.4-.43-.96-.67-1.55-.66-.56,0-1.04,.22-1.43,.66-.4,.43-.64,1.01-.71,1.75,0,0,4.33,0,4.33,0Zm4.9-2.52c.24-.48,.55-.86,.94-1.12,.4-.28,.87-.42,1.41-.42v2.04h-.41c-.64,0-1.12,.2-1.45,.59-.32,.39-.48,1.07-.48,2.04v5.01h-1.62v-9.52h1.62v1.38h0Zm6.67,8.3c-.58,0-1.15-.13-1.66-.4-.47-.27-.87-.65-1.15-1.11-.28-.48-.44-1.02-.46-1.57h1.68c.03,.4,.18,.74,.47,1.02,.29,.26,.66,.4,1.09,.4s.81-.1,1.05-.31c.25-.22,.38-.5,.38-.83,0-.36-.14-.62-.43-.8-.27-.17-.71-.36-1.32-.57-.49-.16-.97-.35-1.43-.57-.39-.2-.72-.49-.96-.85-.26-.38-.4-.88-.4-1.5,0-.51,.12-.97,.37-1.38,.25-.43,.61-.78,1.05-1,.46-.24,.99-.36,1.59-.36,.89,0,1.6,.28,2.14,.83,.55,.54,.84,1.28,.88,2.23h-1.62c-.03-.43-.17-.77-.43-1.02-.25-.25-.6-.38-1.04-.38s-.75,.1-.98,.29c-.23,.19-.35,.48-.34,.78,0,.25,.08,.47,.23,.64,.15,.17,.34,.31,.55,.42,.22,.09,.54,.21,.97,.36,.48,.15,.95,.34,1.39,.57,.37,.18,.69,.46,.95,.83,.26,.37,.4,.86,.41,1.47,0,.54-.12,1.02-.37,1.45-.25,.43-.61,.78-1.05,1-.44,.24-.97,.36-1.58,.36h0Zm8.14,0c-.71,0-1.41-.2-2-.61-.6-.42-1.07-.99-1.41-1.73-.34-.75-.51-1.61-.51-2.59s.18-1.83,.53-2.58c.35-.75,.83-1.33,1.43-1.73,.6-.4,1.31-.61,2.03-.61,.75,0,1.43,.2,2.03,.61,.61,.4,1.08,.98,1.43,1.73,.35,.75,.53,1.61,.53,2.58s-.18,1.83-.54,2.58c-.36,.75-.85,1.33-1.48,1.75-.61,.4-1.32,.61-2.04,.61Zm0-1.71c.42,0,.81-.12,1.17-.36,.37-.24,.67-.61,.89-1.09,.23-.48,.34-1.07,.34-1.76s-.11-1.27-.33-1.75c-.22-.48-.51-.85-.87-1.09-.7-.48-1.63-.48-2.33,0-.35,.24-.63,.61-.84,1.09-.21,.47-.31,1.05-.31,1.75,0,1.02,.21,1.82,.64,2.39,.44,.55,.98,.83,1.63,.83Zm9.61-8.12c.62,0,1.16,.16,1.65,.47,.49,.31,.88,.77,1.15,1.38,.27,.61,.41,1.35,.41,2.21v5.62h-1.6v-5.32c0-.85-.18-1.5-.53-1.95-.35-.46-.83-.69-1.43-.69s-1.09,.23-1.45,.69c-.35,.45-.53,1.1-.53,1.95v5.32h-1.62v-9.52h1.62v1.09c.52-.78,1.39-1.25,2.33-1.24h0Zm45.3-194.45c1.04-.87,2.04-1.78,3.02-2.72,.59-.56,1.12-1.19,1.57-1.87,.42-.65,.64-1.29,.64-1.91,0-.47-.1-.84-.31-1.1-.21-.26-.52-.4-.93-.4s-.74,.17-.98,.5c-.23,.32-.34,.78-.34,1.38h-2.69c.02-.97,.22-1.79,.59-2.44,.38-.65,.88-1.14,1.49-1.44,.64-.31,1.34-.47,2.06-.46,1.3,0,2.27,.35,2.92,1.05,.66,.7,.99,1.61,.99,2.73,0,1.23-.4,2.37-1.19,3.42-.79,1.04-1.81,2.06-3.04,3.06h4.41v2.39h-8.2v-2.18h0Zm15.96-5.88c.28-.45,.66-.82,1.13-1.08,.48-.28,1.04-.41,1.68-.41,.75,0,1.43,.2,2.04,.6,.61,.4,1.09,.97,1.44,1.72,.36,.75,.54,1.61,.54,2.6s-.18,1.86-.54,2.61c-.35,.75-.83,1.32-1.44,1.74-.61,.4-1.29,.6-2.04,.6-.63,0-1.19-.14-1.68-.41-.46-.26-.85-.62-1.13-1.07v5.92h-2.79v-14.17h2.79v1.36Zm3.98,3.42c0-.73-.2-1.31-.59-1.72-.36-.41-.88-.65-1.42-.64-.56,0-1.03,.21-1.42,.64-.38,.43-.57,1-.57,1.74s.19,1.31,.57,1.74c.39,.42,.87,.64,1.42,.64s1.03-.21,1.42-.64c.39-.44,.59-1.02,.59-1.75Zm7.1-7.91v12.72h-2.79v-12.72h2.79Zm1.47,7.91c0-.99,.17-1.85,.52-2.6,.36-.75,.84-1.32,1.45-1.72,.6-.4,1.32-.61,2.04-.6,.64,0,1.2,.14,1.68,.41,.49,.28,.87,.64,1.13,1.08v-1.36h2.79v9.6h-2.79v-1.36c-.28,.45-.67,.83-1.14,1.08-.48,.28-1.04,.41-1.68,.41-.72,0-1.43-.2-2.02-.6-.61-.41-1.09-.99-1.45-1.74-.35-.76-.52-1.63-.52-2.61Zm6.82,.02c0-.73-.2-1.31-.59-1.74-.38-.42-.85-.64-1.4-.64s-1.03,.21-1.42,.64c-.38,.41-.57,.99-.57,1.72s.19,1.32,.57,1.75c.39,.42,.87,.64,1.42,.64s1.02-.21,1.4-.64c.39-.42,.59-1,.59-1.74Zm4.26,0c0-1,.19-1.87,.57-2.61,.39-.75,.93-1.32,1.62-1.72,.7-.4,1.49-.6,2.38-.6,1.14,0,2.1,.32,2.86,.95,.77,.63,1.28,1.52,1.52,2.67h-2.97c-.25-.73-.74-1.1-1.45-1.1-.51,0-.92,.21-1.23,.64-.3,.41-.46,1.01-.46,1.79s.15,1.38,.46,1.81c.28,.4,.74,.63,1.23,.62,.72,0,1.2-.37,1.45-1.1h2.97c-.24,1.12-.75,2-1.52,2.65-.77,.64-1.73,.96-2.86,.96-.89,0-1.69-.2-2.38-.6-.69-.4-1.22-.97-1.62-1.72-.38-.74-.57-1.61-.57-2.61h0Zm19.03-.16c0,.28-.02,.56-.05,.86h-6.32c.04,.6,.22,1.06,.54,1.38,.33,.31,.73,.46,1.19,.46,.7,0,1.18-.31,1.45-.93h2.97c-.15,.62-.43,1.2-.83,1.7-.39,.5-.89,.9-1.49,1.19-.6,.29-1.27,.43-2.01,.43-.89,0-1.69-.2-2.38-.6-.7-.4-1.27-1-1.63-1.72-.39-.74-.59-1.61-.59-2.61s.19-1.87,.57-2.61c.37-.72,.93-1.32,1.63-1.72,.7-.4,1.5-.6,2.4-.6s1.67,.19,2.35,.58c.69,.39,1.22,.94,1.6,1.67,.39,.72,.59,1.56,.59,2.53h0Zm-2.86-.77c0-.5-.16-.91-.49-1.2-.33-.3-.74-.45-1.23-.45s-.87,.14-1.19,.43c-.32,.29-.51,.69-.59,1.22h3.49Zm-23.21,60.76h-8.15v8.7h8.15v-8.7Z"/>
  <path class="cls-2" d="M205.1,152.57v53.94"/>
  <path class="cls-1" d="M109.15,144h-8.15v8.7h8.15s0-8.7,0-8.7Z"/>
  <path class="cls-2" d="M104.89,152.57v53.94"/>
  <path class="cls-1" d="M204.49,233.27c1.77,0,3.2-1.53,3.2-3.42s-1.43-3.42-3.2-3.42-3.2,1.53-3.2,3.42,1.43,3.42,3.2,3.42Zm9.88,15.09c-.9-10.84-5.74-13-5.74-13,0,0-4.67-3-9.6,.82-3.19,3.1-3.93,7.84-4.43,12.41-.26,2.32,3.15,2.3,3.4,0,.3-2.73,.73-5.47,2-7.8v2.63s-.03,12.66-.03,12.66v10.04c0,1.08,.74,1.96,1.78,1.96s1.88-.88,1.88-1.96v-14.36h1.66v14.4c0,2.34,3.4,2.34,3.4,0v-10.09l.14-12.69v-3.04c1.36,2.38,1.81,5.2,2.12,8.01,.26,2.3,3.66,2.32,3.4,0h0Zm-43.49,31.32v-1.83h3.48v12.8h-1.92v-10.97h-1.56Zm12.6,2.72c.32-.44,.76-.82,1.32-1.12,.56-.3,1.19-.46,1.89-.46,.78,0,1.54,.21,2.19,.63,.67,.41,1.19,.99,1.57,1.74,.38,.75,.57,1.61,.57,2.58s-.19,1.84-.57,2.62c-.38,.76-.9,1.36-1.57,1.79-.65,.42-1.41,.64-2.19,.63-.7,0-1.33-.15-1.87-.44-.52-.28-.97-.66-1.34-1.12v6.01h-1.91v-14.28h1.91v1.42Zm5.6,3.37c0-.67-.13-1.24-.4-1.72-.26-.49-.6-.86-1.04-1.11-.41-.25-.89-.39-1.37-.39-.48,0-.94,.13-1.37,.39-.42,.26-.77,.63-1.04,1.12-.26,.49-.38,1.07-.38,1.74s.13,1.25,.38,1.76c.27,.49,.61,.87,1.04,1.12,.43,.26,.89,.39,1.37,.39s.95-.13,1.37-.39c.45-.28,.81-.68,1.04-1.16,.27-.5,.4-1.09,.4-1.76Zm12.27-.19c0,.36-.02,.69-.07,.98h-7.04c.06,.77,.33,1.39,.82,1.86,.49,.47,1.09,.7,1.81,.7,1.02,0,1.75-.45,2.17-1.35h2.06c-.27,.87-.8,1.64-1.52,2.2-.73,.56-1.63,.84-2.71,.84-.88,0-1.67-.2-2.38-.61-.7-.43-1.26-1.03-1.64-1.76-.39-.76-.59-1.64-.59-2.63s.19-1.87,.57-2.62c.39-.76,.93-1.35,1.62-1.76,.7-.41,1.51-.61,2.41-.61s1.64,.2,2.32,.6c.68,.4,1.21,.96,1.59,1.69,.38,.71,.57,1.54,.57,2.48Zm-1.99-.63c-.01-.74-.26-1.33-.75-1.77-.49-.45-1.1-.67-1.82-.67-.66,0-1.22,.22-1.69,.67-.47,.43-.75,1.02-.84,1.77h5.1Zm5.77-2.56c.26-.47,.64-.87,1.1-1.14,.47-.28,1.02-.42,1.66-.42v2.07h-.49c-.75,0-1.32,.2-1.71,.6-.38,.4-.57,1.09-.57,2.07v5.09h-1.91v-9.67h1.91v1.4h0Zm7.86,8.43c-.73,0-1.38-.14-1.96-.4-.54-.26-1-.64-1.35-1.12-.33-.47-.52-1.02-.54-1.6h1.97c.03,.41,.22,.76,.55,1.04,.35,.27,.77,.4,1.29,.4s.95-.11,1.24-.32c.3-.22,.45-.5,.45-.84,0-.36-.17-.63-.5-.81-.32-.18-.84-.37-1.56-.58-.57-.16-1.14-.35-1.69-.58-.44-.19-.83-.49-1.14-.86-.31-.39-.47-.9-.47-1.53,0-.52,.15-.98,.43-1.4,.29-.43,.7-.77,1.24-1.02,.55-.25,1.17-.37,1.87-.37,1.05,0,1.89,.28,2.53,.84,.65,.55,.99,1.3,1.04,2.27h-1.91c-.03-.43-.2-.78-.5-1.04s-.71-.39-1.22-.39-.89,.1-1.15,.3c-.26,.18-.41,.48-.4,.79,0,.26,.09,.48,.27,.65,.18,.18,.4,.32,.65,.42,.26,.09,.63,.22,1.14,.37,.67,.19,1.22,.38,1.64,.58,.43,.19,.81,.47,1.12,.84,.31,.37,.47,.87,.49,1.49,0,.52-.14,1.04-.43,1.48-.29,.43-.7,.77-1.24,1.02-.52,.25-1.14,.37-1.86,.37h0Zm9.59,0c-.87,0-1.66-.2-2.36-.61-.7-.42-1.28-1.03-1.66-1.76-.4-.76-.6-1.64-.6-2.63s.21-1.86,.62-2.62c.39-.73,.97-1.34,1.69-1.76,.71-.41,1.51-.61,2.39-.61s1.68,.2,2.39,.61c.72,.41,1.3,1.02,1.69,1.76,.41,.76,.62,1.63,.62,2.62s-.21,1.86-.63,2.62c-.4,.74-1.01,1.36-1.74,1.77-.74,.41-1.57,.62-2.41,.61h0Zm0-1.74c.48,0,.96-.12,1.37-.37,.43-.25,.79-.61,1.05-1.11,.27-.49,.4-1.09,.4-1.79s-.13-1.29-.38-1.77c-.26-.49-.6-.86-1.02-1.11-.42-.24-.89-.37-1.37-.37-.49,0-.95,.12-1.37,.37-.41,.25-.74,.61-.99,1.11-.24,.48-.37,1.07-.37,1.77,0,1.04,.25,1.85,.75,2.42,.51,.56,1.15,.84,1.92,.84h0Zm11.32-8.25c.73,0,1.37,.16,1.94,.47,.58,.32,1.06,.81,1.35,1.4,.32,.62,.49,1.37,.49,2.25v5.71h-1.89v-5.41c0-.87-.21-1.53-.62-1.98-.41-.47-.98-.7-1.69-.7s-1.28,.23-1.71,.7c-.41,.46-.62,1.12-.62,1.98v5.41h-1.91v-9.67h1.91v1.11c.32-.4,.72-.72,1.19-.93,.49-.22,1.02-.34,1.55-.33Zm49.39-201c.04-1.22,.43-2.17,1.17-2.83,.73-.66,1.73-1,2.98-1,.83,0,1.54,.15,2.13,.45,.6,.3,1.05,.7,1.35,1.22,.31,.51,.47,1.09,.47,1.73,0,.76-.18,1.38-.55,1.86-.37,.47-.79,.79-1.28,.96v.07c.63,.22,1.13,.58,1.5,1.08,.37,.5,.55,1.15,.55,1.94,0,.71-.16,1.34-.48,1.89-.31,.54-.77,.96-1.38,1.27-.6,.31-1.32,.46-2.15,.46-1.33,0-2.4-.34-3.2-1.01-.79-.68-1.2-1.69-1.25-3.06h2.76c.01,.5,.15,.9,.42,1.2,.27,.29,.65,.43,1.17,.43,.43,0,.77-.13,1-.38,.24-.26,.37-.61,.37-1.03,0-.55-.17-.94-.52-1.19-.33-.25-.87-.38-1.61-.38h-.53v-2.39h.53c.57,0,1.02-.1,1.36-.29,.35-.21,.53-.57,.53-1.08,0-.41-.11-.73-.33-.96-.22-.23-.53-.34-.92-.34-.42,0-.74,.13-.95,.39-.2,.26-.32,.59-.35,.98h-2.78Zm16.64,.77c.28-.45,.68-.83,1.15-1.08,.49-.28,1.06-.41,1.71-.41,.77,0,1.46,.2,2.08,.6,.62,.4,1.11,.97,1.46,1.72,.37,.75,.55,1.61,.55,2.59s-.18,1.86-.55,2.61c-.36,.75-.84,1.32-1.46,1.74-.62,.4-1.34,.61-2.08,.6-.64,0-1.21-.14-1.71-.41-.47-.25-.86-.62-1.15-1.07v5.91h-2.85v-14.15h2.85v1.36Zm4.06,3.42c0-.73-.2-1.31-.6-1.72-.37-.41-.9-.65-1.45-.64-.57,0-1.05,.21-1.45,.64-.39,.42-.58,1-.58,1.74s.19,1.31,.58,1.74c.4,.42,.88,.64,1.45,.64,.55,0,1.08-.23,1.45-.64,.4-.43,.6-1.02,.6-1.75Zm7.24-7.9v12.71h-2.85v-12.71h2.85Zm1.5,7.9c0-.99,.18-1.85,.53-2.59,.37-.74,.86-1.32,1.48-1.72,.62-.4,1.34-.61,2.08-.6,.65,0,1.23,.14,1.71,.41,.5,.27,.88,.64,1.15,1.08v-1.36h2.85v9.58h-2.85v-1.36c-.29,.46-.69,.83-1.17,1.08-.49,.28-1.06,.41-1.71,.41-.75,0-1.44-.2-2.06-.6-.62-.41-1.11-.99-1.48-1.74-.35-.75-.53-1.63-.53-2.61h0Zm6.96,.02c0-.73-.2-1.31-.6-1.74-.36-.41-.88-.64-1.43-.64-.57,0-1.05,.21-1.45,.64-.39,.41-.58,.99-.58,1.72s.2,1.32,.58,1.75c.4,.42,.88,.64,1.45,.64s1.04-.21,1.43-.64c.4-.42,.6-1,.6-1.74Zm4.34,0c0-1,.2-1.87,.58-2.61,.37-.72,.95-1.32,1.65-1.72,.71-.4,1.52-.6,2.43-.6,1.17,0,2.14,.31,2.91,.94,.79,.63,1.3,1.52,1.55,2.66h-3.03c-.26-.73-.75-1.1-1.48-1.1-.52,0-.94,.21-1.25,.64-.31,.41-.47,1.01-.47,1.79s.16,1.38,.47,1.8c.31,.41,.73,.62,1.25,.62,.73,0,1.23-.37,1.48-1.1h3.03c-.24,1.12-.76,2-1.55,2.65-.79,.64-1.76,.96-2.91,.96-.91,0-1.72-.2-2.43-.6-.7-.4-1.27-1-1.65-1.72-.39-.74-.58-1.61-.58-2.61h0Zm19.4-.16c0,.28-.02,.56-.05,.86h-6.44c.05,.6,.23,1.05,.55,1.37,.33,.31,.74,.46,1.21,.46,.71,0,1.2-.31,1.48-.93h3.03c-.15,.62-.44,1.2-.85,1.7-.4,.5-.9,.9-1.52,1.19-.61,.29-1.29,.43-2.05,.43-.91,0-1.72-.2-2.43-.6-.71-.4-1.29-1-1.66-1.72-.4-.74-.6-1.61-.6-2.61s.2-1.87,.58-2.61c.4-.74,.95-1.32,1.67-1.72,.71-.4,1.53-.6,2.45-.6s1.7,.19,2.4,.58c.7,.39,1.24,.94,1.63,1.67,.4,.72,.6,1.56,.6,2.53Zm-2.91-.77c0-.5-.17-.9-.5-1.2-.33-.3-.75-.45-1.25-.45s-.88,.14-1.21,.43c-.32,.29-.52,.69-.6,1.22h3.56Zm-23.15,60.75h-8.15v8.7h8.15v-8.7Z"/>
  <path class="cls-2" d="M314.1,152.57v53.94"/>
  <path class="cls-1" d="M313.45,233.27c1.77,0,3.2-1.53,3.2-3.42s-1.43-3.42-3.2-3.42-3.2,1.53-3.2,3.42,1.43,3.42,3.2,3.42Zm9.88,15.09c-.9-10.84-5.74-13-5.74-13,0,0-4.67-3-9.6,.82-3.19,3.1-3.93,7.84-4.43,12.41-.26,2.32,3.15,2.3,3.4,0,.3-2.73,.73-5.47,2-7.8v2.63s-.03,12.66-.03,12.66v10.04c0,1.08,.74,1.96,1.78,1.96s1.88-.88,1.88-1.96v-14.36h1.67v14.4c0,2.34,3.4,2.34,3.4,0v-10.09l.14-12.69v-3.04c1.36,2.38,1.81,5.2,2.12,8.01,.26,2.3,3.66,2.32,3.4,0Zm-43.45,31.32v-1.83h3.48v12.8h-1.92v-10.97h-1.56Zm12.6,2.72c.32-.44,.76-.82,1.32-1.12s1.19-.46,1.89-.46c.78,0,1.54,.21,2.19,.63,.67,.41,1.19,.99,1.57,1.74,.38,.75,.57,1.61,.57,2.58s-.19,1.84-.57,2.62c-.38,.76-.9,1.36-1.57,1.79-.65,.42-1.41,.64-2.19,.63-.7,0-1.33-.15-1.87-.44-.52-.28-.97-.66-1.34-1.12v6.01h-1.91v-14.28h1.91v1.42h0Zm5.6,3.37c0-.67-.13-1.24-.4-1.72-.26-.49-.6-.86-1.04-1.11-.41-.25-.89-.39-1.37-.39-.48,0-.94,.13-1.37,.39-.42,.26-.77,.63-1.04,1.12-.26,.49-.39,1.07-.39,1.74s.13,1.25,.39,1.76c.27,.49,.61,.87,1.04,1.12,.43,.26,.89,.39,1.37,.39s.95-.13,1.37-.39c.45-.28,.81-.68,1.04-1.16,.27-.5,.4-1.09,.4-1.76Zm12.27-.19c0,.36-.02,.69-.07,.98h-7.04c.06,.77,.33,1.39,.82,1.86,.49,.47,1.09,.7,1.81,.7,1.02,0,1.75-.45,2.17-1.35h2.06c-.27,.87-.8,1.64-1.52,2.2-.73,.56-1.63,.84-2.71,.84-.88,0-1.67-.2-2.38-.61-.7-.43-1.26-1.03-1.64-1.76-.39-.76-.58-1.64-.58-2.63s.19-1.87,.57-2.62c.39-.76,.93-1.35,1.62-1.76,.7-.41,1.51-.61,2.41-.61s1.64,.2,2.32,.6c.68,.4,1.21,.96,1.59,1.69,.38,.71,.57,1.54,.57,2.48Zm-1.99-.63c-.01-.74-.26-1.33-.75-1.77-.49-.45-1.1-.67-1.82-.67-.66,0-1.22,.22-1.69,.67-.47,.43-.75,1.02-.84,1.77h5.1Zm5.77-2.56c.26-.47,.64-.87,1.1-1.14,.47-.28,1.02-.42,1.66-.42v2.07h-.48c-.75,0-1.32,.2-1.71,.6-.38,.4-.57,1.09-.57,2.07v5.09h-1.91v-9.67h1.91v1.4h0Zm7.86,8.43c-.73,0-1.38-.14-1.96-.4-.54-.26-1-.64-1.36-1.12-.33-.47-.52-1.02-.54-1.6h1.97c.03,.41,.22,.76,.55,1.04,.35,.27,.77,.4,1.29,.4s.95-.11,1.24-.32c.3-.22,.45-.5,.45-.84,0-.36-.17-.63-.5-.81-.32-.18-.84-.37-1.56-.58-.57-.16-1.14-.35-1.69-.58-.44-.19-.83-.49-1.14-.86-.31-.39-.47-.9-.47-1.53,0-.52,.14-.98,.43-1.4,.29-.43,.7-.77,1.24-1.02,.55-.25,1.17-.37,1.87-.37,1.05,0,1.89,.28,2.53,.84,.65,.55,.99,1.3,1.04,2.27h-1.91c-.03-.43-.2-.78-.5-1.04s-.71-.39-1.22-.39-.89,.1-1.15,.3c-.26,.18-.41,.48-.4,.79,0,.26,.09,.48,.27,.65,.18,.18,.4,.32,.65,.42,.26,.09,.64,.22,1.14,.37,.67,.19,1.22,.38,1.64,.58,.43,.19,.81,.47,1.12,.84,.31,.37,.47,.87,.48,1.49,0,.52-.14,1.04-.43,1.48-.29,.43-.7,.77-1.24,1.02-.52,.25-1.14,.37-1.86,.37h0Zm9.59,0c-.87,0-1.66-.2-2.36-.61-.7-.42-1.28-1.03-1.66-1.76-.4-.76-.6-1.64-.6-2.63s.21-1.86,.62-2.62c.39-.73,.97-1.34,1.69-1.76,.71-.41,1.51-.61,2.39-.61s1.68,.2,2.39,.61c.72,.41,1.3,1.02,1.69,1.76,.41,.76,.62,1.63,.62,2.62s-.21,1.86-.64,2.62c-.4,.74-1.01,1.36-1.74,1.77-.74,.41-1.57,.62-2.41,.61h0Zm0-1.74c.48,0,.96-.12,1.37-.37,.43-.25,.79-.61,1.05-1.11,.27-.49,.4-1.09,.4-1.79s-.13-1.29-.38-1.77c-.26-.49-.6-.86-1.02-1.11-.42-.24-.89-.37-1.37-.37-.49,0-.95,.12-1.37,.37-.41,.25-.74,.61-.99,1.11-.24,.48-.37,1.07-.37,1.77,0,1.04,.25,1.85,.75,2.42,.51,.56,1.15,.84,1.92,.84h0Zm11.32-8.25c.73,0,1.37,.16,1.94,.47,.58,.32,1.06,.81,1.36,1.4,.32,.62,.48,1.37,.48,2.25v5.71h-1.89v-5.41c0-.87-.21-1.53-.62-1.98-.41-.47-.98-.7-1.69-.7s-1.28,.23-1.71,.7c-.41,.46-.62,1.12-.62,1.98v5.41h-1.91v-9.67h1.91v1.11c.32-.4,.72-.72,1.19-.93,.49-.22,1.02-.34,1.55-.33Zm51.73-194.6v-2.31l5.5-7.58h3.33v7.41h1.43v2.48h-1.43v2.18h-2.98v-2.18h-5.85Zm6.06-6.74l-2.93,4.26h2.93v-4.26Zm12.62,.89c.3-.45,.72-.81,1.2-1.06,.51-.27,1.11-.4,1.79-.4,.8,0,1.53,.2,2.18,.59,.65,.39,1.16,.95,1.53,1.68,.38,.73,.58,1.57,.58,2.53s-.19,1.81-.58,2.55c-.37,.73-.88,1.29-1.53,1.69-.66,.39-1.41,.6-2.18,.59-.67,0-1.27-.14-1.79-.4-.48-.24-.89-.6-1.2-1.04v5.77h-2.98v-13.81h2.98v1.32Zm4.25,3.34c0-.71-.21-1.27-.63-1.68-.4-.41-.91-.62-1.52-.62s-1.1,.21-1.52,.62c-.41,.41-.61,.98-.61,1.69s.2,1.28,.61,1.69c.42,.41,.92,.62,1.52,.62s1.1-.21,1.52-.62c.42-.42,.63-1,.63-1.71Zm7.57-7.71v12.41h-2.98v-12.41h2.98Zm1.57,7.71c0-.96,.19-1.81,.56-2.53,.38-.73,.9-1.29,1.55-1.68,.66-.39,1.41-.6,2.18-.59,.69,0,1.28,.13,1.79,.4,.52,.27,.92,.62,1.2,1.06v-1.33h2.98v9.35h-2.98v-1.32c-.29,.44-.7,.79-1.22,1.06-.51,.27-1.11,.4-1.79,.4-.79,0-1.51-.2-2.16-.59-.65-.4-1.17-.97-1.55-1.69-.37-.74-.56-1.59-.56-2.55h0Zm7.28,.02c0-.71-.21-1.28-.63-1.69-.39-.41-.93-.63-1.5-.62-.59,0-1.1,.21-1.52,.62-.41,.4-.61,.96-.61,1.68s.2,1.29,.61,1.71c.42,.41,.92,.62,1.52,.62s1.09-.21,1.5-.62c.42-.41,.63-.98,.63-1.69Zm4.54,0c0-.97,.2-1.82,.61-2.55,.4-.71,1-1.29,1.72-1.68,.74-.39,1.59-.59,2.54-.59,1.22,0,2.23,.31,3.05,.92,.82,.61,1.36,1.48,1.62,2.6h-3.17c-.27-.71-.78-1.07-1.55-1.07-.55,0-.98,.21-1.31,.62-.33,.4-.49,.98-.49,1.74s.16,1.35,.49,1.76c.33,.4,.76,.6,1.31,.6,.77,0,1.28-.36,1.55-1.07h3.17c-.26,1.1-.8,1.96-1.62,2.58-.83,.62-1.84,.94-3.05,.94-.95,0-1.8-.2-2.54-.59-.72-.38-1.32-.97-1.72-1.68-.41-.73-.61-1.58-.61-2.55h0Zm20.3-.15c0,.27-.02,.55-.05,.84h-6.74c.05,.58,.24,1.03,.58,1.34,.35,.3,.77,.45,1.27,.45,.74,0,1.26-.3,1.55-.9h3.17c-.16,.62-.47,1.18-.89,1.66-.43,.5-.97,.9-1.58,1.16-.64,.28-1.35,.42-2.14,.42-.95,0-1.8-.2-2.54-.59-.73-.38-1.34-.96-1.74-1.68-.42-.73-.63-1.58-.63-2.55s.2-1.82,.61-2.55c.41-.72,1.01-1.3,1.74-1.68,.74-.39,1.6-.59,2.56-.59s1.78,.19,2.51,.57c.73,.38,1.3,.92,1.71,1.63,.42,.7,.63,1.53,.63,2.46Zm-3.05-.75c0-.49-.17-.88-.52-1.17-.35-.29-.78-.44-1.31-.44s-.92,.14-1.27,.42c-.34,.28-.55,.68-.63,1.19h3.73Zm-25.1,60.64h-9.01v8.99h9.01v-8.99Z"/>
  <path class="cls-2" d="M427.29,152.46v53.97"/>
  <path class="cls-1" d="M426.74,233.05c1.89,0,3.42-1.53,3.42-3.42h0c0-1.89-1.53-3.42-3.42-3.42-1.89,0-3.42,1.53-3.42,3.42,0,1.89,1.53,3.42,3.42,3.42Zm10.56,15.07c-.97-10.82-6.13-12.98-6.13-12.98,0,0-4.99-3-10.25,.82-3.41,3.1-4.19,7.82-4.73,12.39-.27,2.32,3.36,2.29,3.63,0,.32-2.72,.78-5.46,2.14-7.79v2.63s-.03,12.64-.03,12.64v10.03c0,1.08,.79,1.95,1.9,1.95s2.01-.88,2.01-1.95v-14.34h1.78v14.38c0,2.34,3.63,2.34,3.63,0v-10.08l.15-12.67v-3.04c1.45,2.37,1.93,5.19,2.26,8,.27,2.29,3.91,2.32,3.64,0h0Zm-46.04,31.04v-1.89h3.69v13.23h-2.04v-11.35h-1.65Zm13.38,2.81c.34-.46,.81-.85,1.4-1.16,.59-.32,1.26-.47,2.01-.47,.85,0,1.63,.22,2.33,.65,.71,.42,1.27,1.02,1.67,1.8s.6,1.67,.6,2.67-.2,1.91-.6,2.7c-.38,.76-.95,1.4-1.67,1.85-.7,.43-1.5,.66-2.33,.65-.75,0-1.41-.15-1.99-.45-.55-.29-1.03-.68-1.42-1.16v6.21h-2.02v-14.76h2.02v1.47h0Zm5.95,3.49c0-.69-.14-1.28-.43-1.78-.27-.51-.64-.89-1.1-1.14-.44-.26-.94-.4-1.46-.4-.51,0-.99,.13-1.46,.4-.45,.27-.82,.65-1.1,1.16-.27,.51-.41,1.11-.41,1.8s.14,1.3,.41,1.82c.28,.51,.65,.89,1.1,1.16,.46,.27,.95,.4,1.46,.4s1.01-.13,1.46-.4c.47-.29,.85-.7,1.1-1.2,.28-.52,.43-1.12,.43-1.82h0Zm13.03-.2c0,.38-.02,.71-.07,1.02h-7.48c.06,.8,.35,1.44,.87,1.92,.52,.48,1.16,.73,1.92,.73,1.09,0,1.86-.47,2.31-1.4h2.18c-.29,.91-.85,1.7-1.62,2.27-.77,.58-1.73,.87-2.88,.87-.94,0-1.78-.21-2.52-.64-.73-.44-1.34-1.06-1.74-1.82-.42-.79-.62-1.69-.62-2.72s.2-1.93,.6-2.7c.39-.76,.99-1.39,1.72-1.82,.75-.42,1.6-.64,2.56-.64s1.75,.2,2.47,.62c.72,.41,1.3,1.01,1.69,1.74,.4,.74,.6,1.59,.6,2.56h0Zm-2.11-.65c-.01-.76-.28-1.37-.8-1.83-.52-.46-1.17-.69-1.94-.69-.7,0-1.3,.23-1.79,.69-.5,.45-.79,1.06-.89,1.83h5.42Zm6.13-2.65c.28-.49,.68-.9,1.17-1.18,.5-.29,1.08-.43,1.76-.43v2.14h-.52c-.79,0-1.4,.2-1.81,.62-.4,.41-.6,1.12-.6,2.14v5.27h-2.02v-10h2.02v1.45h0Zm8.34,8.71c-.77,0-1.46-.14-2.08-.42-.6-.29-1.08-.68-1.44-1.16-.35-.48-.55-1.06-.57-1.65h2.1c.04,.42,.23,.78,.59,1.07,.37,.28,.82,.42,1.37,.42s1.01-.11,1.31-.33c.32-.23,.48-.52,.48-.87,0-.38-.18-.65-.53-.83-.34-.18-.89-.38-1.65-.6-.61-.16-1.21-.36-1.79-.6-.47-.2-.88-.5-1.21-.89-.33-.4-.5-.92-.5-1.58,0-.53,.15-1.02,.46-1.45,.31-.45,.75-.8,1.31-1.05,.58-.25,1.24-.38,1.99-.38,1.11,0,2.01,.29,2.68,.87,.69,.57,1.05,1.35,1.1,2.34h-2.02c-.04-.45-.21-.8-.53-1.07-.32-.27-.75-.4-1.3-.4s-.94,.1-1.23,.31c-.27,.18-.43,.49-.43,.82,0,.27,.1,.49,.28,.67,.19,.18,.42,.33,.69,.43,.27,.1,.67,.22,1.21,.38,.71,.19,1.29,.39,1.74,.6,.46,.19,.86,.48,1.19,.87,.33,.39,.5,.9,.52,1.54,0,.54-.15,1.08-.46,1.52-.31,.45-.75,.8-1.31,1.05-.56,.25-1.21,.38-1.97,.38h0Zm10.18,0c-.92,0-1.76-.21-2.5-.64-.74-.43-1.35-1.06-1.76-1.82-.43-.79-.64-1.69-.64-2.72s.22-1.92,.66-2.7c.41-.76,1.04-1.39,1.79-1.82,.76-.42,1.61-.64,2.54-.64s1.78,.21,2.54,.64c.76,.42,1.38,1.05,1.79,1.82,.44,.79,.66,1.69,.66,2.7s-.22,1.92-.67,2.7c-.43,.77-1.07,1.41-1.85,1.83-.77,.42-1.62,.64-2.56,.64h0Zm0-1.8c.52,0,1.01-.13,1.46-.38,.46-.25,.83-.64,1.12-1.14,.28-.51,.43-1.13,.43-1.85s-.14-1.34-.41-1.83c-.27-.51-.63-.89-1.08-1.14-.44-.25-.95-.38-1.46-.38-.51,0-1.01,.13-1.46,.38-.44,.25-.79,.64-1.05,1.14-.26,.5-.39,1.11-.39,1.83,0,1.08,.27,1.91,.8,2.51,.55,.58,1.23,.87,2.04,.87h0Zm12.02-8.53c.77,0,1.46,.16,2.06,.49,.62,.33,1.12,.83,1.44,1.45,.34,.64,.52,1.42,.52,2.32v5.9h-2.01v-5.59c0-.89-.22-1.58-.66-2.05-.44-.48-1.04-.73-1.79-.73s-1.36,.24-1.81,.73c-.44,.47-.66,1.16-.66,2.05v5.59h-2.02v-10h2.02v1.14c.34-.42,.77-.75,1.26-.96,.52-.23,1.08-.35,1.65-.34h0Zm68.22-201.59h-5.54v2.39c.24-.25,.57-.46,.99-.62,.44-.16,.91-.25,1.39-.24,.89,0,1.62,.2,2.2,.59,.59,.39,1.03,.9,1.3,1.52,.27,.62,.41,1.3,.41,2.02,0,1.35-.39,2.42-1.17,3.22-.78,.78-1.88,1.18-3.3,1.18-.95,0-1.77-.15-2.47-.47-.7-.32-1.24-.77-1.62-1.33-.38-.57-.59-1.22-.62-1.95h2.97c.07,.36,.24,.66,.52,.9,.27,.23,.65,.35,1.12,.35,.56,0,.97-.17,1.24-.52,.27-.35,.41-.81,.41-1.38s-.14-1-.43-1.3c-.28-.3-.7-.45-1.24-.45-.4,0-.73,.1-.99,.29-.26,.18-.43,.43-.52,.74h-2.93v-7.52h8.3v2.59h0Zm9.53,1.76c.3-.45,.71-.81,1.23-1.09,.52-.28,1.13-.42,1.83-.42,.82,0,1.56,.2,2.22,.61,.66,.4,1.18,.98,1.56,1.73,.39,.75,.59,1.62,.59,2.61s-.2,1.87-.59,2.63c-.38,.75-.9,1.33-1.56,1.75-.67,.41-1.44,.62-2.22,.61-.69,0-1.3-.14-1.83-.42-.49-.25-.91-.62-1.23-1.07v5.95h-3.04v-14.25h3.04v1.37h0Zm4.34,3.44c0-.74-.21-1.32-.64-1.73-.41-.43-.93-.64-1.55-.64s-1.12,.21-1.54,.64c-.41,.43-.62,1.01-.62,1.75s.21,1.32,.62,1.75c.43,.43,.94,.64,1.54,.64s1.12-.21,1.55-.64c.43-.44,.64-1.03,.64-1.76Zm7.72-7.96v12.8h-3.04v-12.8h3.04Zm1.6,7.96c0-.99,.19-1.86,.57-2.61,.39-.75,.92-1.33,1.58-1.73,.67-.4,1.44-.61,2.22-.61,.7,0,1.31,.14,1.83,.42,.53,.28,.94,.64,1.23,1.09v-1.37h3.04v9.65h-3.04v-1.37c-.3,.45-.71,.81-1.24,1.09-.52,.28-1.13,.42-1.83,.42-.78,0-1.54-.2-2.2-.61-.66-.42-1.19-1-1.58-1.75-.38-.76-.57-1.64-.57-2.63Zm7.43,.02c0-.74-.21-1.32-.64-1.75-.4-.42-.95-.65-1.53-.64-.6,0-1.12,.21-1.54,.64-.41,.42-.62,.99-.62,1.73s.21,1.33,.62,1.76c.43,.43,.94,.64,1.54,.64s1.11-.21,1.53-.64c.43-.43,.64-1.01,.64-1.75Zm4.63,0c0-1,.21-1.88,.62-2.63,.41-.73,1.02-1.33,1.76-1.73,.76-.4,1.62-.61,2.59-.61,1.24,0,2.28,.32,3.11,.95,.84,.64,1.39,1.53,1.65,2.68h-3.23c-.27-.74-.8-1.11-1.58-1.11-.56,0-1,.21-1.33,.64-.33,.42-.5,1.01-.5,1.8s.16,1.39,.5,1.82c.33,.42,.78,.62,1.33,.62,.78,0,1.31-.37,1.58-1.11h3.23c-.26,1.13-.81,2.02-1.65,2.66-.84,.64-1.88,.97-3.11,.97-.97,0-1.84-.2-2.59-.61-.74-.4-1.35-1-1.76-1.73-.41-.75-.62-1.62-.62-2.63Zm20.71-.15c0,.28-.02,.57-.05,.86h-6.88c.05,.6,.24,1.06,.59,1.38,.35,.31,.79,.47,1.3,.47,.76,0,1.28-.31,1.58-.93h3.23c-.16,.63-.47,1.22-.91,1.71-.44,.52-.99,.93-1.62,1.19-.65,.29-1.38,.43-2.18,.43-.97,0-1.84-.2-2.59-.61-.75-.39-1.36-.99-1.78-1.73-.43-.75-.64-1.62-.64-2.63s.21-1.88,.62-2.63c.41-.74,1.03-1.34,1.78-1.73,.76-.4,1.63-.61,2.61-.61s1.81,.2,2.56,.59c.73,.38,1.34,.96,1.74,1.68,.43,.73,.64,1.57,.64,2.54Zm-3.11-.78c0-.51-.18-.91-.53-1.21-.35-.3-.8-.45-1.33-.45s-.94,.14-1.3,.43c-.34,.29-.56,.7-.64,1.23h3.8Zm-24.73,60.83h-8.7v8.7h8.7v-8.7Z"/>
  <path class="cls-2" d="M551.03,152.57v53.94"/>
  <path class="cls-1" d="M549.62,233.27c1.89,0,3.42-1.53,3.42-3.42s-1.53-3.42-3.42-3.42c-1.89-.05-3.46,1.45-3.5,3.34-.05,1.89,1.45,3.46,3.34,3.5,.06,0,.11,0,.17,0Zm10.56,15.09c-.97-10.84-6.13-13-6.13-13,0,0-4.99-3-10.25,.82-3.41,3.1-4.19,7.84-4.73,12.41-.27,2.32,3.36,2.3,3.63,0,.32-2.73,.78-5.47,2.14-7.8v2.63s-.03,12.66-.03,12.66v10.04c0,1.08,.79,1.96,1.9,1.96s2.01-.88,2.01-1.96v-14.36h1.78v14.4c0,2.34,3.63,2.34,3.63,0v-10.09l.15-12.69v-3.04c1.46,2.38,1.93,5.2,2.26,8.01,.27,2.3,3.91,2.32,3.63,0h0Zm-45.7,31.32v-1.83h3.62v12.8h-2v-10.97h-1.62Zm13.13,2.72c.34-.44,.8-.82,1.38-1.12,.58-.3,1.24-.46,1.97-.46,.84,0,1.6,.21,2.28,.63,.7,.41,1.27,1.02,1.64,1.74,.4,.75,.59,1.61,.59,2.58s-.2,1.84-.59,2.62c-.37,.74-.94,1.36-1.64,1.79-.69,.42-1.48,.64-2.28,.63-.73,0-1.38-.15-1.95-.44-.54-.28-1.01-.66-1.39-1.12v6.01h-1.99v-14.28h1.99v1.42h0Zm5.84,3.37c0-.67-.14-1.24-.42-1.72-.24-.47-.62-.85-1.08-1.11-.43-.26-.93-.39-1.43-.39-.5,0-.98,.13-1.43,.39-.45,.27-.83,.66-1.08,1.12-.27,.49-.4,1.07-.4,1.74s.13,1.25,.4,1.76c.28,.49,.64,.87,1.08,1.12,.88,.51,1.97,.51,2.86,0,.46-.28,.84-.68,1.08-1.16,.28-.5,.42-1.09,.42-1.76h0Zm12.79-.19c0,.36-.02,.69-.07,.98h-7.34c.06,.77,.34,1.39,.85,1.86,.51,.47,1.14,.7,1.88,.7,1.07,0,1.82-.45,2.27-1.35h2.14c-.28,.88-.84,1.65-1.59,2.2-.76,.56-1.7,.84-2.82,.84-.92,0-1.74-.2-2.47-.61-.72-.42-1.31-1.03-1.71-1.76-.41-.76-.61-1.64-.61-2.63s.2-1.87,.59-2.62c.38-.74,.97-1.35,1.69-1.76,.73-.41,1.57-.61,2.51-.61s1.71,.2,2.42,.6c.71,.4,1.26,.96,1.66,1.69,.39,.71,.59,1.54,.59,2.48Zm-2.08-.63c-.01-.74-.27-1.33-.78-1.77-.51-.45-1.15-.67-1.9-.67-.69,0-1.27,.22-1.76,.67-.49,.43-.78,1.02-.87,1.77h5.32Zm6.02-2.56c.27-.48,.67-.87,1.15-1.14,.49-.28,1.06-.42,1.72-.42v2.07h-.51c-.78,0-1.37,.2-1.78,.6-.4,.4-.59,1.09-.59,2.07v5.09h-1.99v-9.67h1.99v1.4Zm8.19,8.43c-.76,0-1.43-.14-2.04-.4-.59-.28-1.06-.66-1.41-1.12-.34-.46-.54-1.02-.56-1.6h2.06c.03,.41,.23,.76,.58,1.04,.36,.27,.81,.4,1.34,.4s.99-.11,1.29-.32c.31-.22,.47-.5,.47-.84,0-.36-.17-.63-.52-.81-.34-.18-.88-.37-1.62-.58-.6-.16-1.19-.35-1.76-.58-.46-.19-.86-.49-1.18-.86-.33-.39-.49-.9-.49-1.53,0-.52,.15-.98,.45-1.4,.3-.43,.73-.77,1.29-1.02,.57-.25,1.22-.37,1.95-.37,1.09,0,1.97,.28,2.63,.84,.67,.55,1.03,1.3,1.08,2.27h-1.99c-.03-.43-.21-.78-.52-1.04-.31-.26-.74-.39-1.27-.39s-.92,.1-1.2,.3c-.28,.2-.42,.46-.42,.79,0,.25,.1,.48,.28,.65,.19,.18,.41,.32,.68,.42,.27,.09,.66,.22,1.18,.37,.7,.19,1.27,.38,1.71,.58,.45,.19,.84,.47,1.17,.84,.33,.37,.49,.87,.51,1.49,0,.55-.15,1.04-.45,1.48-.3,.43-.73,.77-1.29,1.02-.54,.25-1.19,.37-1.93,.37h0Zm9.99,0c-.91,0-1.73-.2-2.46-.61-.73-.42-1.32-1.02-1.72-1.76-.42-.76-.63-1.64-.63-2.63s.22-1.86,.65-2.62c.41-.74,1.02-1.35,1.76-1.76,.74-.41,1.58-.61,2.49-.61s1.75,.2,2.49,.61c.74,.41,1.35,1.02,1.76,1.76,.43,.76,.65,1.63,.65,2.62s-.22,1.86-.66,2.62c-.43,.75-1.06,1.36-1.81,1.77-.75,.41-1.59,.61-2.51,.61h0Zm0-1.74c.51,0,.99-.12,1.43-.37,.46-.26,.84-.64,1.1-1.11,.28-.49,.42-1.09,.42-1.79s-.13-1.29-.4-1.77c-.27-.49-.62-.86-1.06-1.11-.44-.24-.93-.37-1.43-.37-.5,0-.99,.12-1.43,.37-.43,.25-.77,.61-1.03,1.11-.26,.48-.38,1.07-.38,1.77,0,1.04,.26,1.85,.78,2.42,.53,.56,1.2,.84,2.01,.84h0Zm11.79-8.25c.76,0,1.43,.16,2.02,.47,.6,.31,1.09,.8,1.41,1.4,.34,.62,.51,1.37,.51,2.25v5.71h-1.97v-5.41c0-.87-.22-1.53-.65-1.98-.43-.47-1.02-.7-1.76-.7s-1.34,.23-1.78,.7c-.43,.46-.65,1.12-.65,1.98v5.41h-1.99v-9.67h1.99v1.11c.33-.4,.76-.72,1.24-.93,.51-.22,1.06-.34,1.62-.33h0Z"/>
</svg>