<svg width="23" height="24" fill="none" xmlns="http://www.w3.org/2000/svg"><path d="M7.367 11.281a.54.54 0 0 1 .54.54l-.001 2.707-1.078-1.155V11.82a.54.54 0 0 1 .54-.539zM5.57 8.047a.54.54 0 0 1 .54.539l-.001 4.017-.243-.26A1.08 1.08 0 0 0 5.078 12h-.047V8.584a.54.54 0 0 1 .54-.537zM3.773 5.89a.54.54 0 0 1 .54.539v5.85c-.16.144-.279.332-.33.548l-.749-.952V6.43a.54.54 0 0 1 .54-.54zm6.29 16.53H6.469v-1.2c0-.48-.187-.932-.527-1.271l-2.777-2.777-2.087-3.827V7.327a.715.715 0 0 1 .719-.719.72.72 0 0 1 .719.72V12c0 .08.027.159.076.222l3.953 5.031.566-.444-2.44-3.104v-.627a.36.36 0 0 1 .36-.36h.047a.36.36 0 0 1 .263.115l4.431 4.748c.187.2.29.462.29.735v4.106zM19.227 5.89a.54.54 0 0 1 .538.54v5.446l-.748.952a1.076 1.076 0 0 0-.33-.548V6.43a.54.54 0 0 1 .54-.54zM17.43 8.048a.54.54 0 0 1 .538.539V12h-.047c-.297 0-.584.125-.788.342l-.242.26V8.587a.54.54 0 0 1 .539-.54zm-2.336 3.773a.54.54 0 0 1 1.078 0v1.553l-1.079 1.155V11.82zm6.828 1.525-2.088 3.828-2.777 2.777c-.339.339-.526.79-.526 1.27v1.202h-3.593v-4.106c0-.273.103-.535.29-.735l4.431-4.748a.359.359 0 0 1 .262-.114h.047a.36.36 0 0 1 .36.36v.626l-2.44 3.104.566.444 3.953-5.03a.36.36 0 0 0 .077-.223V7.328a.72.72 0 0 1 1.438 0v6.017zM11.5 9.362l-3.871-3.52a2.45 2.45 0 0 1-.796-1.977 2.438 2.438 0 0 1 1.03-1.854 2.37 2.37 0 0 1 2.894.131l.51.433c.135.114.331.114.465 0l.511-.433a2.37 2.37 0 0 1 2.894-.132 2.439 2.439 0 0 1 1.03 1.854 2.45 2.45 0 0 1-.796 1.977L11.5 9.362z" fill="#FEF22B"/></svg>